999
dxfrw 0.5.10
0
SECTION
  2
HEADER
9
$ACADVER
  1
AC1021
  9
$MEASUREMENT
  70
  1
  9
$INSUNITS
  70
  4
9
$HANDSEED
  5
20000
0
ENDSEC
 0
SECTION
2
CLASSES
0
ENDSEC
 0
SECTION
 2
TABLES
0
TABLE
2
VPORT
5
8
330
0
100
AcDbSymbolTable
70
1
0
VPORT
5
31
330
2
100
AcDbSymbolTableRecord
100
AcDbViewportTableRecord
2
*ACTIVE
70
0
10
0
20
0
11
1
21
1
12
209.475294253
22
86.0026335861
13
0
23
0
14
10
24
10
15
10
25
10
16
0
26
0
36
1
17
0
27
0
37
0
40
319.744231092
41
2.12946428571
42
50
43
0
44
0
50
0
51
0
71
0
72
100
73
1
74
3
75
0
76
0
77
0
78
0
281
0
65
1
110
0
120
0
130
0
111
1
121
0
131
0
112
0
122
1
132
0
79
0
146
0
348
10020
60
7
61
5
292
1
282
1
141
0
142
0
63
250
421
3358443
0
ENDTAB
0
TABLE
2
LTYPE
5
5
330
0
100
AcDbSymbolTable
70
4
0
LTYPE
5
14
330
5
100
AcDbSymbolTableRecord
100
AcDbLinetypeTableRecord
2
ByBlock
70
0
3

72
65
73
0
40
0
0
LTYPE
5
15
330
5
100
AcDbSymbolTableRecord
100
AcDbLinetypeTableRecord
2
ByLayer
70
0
3
 
72
65
73
0
40
0
0
LTYPE
5
16
330
5
100
AcDbSymbolTableRecord
100
AcDbLinetypeTableRecord
2
Continuous
70
0
3
Solid line
72
65
73
0
40
0.0
0
LTYPE
5
 0000009d
100
AcDbSymbolTableRecord
100
AcDbLinetypeTableRecord
2
DOT
70
0
3
Dot . . . . . . . . . . . . . . . . . . . . . .
72
65
73
2
40
 3.0
49
 1.0
74
 0
49
 0.0
74
 0
0
LTYPE
5
 0000009e
100
AcDbSymbolTableRecord
100
AcDbLinetypeTableRecord
2
DASHED
70
0
3
Dashed __ __ __ __ __ __ __ __ __ __ __ __ __ _
72
65
73
2
40
1.0
49
 0.55
74
0
49
-0.45
74
0
0
ENDTAB
0
TABLE
2
LAYER
5
10
330
0
100
AcDbSymbolTable
70
1
0
LAYER
5
 0000009f
330
 2
100
AcDbSymbolTableRecord
100
AcDbLayerTableRecord
2
0
70
0
62
7
6
CONTINUOUS
370
 -3.0
390
F
0
LAYER
5
 000000a0
330
 2
100
AcDbSymbolTableRecord
100
AcDbLayerTableRecord
2
contour007
70
0
62
7
6
CONTINUOUS
370
 0.1
390
F
0
LAYER
5
 000000a1
330
 2
100
AcDbSymbolTableRecord
100
AcDbLayerTableRecord
2
engraving007
70
0
62
7
6
CONTINUOUS
370
 0.1
390
F
0
LAYER
5
 000000a2
330
 2
100
AcDbSymbolTableRecord
100
AcDbLayerTableRecord
2
engraving152
70
0
62
152
6
CONTINUOUS
370
 0.1
390
F
0
LAYER
5
 000000a3
330
 2
100
AcDbSymbolTableRecord
100
AcDbLayerTableRecord
2
reference_cross001
70
0
62
1
6
CONTINUOUS
370
 0.1
390
F
0
LAYER
5
 000000a4
330
 2
100
AcDbSymbolTableRecord
100
AcDbLayerTableRecord
2
reference_cross092
70
0
62
92
6
CONTINUOUS
370
 0.1
390
F
0
LAYER
5
 000000a5
330
 2
100
AcDbSymbolTableRecord
100
AcDbLayerTableRecord
2
reference_cross251
70
0
62
251
6
CONTINUOUS
370
 0.1
390
F
0
ENDTAB
0
TABLE
2
STYLE
5
3
330
0
100
AcDbSymbolTable
70
3
0
STYLE
5
45
330
2
100
AcDbSymbolTableRecord
100
AcDbTextStyleTableRecord
2
Standard
70
0
40
0
41
1
50
0
71
0
42
1
3
txt
4
 
0
ENDTAB
0
TABLE
2
VIEW
5
6
330
0
100
AcDbSymbolTable
70
0
0
ENDTAB
0
TABLE
2
UCS
5
7
330
0
100
AcDbSymbolTable
70
0
0
ENDTAB
0
TABLE
2
APPID
5
9
330
0
100
AcDbSymbolTable
70
1
0
APPID
5
12
330
9
100
AcDbSymbolTableRecord
100
AcDbRegAppTableRecord
2
ACAD
70
0
0
ENDTAB
0
TABLE
2
DIMSTYLE
5
A
330
0
100
AcDbSymbolTable
70
1
100
AcDbDimStyleTable
71
1
0
DIMSTYLE
105
46
330
A
100
AcDbSymbolTableRecord
100
AcDbDimStyleTableRecord
2
Standard
70
0
40
1
41
0.18
42
0.0625
43
0.38
44
0.18
45
0
46
0
47
0
48
0
140
0.18
141
0.09
142
0
143
25.4
144
1
145
0
146
1
147
0.09
148
0
71
0
72
0
73
0
74
1
75
0
76
0
77
0
78
0
79
0
170
0
171
2
172
0
173
0
174
0
175
0
176
0
177
0
178
0
179
0
271
4
272
4
273
2
274
2
275
0
276
0
277
2
278
46
279
0
280
0
281
0
282
0
283
1
284
0
285
0
286
0
288
0
289
3
340
Standard
341
 
371
-2
372
-2
0
ENDTAB
0
TABLE
2
BLOCK_RECORD
5
1
330
0
100
AcDbSymbolTable
70
2
0
BLOCK_RECORD
5
1F
330
1
100
AcDbSymbolTableRecord
100
AcDbBlockTableRecord
2
*Model_Space
70
0
280
1
281
0
0
BLOCK_RECORD
5
1E
330
1
100
AcDbSymbolTableRecord
100
AcDbBlockTableRecord
2
*Paper_Space
70
0
280
1
281
0
0
ENDTAB
0
ENDSEC
0
SECTION
2
BLOCKS
0
BLOCK
5
20
330
1F
100
AcDbEntity
8
0
100
AcDbBlockBegin
2
*Model_Space
70
0
10
0
20
0
30
0
3
*Model_Space
1
 
0
ENDBLK
5
21
330
1F
100
AcDbEntity
8
0
100
AcDbBlockEnd
0
BLOCK
5
1C
330
1B
100
AcDbEntity
8
0
100
AcDbBlockBegin
2
*Paper_Space
70
0
10
0
20
0
30
0
3
*Paper_Space
1
 
0
ENDBLK
5
1D
330
1E
100
AcDbEntity
8
0
100
AcDbBlockEnd
0
ENDSEC
0
SECTION
  2
ENTITIES
0
ARC
  5
000000a6
 39
 0.100 
 100
AcDbEntity
8
contour007
 6
CONTINUOUS
100
AcDbCircle
 10
435.000000000000
 20
41.949000000000
 30
 0
 40
2.000000000000
100
AcDbArc
 50
0.000000000000
 51
90.000000000000
0
LINE
  5
000000a7
 39
 0.100 
 100
AcDbEntity
8
contour007
 6
CONTINUOUS
 100
AcDbLine
 10
437.000000000000
 20
2.000000000000
 30
 0.0
 11
437.000000000000
 21
41.949000000000
 31
0.0
0
ARC
  5
000000a8
 39
 0.100 
 100
AcDbEntity
8
contour007
 6
CONTINUOUS
100
AcDbCircle
 10
435.000000000000
 20
2.000000000000
 30
 0
 40
2.000000000000
100
AcDbArc
 50
-90.000000000000
 51
0.000000000000
0
LINE
  5
000000a9
 39
 0.100 
 100
AcDbEntity
8
contour007
 6
CONTINUOUS
 100
AcDbLine
 10
2.000000000000
 20
0.000000000000
 30
 0.0
 11
435.000000000000
 21
0.000000000000
 31
0.0
0
ARC
  5
000000aa
 39
 0.100 
 100
AcDbEntity
8
contour007
 6
CONTINUOUS
100
AcDbCircle
 10
2.000000000000
 20
2.000000000000
 30
 0
 40
2.000000000000
100
AcDbArc
 50
180.000000000000
 51
270.000000000000
0
LINE
  5
000000ab
 39
 0.100 
 100
AcDbEntity
8
contour007
 6
CONTINUOUS
 100
AcDbLine
 10
0.000000000000
 20
41.949000000000
 30
 0.0
 11
0.000000000000
 21
2.000000000000
 31
0.0
0
ARC
  5
000000ac
 39
 0.100 
 100
AcDbEntity
8
contour007
 6
CONTINUOUS
100
AcDbCircle
 10
2.000000000000
 20
41.949000000000
 30
 0
 40
2.000000000000
100
AcDbArc
 50
90.000000000000
 51
180.000000000000
0
LINE
  5
000000ad
 39
 0.100 
 100
AcDbEntity
8
contour007
 6
CONTINUOUS
 100
AcDbLine
 10
435.000000000000
 20
43.949000000000
 30
 0.0
 11
2.000000000000
 21
43.949000000000
 31
0.0
0
LWPOLYLINE
  5
000000ae
 39
 0.100 
 100
AcDbEntity
8
engraving152
 6
CONTINUOUS
100
AcDbPolyline
 90
5
 70
8
 10
144.100000000000
 20
32.049000000000
 10
154.100000000000
 20
32.049000000000
 10
154.100000000000
 20
42.049000000000
 10
144.100000000000
 20
42.049000000000
 10
144.100000000000
 20
32.049000000000
0
LWPOLYLINE
  5
000000af
 39
 0.100 
 100
AcDbEntity
8
engraving152
 6
CONTINUOUS
100
AcDbPolyline
 90
5
 70
8
 10
283.100000000000
 20
32.049000000000
 10
293.100000000000
 20
32.049000000000
 10
293.100000000000
 20
42.049000000000
 10
283.100000000000
 20
42.049000000000
 10
283.100000000000
 20
32.049000000000
0
LWPOLYLINE
  5
000000b0
 39
 0.100 
 100
AcDbEntity
8
engraving152
 6
CONTINUOUS
100
AcDbPolyline
 90
5
 70
8
 10
144.100000000000
 20
2.100000000000
 10
154.100000000000
 20
2.100000000000
 10
154.100000000000
 20
12.100000000000
 10
144.100000000000
 20
12.100000000000
 10
144.100000000000
 20
2.100000000000
0
LWPOLYLINE
  5
000000b1
 39
 0.100 
 100
AcDbEntity
8
engraving152
 6
CONTINUOUS
100
AcDbPolyline
 90
5
 70
8
 10
283.100000000000
 20
2.100000000000
 10
293.100000000000
 20
2.100000000000
 10
293.100000000000
 20
12.100000000000
 10
283.100000000000
 20
12.100000000000
 10
283.100000000000
 20
2.100000000000
0
LWPOLYLINE
  5
000000b2
 39
 0.100 
 100
AcDbEntity
8
engraving152
 6
CONTINUOUS
100
AcDbPolyline
 90
5
 70
8
 10
10.100000000000
 20
44.049000000000
 10
10.100000000000
 20
42.049000000000
 10
427.100000000000
 20
42.049000000000
 10
427.100000000000
 20
44.049000000000
 10
10.100000000000
 20
44.049000000000
0
LWPOLYLINE
  5
000000b3
 39
 0.100 
 100
AcDbEntity
8
engraving152
 6
CONTINUOUS
100
AcDbPolyline
 90
4
 70
8
 10
217.225666666667
 20
43.644000000000
 10
218.019000000000
 20
43.644000000000
 10
217.622333333333
 20
43.644000000000
 10
217.622333333333
 20
42.454000000000
0
LINE
  5
000000b4
 39
 0.100 
 100
AcDbEntity
8
engraving152
 6
CONTINUOUS
 100
AcDbLine
 10
218.336666666667
 20
42.916777777778
 30
 0.0
 11
218.336666666667
 21
42.784555555556
 31
0.0
0
ARC
  5
000000b5
 39
 0.100 
 100
AcDbEntity
8
engraving152
 6
CONTINUOUS
100
AcDbCircle
 10
218.667222222222
 20
42.916777777778
 30
 0
 40
0.330555555556
100
AcDbArc
 50
0.000000000000
 51
180.000000000000
0
LINE
  5
000000b6
 39
 0.100 
 100
AcDbEntity
8
engraving152
 6
CONTINUOUS
 100
AcDbLine
 10
218.997777777778
 20
42.784555555556
 30
 0.0
 11
218.997777777778
 21
42.916777777778
 31
0.0
0
ARC
  5
000000b7
 39
 0.100 
 100
AcDbEntity
8
engraving152
 6
CONTINUOUS
100
AcDbCircle
 10
218.667222222222
 20
42.784555555556
 30
 0
 40
0.330555555556
100
AcDbArc
 50
-180.000000000000
 51
0.000000000000
0
LINE
  5
000000b8
 39
 0.100 
 100
AcDbEntity
8
engraving152
 6
CONTINUOUS
 100
AcDbLine
 10
219.314666666667
 20
42.916777777778
 30
 0.0
 11
219.314666666667
 21
42.057333333333
 31
0.0
0
ARC
  5
000000b9
 39
 0.100 
 100
AcDbEntity
8
engraving152
 6
CONTINUOUS
100
AcDbCircle
 10
219.645222222222
 20
42.916777777778
 30
 0
 40
0.330555555556
100
AcDbArc
 50
0.000000000000
 51
180.000000000000
0
LINE
  5
000000ba
 39
 0.100 
 100
AcDbEntity
8
engraving152
 6
CONTINUOUS
 100
AcDbLine
 10
219.975777777778
 20
42.784555555556
 30
 0.0
 11
219.975777777778
 21
42.916777777778
 31
0.0
0
ARC
  5
000000bb
 39
 0.100 
 100
AcDbEntity
8
engraving152
 6
CONTINUOUS
100
AcDbCircle
 10
219.645222222222
 20
42.784555555556
 30
 0
 40
0.330555555556
100
AcDbArc
 50
-179.999997763191
 51
0.000000000000
0
LINE
  5
000000bc
 39
 0.100 
 100
AcDbEntity
8
engraving152
 6
CONTINUOUS
 100
AcDbLine
 10
219.314666666667
 20
43.247333333333
 30
 0.0
 11
219.314666666667
 21
42.784555555556
 31
0.0
0
LWPOLYLINE
  5
000000bd
 39
 0.100 
 100
AcDbEntity
8
engraving152
 6
CONTINUOUS
100
AcDbPolyline
 90
5
 70
8
 10
427.100000000000
 20
0.100000000000
 10
427.100000000000
 20
2.100000000000
 10
10.100000000000
 20
2.100000000000
 10
10.100000000000
 20
0.100000000000
 10
427.100000000000
 20
0.100000000000
0
ARC
  5
000000be
 39
 0.100 
 100
AcDbEntity
8
engraving152
 6
CONTINUOUS
100
AcDbCircle
 10
216.340000000000
 20
1.397500000000
 30
 0
 40
0.297500000000
100
AcDbArc
 50
270.000000000000
 51
450.000000000000
0
LWPOLYLINE
  5
000000bf
 39
 0.100 
 100
AcDbEntity
8
engraving152
 6
CONTINUOUS
100
AcDbPolyline
 90
4
 70
8
 10
216.340000000000
 20
1.695000000000
 10
215.903666666667
 20
1.695000000000
 10
215.903666666667
 20
0.505000000000
 10
216.406111111111
 20
0.505000000000
0
ARC
  5
000000c0
 39
 0.100 
 100
AcDbEntity
8
engraving152
 6
CONTINUOUS
100
AcDbCircle
 10
216.406111111111
 20
0.802500000000
 30
 0
 40
0.297500000000
100
AcDbArc
 50
270.000000000000
 51
450.000000000000
0
LINE
  5
000000c1
 39
 0.100 
 100
AcDbEntity
8
engraving152
 6
CONTINUOUS
 100
AcDbLine
 10
215.903666666667
 20
1.100000000000
 30
 0.0
 11
216.406111111111
 21
1.100000000000
 31
0.0
0
LINE
  5
000000c2
 39
 0.100 
 100
AcDbEntity
8
engraving152
 6
CONTINUOUS
 100
AcDbLine
 10
217.014666666667
 20
0.967777777778
 30
 0.0
 11
217.014666666667
 21
0.835555555556
 31
0.0
0
ARC
  5
000000c3
 39
 0.100 
 100
AcDbEntity
8
engraving152
 6
CONTINUOUS
100
AcDbCircle
 10
217.345222222222
 20
0.967777777778
 30
 0
 40
0.330555555556
100
AcDbArc
 50
0.000000000000
 51
180.000000000000
0
LINE
  5
000000c4
 39
 0.100 
 100
AcDbEntity
8
engraving152
 6
CONTINUOUS
 100
AcDbLine
 10
217.675777777778
 20
0.835555555556
 30
 0.0
 11
217.675777777778
 21
0.967777777778
 31
0.0
0
ARC
  5
000000c5
 39
 0.100 
 100
AcDbEntity
8
engraving152
 6
CONTINUOUS
100
AcDbCircle
 10
217.345222222222
 20
0.835555555556
 30
 0
 40
0.330555555556
100
AcDbArc
 50
-180.000000000000
 51
0.000000000000
0
LWPOLYLINE
  5
000000c6
 39
 0.100 
 100
AcDbEntity
8
engraving152
 6
CONTINUOUS
100
AcDbPolyline
 90
6
 70
8
 10
218.112666666667
 20
1.695000000000
 10
218.112666666667
 20
1.298333333333
 10
218.311000000000
 20
1.298333333333
 10
217.980444444444
 20
1.298333333333
 10
218.112666666667
 20
1.298333333333
 10
218.112666666667
 20
0.663666666667
0
ARC
  5
000000c7
 39
 0.100 
 100
AcDbEntity
8
engraving152
 6
CONTINUOUS
100
AcDbCircle
 10
218.273924816463
 20
0.663622532238
 30
 0
 40
0.161258155836
100
AcDbArc
 50
179.984318830104
 51
259.626823354390
0
LWPOLYLINE
  5
000000c8
 39
 0.100 
 100
AcDbEntity
8
engraving152
 6
CONTINUOUS
100
AcDbPolyline
 90
6
 70
8
 10
218.747666666667
 20
1.696000000000
 10
218.747666666667
 20
1.299333333333
 10
218.946000000000
 20
1.299333333333
 10
218.615444444444
 20
1.299333333333
 10
218.747666666667
 20
1.299333333333
 10
218.747666666667
 20
0.664666666667
0
ARC
  5
000000c9
 39
 0.100 
 100
AcDbEntity
8
engraving152
 6
CONTINUOUS
100
AcDbCircle
 10
218.908924816463
 20
0.664622532238
 30
 0
 40
0.161258155836
100
AcDbArc
 50
179.984318830104
 51
259.626823354390
0
LINE
  5
000000ca
 39
 0.100 
 100
AcDbEntity
8
engraving152
 6
CONTINUOUS
 100
AcDbLine
 10
219.262666666667
 20
0.969777777778
 30
 0.0
 11
219.262666666667
 21
0.837555555556
 31
0.0
0
ARC
  5
000000cb
 39
 0.100 
 100
AcDbEntity
8
engraving152
 6
CONTINUOUS
100
AcDbCircle
 10
219.593222222222
 20
0.969777777778
 30
 0
 40
0.330555555556
100
AcDbArc
 50
0.000000000000
 51
180.000000000000
0
LINE
  5
000000cc
 39
 0.100 
 100
AcDbEntity
8
engraving152
 6
CONTINUOUS
 100
AcDbLine
 10
219.923777777778
 20
0.837555555556
 30
 0.0
 11
219.923777777778
 21
0.969777777778
 31
0.0
0
ARC
  5
000000cd
 39
 0.100 
 100
AcDbEntity
8
engraving152
 6
CONTINUOUS
100
AcDbCircle
 10
219.593222222222
 20
0.837555555556
 30
 0
 40
0.330555555556
100
AcDbArc
 50
-179.999997763191
 51
0.000000000000
0
LWPOLYLINE
  5
000000ce
 39
 0.100 
 100
AcDbEntity
8
engraving152
 6
CONTINUOUS
100
AcDbPolyline
 90
3
 70
8
 10
220.240666666667
 20
0.507000000000
 10
220.240666666667
 20
1.300333333333
 10
220.240666666667
 20
1.035888888889
0
ARC
  5
000000cf
 39
 0.100 
 100
AcDbEntity
8
engraving152
 6
CONTINUOUS
100
AcDbCircle
 10
220.505111111111
 20
1.035888888889
 30
 0
 40
0.264444444444
100
AcDbArc
 50
0.000000000000
 51
180.000000000000
0
LWPOLYLINE
  5
000000d0
 39
 0.100 
 100
AcDbEntity
8
engraving152
 6
CONTINUOUS
100
AcDbPolyline
 90
3
 70
8
 10
220.769555555556
 20
1.035888888889
 10
220.769555555556
 20
0.507000000000
 10
220.769555555556
 20
1.035888888889
0
ARC
  5
000000d1
 39
 0.100 
 100
AcDbEntity
8
engraving152
 6
CONTINUOUS
100
AcDbCircle
 10
221.034000000000
 20
1.035888888889
 30
 0
 40
0.264444444444
100
AcDbArc
 50
0.000004842834
 51
180.000000000000
0
LINE
  5
000000d2
 39
 0.100 
 100
AcDbEntity
8
engraving152
 6
CONTINUOUS
 100
AcDbLine
 10
221.298444444444
 20
0.507000000000
 30
 0.0
 11
221.298444444444
 21
1.035888888889
 31
0.0
0
LWPOLYLINE
  5
000000d3
 39
 0.100 
 100
AcDbEntity
8
engraving152
 6
CONTINUOUS
100
AcDbPolyline
 90
9
 70
8
 10
437.100000000000
 20
28.048000000000
 10
436.000000000000
 20
28.048000000000
 10
436.000000000000
 20
34.048000000000
 10
435.100000000000
 20
34.048000000000
 10
435.100000000000
 20
10.100000000000
 10
436.000000000000
 20
10.100000000000
 10
436.000000000000
 20
16.100000000000
 10
437.100000000000
 20
16.100000000000
 10
437.100000000000
 20
28.048000000000
0
LWPOLYLINE
  5
000000d4
 39
 0.100 
 100
AcDbEntity
8
engraving152
 6
CONTINUOUS
100
AcDbPolyline
 90
3
 70
8
 10
436.695000000000
 20
20.263666666667
 10
435.505000000000
 20
20.263666666667
 10
435.505000000000
 20
20.700000000000
0
ARC
  5
000000d5
 39
 0.100 
 100
AcDbEntity
8
engraving152
 6
CONTINUOUS
100
AcDbCircle
 10
435.802500000000
 20
20.700000000000
 30
 0
 40
0.297500000000
100
AcDbArc
 50
0.000000000000
 51
180.000000000000
0
LWPOLYLINE
  5
000000d6
 39
 0.100 
 100
AcDbEntity
8
engraving152
 6
CONTINUOUS
100
AcDbPolyline
 90
4
 70
8
 10
436.100000000000
 20
20.700000000000
 10
436.100000000000
 20
20.263666666667
 10
436.100000000000
 20
20.726444444444
 10
436.695000000000
 20
20.990888888889
0
LINE
  5
000000d7
 39
 0.100 
 100
AcDbEntity
8
engraving152
 6
CONTINUOUS
 100
AcDbLine
 10
435.571111111111
 20
21.295666666667
 30
 0.0
 11
435.505000000000
 21
21.295666666667
 31
0.0
0
LINE
  5
000000d8
 39
 0.100 
 100
AcDbEntity
8
engraving152
 6
CONTINUOUS
 100
AcDbLine
 10
436.695000000000
 20
21.295666666667
 30
 0.0
 11
435.901666666667
 21
21.295666666667
 31
0.0
0
LINE
  5
000000d9
 39
 0.100 
 100
AcDbEntity
8
engraving152
 6
CONTINUOUS
 100
AcDbLine
 10
436.363444444444
 20
22.274777777778
 30
 0.0
 11
435.900666666667
 21
22.274777777778
 31
0.0
0
ARC
  5
000000da
 39
 0.100 
 100
AcDbEntity
8
engraving152
 6
CONTINUOUS
100
AcDbCircle
 10
436.376666666667
 20
21.944222222222
 30
 0
 40
0.330819894307
100
AcDbArc
 50
-87.709389957361
 51
92.290610042639
0
LINE
  5
000000db
 39
 0.100 
 100
AcDbEntity
8
engraving152
 6
CONTINUOUS
 100
AcDbLine
 10
436.231222222222
 20
21.613666666667
 30
 0.0
 11
436.389888888889
 21
21.613666666667
 31
0.0
0
ARC
  5
000000dc
 39
 0.100 
 100
AcDbEntity
8
engraving152
 6
CONTINUOUS
100
AcDbCircle
 10
436.231222222222
 20
21.944222222222
 30
 0
 40
0.330555555556
100
AcDbArc
 50
90.000000000000
 51
270.000000000000
0
LINE
  5
000000dd
 39
 0.100 
 100
AcDbEntity
8
engraving152
 6
CONTINUOUS
 100
AcDbLine
 10
436.760111111111
 20
22.274777777778
 30
 0.0
 11
436.231222222222
 21
22.274777777778
 31
0.0
0
ARC
  5
000000de
 39
 0.100 
 100
AcDbEntity
8
engraving152
 6
CONTINUOUS
100
AcDbCircle
 10
436.761871216098
 20
21.941422834646
 30
 0
 40
0.333359589753
100
AcDbArc
 50
-44.873692632036
 51
90.302517338354
0
LWPOLYLINE
  5
000000df
 39
 0.100 
 100
AcDbEntity
8
engraving152
 6
CONTINUOUS
100
AcDbPolyline
 90
3
 70
8
 10
435.504000000000
 20
22.591666666667
 10
436.694000000000
 20
22.591666666667
 10
436.231222222222
 20
22.591666666667
0
ARC
  5
000000e0
 39
 0.100 
 100
AcDbEntity
8
engraving152
 6
CONTINUOUS
100
AcDbCircle
 10
436.231222222222
 20
22.922222222222
 30
 0
 40
0.330555555556
100
AcDbArc
 50
90.000000000000
 51
270.000000000000
0
LINE
  5
000000e1
 39
 0.100 
 100
AcDbEntity
8
engraving152
 6
CONTINUOUS
 100
AcDbLine
 10
436.694000000000
 20
23.252777777778
 30
 0.0
 11
436.231222222222
 21
23.252777777778
 31
0.0
0
LWPOLYLINE
  5
000000e2
 39
 0.100 
 100
AcDbEntity
8
engraving152
 6
CONTINUOUS
100
AcDbPolyline
 90
6
 70
8
 10
435.504000000000
 20
23.688666666667
 10
435.900666666667
 20
23.688666666667
 10
435.900666666667
 20
23.887000000000
 10
435.900666666667
 20
23.556444444444
 10
435.900666666667
 20
23.688666666667
 10
436.535333333333
 20
23.688666666667
0
ARC
  5
000000e3
 39
 0.100 
 100
AcDbEntity
8
engraving152
 6
CONTINUOUS
100
AcDbCircle
 10
436.535377467762
 20
23.849924816463
 30
 0
 40
0.161258155836
100
AcDbArc
 50
269.984318830108
 51
349.626823354393
0
LWPOLYLINE
  5
000000e4
 39
 0.100 
 100
AcDbEntity
8
engraving152
 6
CONTINUOUS
100
AcDbPolyline
 90
9
 70
8
 10
0.100000000000
 20
16.100000000000
 10
1.200000000000
 20
16.100000000000
 10
1.200000000000
 20
10.100000000000
 10
2.100000000000
 20
10.100000000000
 10
2.100000000000
 20
34.048000000000
 10
1.200000000000
 20
34.048000000000
 10
1.200000000000
 20
28.048000000000
 10
0.100000000000
 20
28.048000000000
 10
0.100000000000
 20
16.100000000000
0
LWPOLYLINE
  5
000000e5
 39
 0.100 
 100
AcDbEntity
8
engraving152
 6
CONTINUOUS
100
AcDbPolyline
 90
3
 70
8
 10
0.505000000000
 20
20.620666666667
 10
1.695000000000
 20
20.620666666667
 10
1.695000000000
 20
21.281777777778
0
LWPOLYLINE
  5
000000e6
 39
 0.100 
 100
AcDbEntity
8
engraving152
 6
CONTINUOUS
100
AcDbPolyline
 90
3
 70
8
 10
1.298333333333
 20
21.599666666667
 10
1.298333333333
 20
22.260777777778
 10
1.232222222222
 20
22.260777777778
0
ARC
  5
000000e7
 39
 0.100 
 100
AcDbEntity
8
engraving152
 6
CONTINUOUS
100
AcDbCircle
 10
1.232222222222
 20
21.930222222222
 30
 0
 40
0.330555555556
100
AcDbArc
 50
90.000000000000
 51
270.000000000000
0
LINE
  5
000000e8
 39
 0.100 
 100
AcDbEntity
8
engraving152
 6
CONTINUOUS
 100
AcDbLine
 10
1.364444444444
 20
21.599666666667
 30
 0.0
 11
1.232222222222
 21
21.599666666667
 31
0.0
0
ARC
  5
000000e9
 39
 0.100 
 100
AcDbEntity
8
engraving152
 6
CONTINUOUS
100
AcDbCircle
 10
1.364721313682
 20
21.946304091796
 30
 0
 40
0.346637535701
100
AcDbArc
 50
269.954236229956
 51
412.445993452739
0
LINE
  5
000000ea
 39
 0.100 
 100
AcDbEntity
8
engraving152
 6
CONTINUOUS
 100
AcDbLine
 10
0.901666666667
 20
22.895000000000
 30
 0.0
 11
0.901666666667
 21
22.564444444444
 31
0.0
0
ARC
  5
000000eb
 39
 0.100 
 100
AcDbEntity
8
engraving152
 6
CONTINUOUS
100
AcDbCircle
 10
0.702287302531
 20
22.893953969197
 30
 0
 40
0.197290075575
100
AcDbArc
 50
179.696216695818
 51
270.303783304180
0
LINE
  5
000000ec
 39
 0.100 
 100
AcDbEntity
8
engraving152
 6
CONTINUOUS
 100
AcDbLine
 10
1.695000000000
 20
22.696666666667
 30
 0.0
 11
0.703333333333
 21
22.696666666667
 31
0.0
0
LWPOLYLINE
  5
000000ed
 39
 0.100 
 100
AcDbEntity
8
engraving152
 6
CONTINUOUS
100
AcDbPolyline
 90
6
 70
8
 10
0.505000000000
 20
23.330666666667
 10
0.901666666667
 20
23.330666666667
 10
0.901666666667
 20
23.529000000000
 10
0.901666666667
 20
23.198444444444
 10
0.901666666667
 20
23.330666666667
 10
1.536333333333
 20
23.330666666667
0
ARC
  5
000000ee
 39
 0.100 
 100
AcDbEntity
8
engraving152
 6
CONTINUOUS
100
AcDbCircle
 10
1.536377467762
 20
23.491924816463
 30
 0
 40
0.161258155836
100
AcDbArc
 50
269.984318830122
 51
349.626823354408
0
LINE
  5
000000ef
 39
 0.100 
 100
AcDbEntity
8
engraving152
 6
CONTINUOUS
 100
AcDbLine
 10
0.100000000000
 20
29.049000000000
 30
 0.0
 11
0.100000000000
 21
42.049000000000
 31
0.0
0
ARC
  5
000000f0
 39
 0.100 
 100
AcDbEntity
8
engraving152
 6
CONTINUOUS
100
AcDbCircle
 10
1.100000000000
 20
29.049000000000
 30
 0
 40
1.000000000000
100
AcDbArc
 50
180.000000000000
 51
270.000000000000
0
LWPOLYLINE
  5
000000f1
 39
 0.100 
 100
AcDbEntity
8
engraving152
 6
CONTINUOUS
100
AcDbPolyline
 90
5
 70
8
 10
1.100000000000
 20
28.049000000000
 10
1.099000000000
 20
28.049000000000
 10
1.099000000000
 20
34.049000000000
 10
2.699000000000
 20
34.049000000000
 10
2.700000000000
 20
32.049000000000
0
ARC
  5
000000f2
 39
 0.100 
 100
AcDbEntity
8
engraving152
 6
CONTINUOUS
100
AcDbCircle
 10
3.700000000000
 20
32.049000000000
 30
 0
 40
1.000000000000
100
AcDbArc
 50
180.000000000000
 51
270.000000000000
0
LWPOLYLINE
  5
000000f3
 39
 0.100 
 100
AcDbEntity
8
engraving152
 6
CONTINUOUS
100
AcDbPolyline
 90
36
 70
8
 10
3.700000000000
 20
31.049000000000
 10
4.099000000000
 20
31.049000000000
 10
5.099000000000
 20
32.549000000000
 10
4.099000000000
 20
32.549000000000
 10
4.099000000000
 20
34.549000000000
 10
6.599000000000
 20
34.549000000000
 10
6.599000000000
 20
35.549000000000
 10
6.599000000000
 20
35.549000000000
 10
5.300000000000
 20
36.849000000000
 10
5.000000000000
 20
36.849000000000
 10
4.000000000000
 20
35.849000000000
 10
2.299000000000
 20
37.549000000000
 10
3.299000000000
 20
38.549000000000
 10
3.299000000000
 20
39.149000000000
 10
2.299000000000
 20
40.149000000000
 10
4.000000000000
 20
41.849000000000
 10
5.000000000000
 20
40.849000000000
 10
5.600000000000
 20
40.849000000000
 10
6.600000000000
 20
41.849000000000
 10
8.300000000000
 20
40.149000000000
 10
7.300000000000
 20
39.149000000000
 10
7.300000000000
 20
38.849000000000
 10
8.600000000000
 20
37.549000000000
 10
18.100000000000
 20
37.549000000000
 10
18.100000000000
 20
42.049000000000
 10
15.700000000000
 20
42.049000000000
 10
15.700000000000
 20
41.049000000000
 10
17.200000000000
 20
41.049000000000
 10
17.200000000000
 20
38.849000000000
 10
11.000000000000
 20
38.849000000000
 10
11.000000000000
 20
41.049000000000
 10
12.500000000000
 20
41.049000000000
 10
12.500000000000
 20
42.049000000000
 10
10.100000000000
 20
42.049000000000
 10
10.100000000000
 20
44.049000000000
 10
2.100000000000
 20
44.049000000000
0
ARC
  5
000000f4
 39
 0.100 
 100
AcDbEntity
8
engraving152
 6
CONTINUOUS
100
AcDbCircle
 10
2.100000000000
 20
42.049000000000
 30
 0
 40
2.000000000000
100
AcDbArc
 50
90.000000000000
 51
180.000000000000
0
LINE
  5
000000f5
 39
 0.100 
 100
AcDbEntity
8
engraving152
 6
CONTINUOUS
 100
AcDbLine
 10
437.100000000000
 20
29.049000000000
 30
 0.0
 11
437.100000000000
 21
42.049000000000
 31
0.0
0
ARC
  5
000000f6
 39
 0.100 
 100
AcDbEntity
8
engraving152
 6
CONTINUOUS
100
AcDbCircle
 10
436.100000000000
 20
29.049000000000
 30
 0
 40
1.000000000000
100
AcDbArc
 50
-90.000000000000
 51
0.000000000000
0
LWPOLYLINE
  5
000000f7
 39
 0.100 
 100
AcDbEntity
8
engraving152
 6
CONTINUOUS
100
AcDbPolyline
 90
5
 70
8
 10
436.100000000000
 20
28.049000000000
 10
436.101000000000
 20
28.049000000000
 10
436.101000000000
 20
34.049000000000
 10
434.501000000000
 20
34.049000000000
 10
434.500000000000
 20
32.049000000000
0
ARC
  5
000000f8
 39
 0.100 
 100
AcDbEntity
8
engraving152
 6
CONTINUOUS
100
AcDbCircle
 10
433.500000000000
 20
32.049000000000
 30
 0
 40
1.000000000000
100
AcDbArc
 50
-90.000000000000
 51
0.000000000000
0
LWPOLYLINE
  5
000000f9
 39
 0.100 
 100
AcDbEntity
8
engraving152
 6
CONTINUOUS
100
AcDbPolyline
 90
36
 70
8
 10
433.500000000000
 20
31.049000000000
 10
433.101000000000
 20
31.049000000000
 10
432.101000000000
 20
32.549000000000
 10
433.101000000000
 20
32.549000000000
 10
433.101000000000
 20
34.549000000000
 10
430.601000000000
 20
34.549000000000
 10
430.601000000000
 20
35.549000000000
 10
430.601000000000
 20
35.549000000000
 10
431.900000000000
 20
36.849000000000
 10
432.200000000000
 20
36.849000000000
 10
433.200000000000
 20
35.849000000000
 10
434.901000000000
 20
37.549000000000
 10
433.901000000000
 20
38.549000000000
 10
433.901000000000
 20
39.149000000000
 10
434.901000000000
 20
40.149000000000
 10
433.200000000000
 20
41.849000000000
 10
432.200000000000
 20
40.849000000000
 10
431.600000000000
 20
40.849000000000
 10
430.600000000000
 20
41.849000000000
 10
428.900000000000
 20
40.149000000000
 10
429.900000000000
 20
39.149000000000
 10
429.900000000000
 20
38.849000000000
 10
428.600000000000
 20
37.549000000000
 10
419.100000000000
 20
37.549000000000
 10
419.100000000000
 20
42.049000000000
 10
421.500000000000
 20
42.049000000000
 10
421.500000000000
 20
41.049000000000
 10
420.000000000000
 20
41.049000000000
 10
420.000000000000
 20
38.849000000000
 10
426.200000000000
 20
38.849000000000
 10
426.200000000000
 20
41.049000000000
 10
424.700000000000
 20
41.049000000000
 10
424.700000000000
 20
42.049000000000
 10
427.100000000000
 20
42.049000000000
 10
427.100000000000
 20
44.049000000000
 10
435.100000000000
 20
44.049000000000
0
ARC
  5
000000fa
 39
 0.100 
 100
AcDbEntity
8
engraving152
 6
CONTINUOUS
100
AcDbCircle
 10
435.100000000000
 20
42.049000000000
 30
 0
 40
2.000000000000
100
AcDbArc
 50
0.000000000000
 51
90.000000000000
0
LINE
  5
000000fb
 39
 0.100 
 100
AcDbEntity
8
engraving152
 6
CONTINUOUS
 100
AcDbLine
 10
437.100000000000
 20
15.100000000000
 30
 0.0
 11
437.100000000000
 21
2.100000000000
 31
0.0
0
ARC
  5
000000fc
 39
 0.100 
 100
AcDbEntity
8
engraving152
 6
CONTINUOUS
100
AcDbCircle
 10
436.100000000000
 20
15.100000000000
 30
 0
 40
1.000000000000
100
AcDbArc
 50
360.000000000000
 51
450.000000000000
0
LWPOLYLINE
  5
000000fd
 39
 0.100 
 100
AcDbEntity
8
engraving152
 6
CONTINUOUS
100
AcDbPolyline
 90
5
 70
8
 10
436.100000000000
 20
16.100000000000
 10
436.101000000000
 20
16.100000000000
 10
436.101000000000
 20
10.100000000000
 10
434.501000000000
 20
10.100000000000
 10
434.500000000000
 20
12.100000000000
0
ARC
  5
000000fe
 39
 0.100 
 100
AcDbEntity
8
engraving152
 6
CONTINUOUS
100
AcDbCircle
 10
433.500000000000
 20
12.100000000000
 30
 0
 40
1.000000000000
100
AcDbArc
 50
0.000000000000
 51
90.000000000000
0
LWPOLYLINE
  5
000000ff
 39
 0.100 
 100
AcDbEntity
8
engraving152
 6
CONTINUOUS
100
AcDbPolyline
 90
36
 70
8
 10
433.500000000000
 20
13.100000000000
 10
433.101000000000
 20
13.100000000000
 10
432.101000000000
 20
11.600000000000
 10
433.101000000000
 20
11.600000000000
 10
433.101000000000
 20
9.600000000000
 10
430.601000000000
 20
9.600000000000
 10
430.601000000000
 20
8.600000000000
 10
430.601000000000
 20
8.600000000000
 10
431.900000000000
 20
7.300000000000
 10
432.200000000000
 20
7.300000000000
 10
433.200000000000
 20
8.300000000000
 10
434.901000000000
 20
6.600000000000
 10
433.901000000000
 20
5.600000000000
 10
433.901000000000
 20
5.000000000000
 10
434.901000000000
 20
4.000000000000
 10
433.200000000000
 20
2.300000000000
 10
432.200000000000
 20
3.300000000000
 10
431.600000000000
 20
3.300000000000
 10
430.600000000000
 20
2.300000000000
 10
428.900000000000
 20
4.000000000000
 10
429.900000000000
 20
5.000000000000
 10
429.900000000000
 20
5.300000000000
 10
428.600000000000
 20
6.600000000000
 10
419.100000000000
 20
6.600000000000
 10
419.100000000000
 20
2.100000000000
 10
421.500000000000
 20
2.100000000000
 10
421.500000000000
 20
3.100000000000
 10
420.000000000000
 20
3.100000000000
 10
420.000000000000
 20
5.300000000000
 10
426.200000000000
 20
5.300000000000
 10
426.200000000000
 20
3.100000000000
 10
424.700000000000
 20
3.100000000000
 10
424.700000000000
 20
2.100000000000
 10
427.100000000000
 20
2.100000000000
 10
427.100000000000
 20
0.100000000000
 10
435.100000000000
 20
0.100000000000
0
ARC
  5
00000100
 39
 0.100 
 100
AcDbEntity
8
engraving152
 6
CONTINUOUS
100
AcDbCircle
 10
435.100000000000
 20
2.100000000000
 30
 0
 40
2.000000000000
100
AcDbArc
 50
270.000000000000
 51
360.000000000000
0
LINE
  5
00000101
 39
 0.100 
 100
AcDbEntity
8
engraving152
 6
CONTINUOUS
 100
AcDbLine
 10
0.100000000000
 20
15.100000000000
 30
 0.0
 11
0.100000000000
 21
2.100000000000
 31
0.0
0
ARC
  5
00000102
 39
 0.100 
 100
AcDbEntity
8
engraving152
 6
CONTINUOUS
100
AcDbCircle
 10
1.100000000000
 20
15.100000000000
 30
 0
 40
1.000000000000
100
AcDbArc
 50
90.000000000000
 51
180.000000000000
0
LWPOLYLINE
  5
00000103
 39
 0.100 
 100
AcDbEntity
8
engraving152
 6
CONTINUOUS
100
AcDbPolyline
 90
5
 70
8
 10
1.100000000000
 20
16.100000000000
 10
1.099000000000
 20
16.100000000000
 10
1.099000000000
 20
10.100000000000
 10
2.699000000000
 20
10.100000000000
 10
2.700000000000
 20
12.100000000000
0
ARC
  5
00000104
 39
 0.100 
 100
AcDbEntity
8
engraving152
 6
CONTINUOUS
100
AcDbCircle
 10
3.700000000000
 20
12.100000000000
 30
 0
 40
1.000000000000
100
AcDbArc
 50
90.000000000000
 51
180.000000000000
0
LWPOLYLINE
  5
00000105
 39
 0.100 
 100
AcDbEntity
8
engraving152
 6
CONTINUOUS
100
AcDbPolyline
 90
36
 70
8
 10
3.700000000000
 20
13.100000000000
 10
4.099000000000
 20
13.100000000000
 10
5.099000000000
 20
11.600000000000
 10
4.099000000000
 20
11.600000000000
 10
4.099000000000
 20
9.600000000000
 10
6.599000000000
 20
9.600000000000
 10
6.599000000000
 20
8.600000000000
 10
6.599000000000
 20
8.600000000000
 10
5.300000000000
 20
7.300000000000
 10
5.000000000000
 20
7.300000000000
 10
4.000000000000
 20
8.300000000000
 10
2.299000000000
 20
6.600000000000
 10
3.299000000000
 20
5.600000000000
 10
3.299000000000
 20
5.000000000000
 10
2.299000000000
 20
4.000000000000
 10
4.000000000000
 20
2.300000000000
 10
5.000000000000
 20
3.300000000000
 10
5.600000000000
 20
3.300000000000
 10
6.600000000000
 20
2.300000000000
 10
8.300000000000
 20
4.000000000000
 10
7.300000000000
 20
5.000000000000
 10
7.300000000000
 20
5.300000000000
 10
8.600000000000
 20
6.600000000000
 10
18.100000000000
 20
6.600000000000
 10
18.100000000000
 20
2.100000000000
 10
15.700000000000
 20
2.100000000000
 10
15.700000000000
 20
3.100000000000
 10
17.200000000000
 20
3.100000000000
 10
17.200000000000
 20
5.300000000000
 10
11.000000000000
 20
5.300000000000
 10
11.000000000000
 20
3.100000000000
 10
12.500000000000
 20
3.100000000000
 10
12.500000000000
 20
2.100000000000
 10
10.100000000000
 20
2.100000000000
 10
10.100000000000
 20
0.100000000000
 10
2.100000000000
 20
0.100000000000
0
ARC
  5
00000106
 39
 0.100 
 100
AcDbEntity
8
engraving152
 6
CONTINUOUS
100
AcDbCircle
 10
2.100000000000
 20
2.100000000000
 30
 0
 40
2.000000000000
100
AcDbArc
 50
180.000000000000
 51
270.000000000000
0
LWPOLYLINE
  5
00000107
 39
 0.100 
 100
AcDbEntity
8
engraving152
 6
CONTINUOUS
100
AcDbPolyline
 90
5
 70
8
 10
92.550000000000
 20
4.280000000000
 10
111.650000000000
 20
4.280000000000
 10
111.650000000000
 20
39.880000000000
 10
92.550000000000
 20
39.880000000000
 10
92.550000000000
 20
4.280000000000
0
LWPOLYLINE
  5
00000108
 39
 0.100 
 100
AcDbEntity
8
engraving007
 6
CONTINUOUS
100
AcDbPolyline
 90
3
 70
8
 10
322.539244444444
 20
34.719000000000
 10
320.369744444444
 20
34.719000000000
 10
320.369744444444
 20
32.694133333333
0
ARC
  5
00000109
 39
 0.100 
 100
AcDbEntity
8
engraving007
 6
CONTINUOUS
100
AcDbCircle
 10
321.378788922609
 20
31.386834011374
 30
 0
 40
1.651424317403
100
AcDbArc
 50
84.857503260514
 51
127.662906156111
0
ARC
  5
0000010a
 39
 0.100 
 100
AcDbEntity
8
engraving007
 6
CONTINUOUS
100
AcDbCircle
 10
321.395178406879
 20
31.642692181212
 30
 0
 40
1.395142631653
100
AcDbArc
 50
-44.244742533868
 51
84.586049357568
0
ARC
  5
0000010b
 39
 0.100 
 100
AcDbEntity
8
engraving007
 6
CONTINUOUS
100
AcDbCircle
 10
321.465132563019
 20
31.581165775714
 30
 0
 40
1.302109963268
100
AcDbArc
 50
208.566076208518
 51
315.546980170302
0
LINE
  5
0000010c
 39
 0.100 
 100
AcDbEntity
8
engraving007
 6
CONTINUOUS
 100
AcDbLine
 10
323.889533333333
 20
31.536066666667
 30
 0.0
 11
323.889533333333
 21
33.560933333333
 31
0.0
0
ARC
  5
0000010d
 39
 0.100 
 100
AcDbEntity
8
engraving007
 6
CONTINUOUS
100
AcDbCircle
 10
325.143022222222
 20
31.536066666667
 30
 0
 40
1.253488888889
100
AcDbArc
 50
180.000000000000
 51
359.999997640539
0
LINE
  5
0000010e
 39
 0.100 
 100
AcDbEntity
8
engraving007
 6
CONTINUOUS
 100
AcDbLine
 10
326.396511111111
 20
33.560933333333
 30
 0.0
 11
326.396511111111
 21
31.536066666667
 31
0.0
0
ARC
  5
0000010f
 39
 0.100 
 100
AcDbEntity
8
engraving007
 6
CONTINUOUS
100
AcDbCircle
 10
325.143022222222
 20
33.560933333333
 30
 0
 40
1.253488888889
100
AcDbArc
 50
0.000000000000
 51
179.999997640539
0
LWPOLYLINE
  5
00000110
 39
 0.100 
 100
AcDbEntity
8
engraving007
 6
CONTINUOUS
100
AcDbPolyline
 90
6
 70
8
 10
327.554533333333
 20
34.718000000000
 10
327.554533333333
 20
30.379000000000
 10
327.554533333333
 20
31.343222222222
 10
329.965088888889
 20
33.271666666667
 10
328.518755555556
 20
32.114600000000
 10
329.965088888889
 20
30.379000000000
0
LWPOLYLINE
  5
00000111
 39
 0.100 
 100
AcDbEntity
8
engraving007
 6
CONTINUOUS
100
AcDbPolyline
 90
3
 70
8
 10
334.208533333333
 20
34.718000000000
 10
334.208533333333
 20
30.379000000000
 10
336.619088888889
 20
30.379000000000
0
LWPOLYLINE
  5
00000112
 39
 0.100 
 100
AcDbEntity
8
engraving007
 6
CONTINUOUS
100
AcDbPolyline
 90
4
 70
8
 10
337.776533333333
 20
30.379000000000
 10
337.776533333333
 20
34.718000000000
 10
340.669200000000
 20
30.379000000000
 10
340.669200000000
 20
34.718000000000
0
LINE
  5
00000113
 39
 0.100 
 100
AcDbEntity
8
engraving007
 6
CONTINUOUS
 100
AcDbLine
 10
344.718200000000
 20
31.584277777778
 30
 0.0
 11
342.307644444444
 21
31.584277777778
 31
0.0
0
LWPOLYLINE
  5
00000114
 39
 0.100 
 100
AcDbEntity
8
engraving007
 6
CONTINUOUS
100
AcDbPolyline
 90
3
 70
8
 10
341.825533333333
 20
30.379000000000
 10
343.512922222222
 20
34.718000000000
 10
345.200311111111
 20
30.379000000000
0
ARC
  5
00000115
 39
 0.100 
 100
AcDbEntity
8
engraving007
 6
CONTINUOUS
100
AcDbCircle
 10
350.984288888889
 20
31.825333333333
 30
 0
 40
1.542755555556
100
AcDbArc
 50
180.000000000000
 51
359.999997288864
0
LINE
  5
00000116
 39
 0.100 
 100
AcDbEntity
8
engraving007
 6
CONTINUOUS
 100
AcDbLine
 10
352.527044444444
 20
33.271666666667
 30
 0.0
 11
352.527044444444
 21
31.825333333333
 31
0.0
0
ARC
  5
00000117
 39
 0.100 
 100
AcDbEntity
8
engraving007
 6
CONTINUOUS
100
AcDbCircle
 10
350.984288888889
 20
33.271666666667
 30
 0
 40
1.542755555556
100
AcDbArc
 50
0.000000000000
 51
179.999997288864
0
LINE
  5
00000118
 39
 0.100 
 100
AcDbEntity
8
engraving007
 6
CONTINUOUS
 100
AcDbLine
 10
349.441533333333
 20
31.825333333333
 30
 0.0
 11
349.441533333333
 21
33.271666666667
 31
0.0
0
LINE
  5
00000119
 39
 0.100 
 100
AcDbEntity
8
engraving007
 6
CONTINUOUS
 100
AcDbLine
 10
353.683533333333
 20
31.584277777778
 30
 0.0
 11
353.683533333333
 21
33.271666666667
 31
0.0
0
ARC
  5
0000011a
 39
 0.100 
 100
AcDbEntity
8
engraving007
 6
CONTINUOUS
100
AcDbCircle
 10
354.888811111111
 20
31.584277777778
 30
 0
 40
1.205277777778
100
AcDbArc
 50
180.000000000000
 51
359.999995749825
0
LWPOLYLINE
  5
0000011b
 39
 0.100 
 100
AcDbEntity
8
engraving007
 6
CONTINUOUS
100
AcDbPolyline
 90
3
 70
8
 10
356.094088888889
 20
31.584277777778
 10
356.094088888889
 20
30.379000000000
 10
356.094088888889
 20
33.271666666667
0
LWPOLYLINE
  5
0000011c
 39
 0.100 
 100
AcDbEntity
8
engraving007
 6
CONTINUOUS
100
AcDbPolyline
 90
6
 70
8
 10
357.684433333333
 20
34.718000000000
 10
357.684433333333
 20
33.271666666667
 10
358.407600000000
 20
33.271666666667
 10
357.202322222222
 20
33.271666666667
 10
357.684433333333
 20
33.271666666667
 10
357.684433333333
 20
30.957533333333
0
ARC
  5
0000011d
 39
 0.100 
 100
AcDbEntity
8
engraving007
 6
CONTINUOUS
100
AcDbCircle
 10
358.272415780364
 20
30.957372409563
 30
 0
 40
0.587982469053
100
AcDbArc
 50
179.984318830104
 51
259.626823354390
0
LWPOLYLINE
  5
0000011e
 39
 0.100 
 100
AcDbEntity
8
engraving007
 6
CONTINUOUS
100
AcDbPolyline
 90
4
 70
8
 10
198.641533333333
 20
34.719000000000
 10
201.534200000000
 20
34.719000000000
 10
200.087866666667
 20
34.719000000000
 10
200.087866666667
 20
30.380000000000
0
LINE
  5
0000011f
 39
 0.100 
 100
AcDbEntity
8
engraving007
 6
CONTINUOUS
 100
AcDbLine
 10
205.102088888889
 20
32.549500000000
 30
 0.0
 11
202.691533333333
 21
32.549500000000
 31
0.0
0
LWPOLYLINE
  5
00000120
 39
 0.100 
 100
AcDbEntity
8
engraving007
 6
CONTINUOUS
100
AcDbPolyline
 90
4
 70
8
 10
205.584200000000
 20
34.719000000000
 10
202.691533333333
 20
34.719000000000
 10
202.691533333333
 20
30.380000000000
 10
205.584200000000
 20
30.380000000000
0
ARC
  5
00000121
 39
 0.100 
 100
AcDbEntity
8
engraving007
 6
CONTINUOUS
100
AcDbCircle
 10
208.620974426566
 20
33.600876885770
 30
 0
 40
1.143979744069
100
AcDbArc
 50
36.734492807465
 51
77.795054648320
0
ARC
  5
00000122
 39
 0.100 
 100
AcDbEntity
8
engraving007
 6
CONTINUOUS
100
AcDbCircle
 10
208.282017130085
 20
32.058681468723
 30
 0
 40
2.722981682441
100
AcDbArc
 50
77.684337493447
 51
106.406479484328
0
ARC
  5
00000123
 39
 0.100 
 100
AcDbEntity
8
engraving007
 6
CONTINUOUS
100
AcDbCircle
 10
207.884409627963
 20
33.437166520852
 30
 0
 40
1.288345953130
100
AcDbArc
 50
106.759382669313
 51
144.315972914638
0
ARC
  5
00000124
 39
 0.100 
 100
AcDbEntity
8
engraving007
 6
CONTINUOUS
100
AcDbCircle
 10
207.554520479276
 20
33.674312733418
 30
 0
 40
0.882063880207
100
AcDbArc
 50
144.328436933631
 51
251.309340895416
0
LINE
  5
00000125
 39
 0.100 
 100
AcDbEntity
8
engraving007
 6
CONTINUOUS
 100
AcDbLine
 10
208.959244444444
 20
32.260233333333
 30
 0.0
 11
207.271855555556
 21
32.838766666667
 31
0.0
0
ARC
  5
00000126
 39
 0.100 
 100
AcDbEntity
8
engraving007
 6
CONTINUOUS
100
AcDbCircle
 10
208.676579520724
 20
31.424687266582
 30
 0
 40
0.882063880207
100
AcDbArc
 50
-35.671563066369
 51
71.309340895416
0
ARC
  5
00000127
 39
 0.100 
 100
AcDbEntity
8
engraving007
 6
CONTINUOUS
100
AcDbCircle
 10
208.346690372037
 20
31.661833479148
 30
 0
 40
1.288345953130
100
AcDbArc
 50
286.759382669312
 51
324.315972914637
0
ARC
  5
00000128
 39
 0.100 
 100
AcDbEntity
8
engraving007
 6
CONTINUOUS
100
AcDbCircle
 10
207.949082869915
 20
33.040318531277
 30
 0
 40
2.722981682441
100
AcDbArc
 50
257.684337493447
 51
286.406479484327
0
ARC
  5
00000129
 39
 0.100 
 100
AcDbEntity
8
engraving007
 6
CONTINUOUS
100
AcDbCircle
 10
207.610125573434
 20
31.498123114230
 30
 0
 40
1.143979744069
100
AcDbArc
 50
216.734492807465
 51
257.795054648319
0
ARC
  5
0000012a
 39
 0.100 
 100
AcDbEntity
8
engraving007
 6
CONTINUOUS
100
AcDbCircle
 10
215.372500000000
 20
33.634250000000
 30
 0
 40
1.084750000000
100
AcDbArc
 50
270.000000000000
 51
450.000000000000
0
LWPOLYLINE
  5
0000012b
 39
 0.100 
 100
AcDbEntity
8
engraving007
 6
CONTINUOUS
100
AcDbPolyline
 90
4
 70
8
 10
215.372500000000
 20
34.719000000000
 10
213.781533333333
 20
34.719000000000
 10
213.781533333333
 20
30.380000000000
 10
215.613555555556
 20
30.380000000000
0
ARC
  5
0000012c
 39
 0.100 
 100
AcDbEntity
8
engraving007
 6
CONTINUOUS
100
AcDbCircle
 10
215.613555555556
 20
31.464750000000
 30
 0
 40
1.084750000000
100
AcDbArc
 50
270.000000000000
 51
450.000000000000
0
LINE
  5
0000012d
 39
 0.100 
 100
AcDbEntity
8
engraving007
 6
CONTINUOUS
 100
AcDbLine
 10
213.781533333333
 20
32.549500000000
 30
 0.0
 11
215.613555555556
 21
32.549500000000
 31
0.0
0
LINE
  5
0000012e
 39
 0.100 
 100
AcDbEntity
8
engraving007
 6
CONTINUOUS
 100
AcDbLine
 10
217.831533333333
 20
34.477944444444
 30
 0.0
 11
217.831533333333
 21
34.719000000000
 31
0.0
0
LINE
  5
0000012f
 39
 0.100 
 100
AcDbEntity
8
engraving007
 6
CONTINUOUS
 100
AcDbLine
 10
217.831533333333
 20
30.380000000000
 30
 0.0
 11
217.831533333333
 21
33.272666666667
 31
0.0
0
LINE
  5
00000130
 39
 0.100 
 100
AcDbEntity
8
engraving007
 6
CONTINUOUS
 100
AcDbLine
 10
221.496511111111
 20
31.585277777778
 30
 0.0
 11
221.496511111111
 21
33.272666666667
 31
0.0
0
ARC
  5
00000131
 39
 0.100 
 100
AcDbEntity
8
engraving007
 6
CONTINUOUS
100
AcDbCircle
 10
220.243022222222
 20
31.585277777778
 30
 0
 40
1.253488888889
100
AcDbArc
 50
-179.999997640539
 51
0.000000000000
0
LINE
  5
00000132
 39
 0.100 
 100
AcDbEntity
8
engraving007
 6
CONTINUOUS
 100
AcDbLine
 10
218.989533333333
 20
32.067388888889
 30
 0.0
 11
218.989533333333
 21
31.585277777778
 31
0.0
0
ARC
  5
00000133
 39
 0.100 
 100
AcDbEntity
8
engraving007
 6
CONTINUOUS
100
AcDbCircle
 10
220.243022222222
 20
32.067388888889
 30
 0
 40
1.253488888889
100
AcDbArc
 50
0.000002359461
 51
180.000000000000
0
LINE
  5
00000134
 39
 0.100 
 100
AcDbEntity
8
engraving007
 6
CONTINUOUS
 100
AcDbLine
 10
221.496511111111
 20
30.910322222222
 30
 0.0
 11
221.496511111111
 21
32.067388888889
 31
0.0
0
ARC
  5
00000135
 39
 0.100 
 100
AcDbEntity
8
engraving007
 6
CONTINUOUS
100
AcDbCircle
 10
222.195497182038
 20
30.975152527010
 30
 0
 40
0.701986107960
100
AcDbArc
 50
185.298970098529
 51
260.119809816194
0
ARC
  5
00000136
 39
 0.100 
 100
AcDbEntity
8
engraving007
 6
CONTINUOUS
100
AcDbCircle
 10
224.326486770235
 20
31.983976176964
 30
 0
 40
1.638031423773
100
AcDbArc
 50
228.051919586579
 51
293.023435997369
0
ARC
  5
00000137
 39
 0.100 
 100
AcDbEntity
8
engraving007
 6
CONTINUOUS
100
AcDbCircle
 10
224.726000129245
 20
31.045912736867
 30
 0
 40
0.618437279264
100
AcDbArc
 50
292.948730888252
 51
431.823157172522
0
LINE
  5
00000138
 39
 0.100 
 100
AcDbEntity
8
engraving007
 6
CONTINUOUS
 100
AcDbLine
 10
223.617222222222
 20
32.067388888889
 30
 0.0
 11
224.918922222222
 21
31.633488888889
 31
0.0
0
ARC
  5
00000139
 39
 0.100 
 100
AcDbEntity
8
engraving007
 6
CONTINUOUS
100
AcDbCircle
 10
223.790880098873
 20
32.594735935342
 30
 0
 40
0.555204435795
100
AcDbArc
 50
119.107622643327
 51
251.773041418684
0
ARC
  5
0000013a
 39
 0.100 
 100
AcDbEntity
8
engraving007
 6
CONTINUOUS
100
AcDbCircle
 10
224.361093298811
 20
31.592972677402
 30
 0
 40
1.707868378113
100
AcDbArc
 50
54.501454290422
 51
119.472970701212
0
ARC
  5
0000013b
 39
 0.100 
 100
AcDbEntity
8
engraving007
 6
CONTINUOUS
100
AcDbCircle
 10
231.137288888889
 20
31.826333333333
 30
 0
 40
1.542755555556
100
AcDbArc
 50
180.000000000000
 51
359.999997288864
0
LINE
  5
0000013c
 39
 0.100 
 100
AcDbEntity
8
engraving007
 6
CONTINUOUS
 100
AcDbLine
 10
232.680044444444
 20
33.272666666667
 30
 0.0
 11
232.680044444444
 21
31.826333333333
 31
0.0
0
ARC
  5
0000013d
 39
 0.100 
 100
AcDbEntity
8
engraving007
 6
CONTINUOUS
100
AcDbCircle
 10
231.137288888889
 20
33.272666666667
 30
 0
 40
1.542755555556
100
AcDbArc
 50
0.000000000000
 51
179.999997288864
0
LINE
  5
0000013e
 39
 0.100 
 100
AcDbEntity
8
engraving007
 6
CONTINUOUS
 100
AcDbLine
 10
229.594533333333
 20
31.826333333333
 30
 0.0
 11
229.594533333333
 21
33.272666666667
 31
0.0
0
LINE
  5
0000013f
 39
 0.100 
 100
AcDbEntity
8
engraving007
 6
CONTINUOUS
 100
AcDbLine
 10
233.836533333333
 20
31.585277777778
 30
 0.0
 11
233.836533333333
 21
33.272666666667
 31
0.0
0
ARC
  5
00000140
 39
 0.100 
 100
AcDbEntity
8
engraving007
 6
CONTINUOUS
100
AcDbCircle
 10
235.041811111111
 20
31.585277777778
 30
 0
 40
1.205277777778
100
AcDbArc
 50
180.000000000000
 51
360.000000000000
0
LWPOLYLINE
  5
00000141
 39
 0.100 
 100
AcDbEntity
8
engraving007
 6
CONTINUOUS
100
AcDbPolyline
 90
3
 70
8
 10
236.247088888889
 20
31.585277777778
 10
236.247088888889
 20
30.380000000000
 10
236.247088888889
 20
33.272666666667
0
LWPOLYLINE
  5
00000142
 39
 0.100 
 100
AcDbEntity
8
engraving007
 6
CONTINUOUS
100
AcDbPolyline
 90
6
 70
8
 10
237.837433333333
 20
34.719000000000
 10
237.837433333333
 20
33.272666666667
 10
238.560600000000
 20
33.272666666667
 10
237.355322222222
 20
33.272666666667
 10
237.837433333333
 20
33.272666666667
 10
237.837433333333
 20
30.958533333333
0
ARC
  5
00000143
 39
 0.100 
 100
AcDbEntity
8
engraving007
 6
CONTINUOUS
100
AcDbCircle
 10
238.425415780364
 20
30.958372409563
 30
 0
 40
0.587982469053
100
AcDbArc
 50
179.984318830104
 51
259.626823354390
0
LINE
  5
00000144
 39
 0.100 
 100
AcDbEntity
8
engraving007
 6
CONTINUOUS
 100
AcDbLine
 10
400.078622222222
 20
33.581500000000
 30
 0.0
 11
398.654733333333
 21
33.581500000000
 31
0.0
0
LWPOLYLINE
  5
00000145
 39
 0.100 
 100
AcDbEntity
8
engraving007
 6
CONTINUOUS
100
AcDbPolyline
 90
3
 70
8
 10
400.363400000000
 20
34.863000000000
 10
398.654733333333
 20
34.863000000000
 10
398.654733333333
 20
32.300000000000
0
LINE
  5
00000146
 39
 0.100 
 100
AcDbEntity
8
engraving007
 6
CONTINUOUS
 100
AcDbLine
 10
401.047733333333
 20
32.641733333333
 30
 0.0
 11
401.047733333333
 21
34.863000000000
 31
0.0
0
ARC
  5
00000147
 39
 0.100 
 100
AcDbEntity
8
engraving007
 6
CONTINUOUS
100
AcDbCircle
 10
401.395048155122
 20
32.641638277416
 30
 0
 40
0.347314834796
100
AcDbArc
 50
179.984318830128
 51
259.626823354413
0
LINE
  5
00000148
 39
 0.100 
 100
AcDbEntity
8
engraving007
 6
CONTINUOUS
 100
AcDbLine
 10
402.016733333333
 20
33.010944444444
 30
 0.0
 11
402.016733333333
 21
34.007666666667
 31
0.0
0
ARC
  5
00000149
 39
 0.100 
 100
AcDbEntity
8
engraving007
 6
CONTINUOUS
100
AcDbCircle
 10
402.728677777778
 20
33.010944444444
 30
 0
 40
0.711944444444
100
AcDbArc
 50
180.000000000000
 51
359.999998304056
0
LWPOLYLINE
  5
0000014a
 39
 0.100 
 100
AcDbEntity
8
engraving007
 6
CONTINUOUS
100
AcDbPolyline
 90
3
 70
8
 10
403.440622222222
 20
33.010944444444
 10
403.440622222222
 20
32.299000000000
 10
403.440622222222
 20
34.007666666667
0
LINE
  5
0000014b
 39
 0.100 
 100
AcDbEntity
8
engraving007
 6
CONTINUOUS
 100
AcDbLine
 10
405.547622222222
 20
32.299000000000
 30
 0.0
 11
404.123733333333
 21
34.007666666667
 31
0.0
0
LINE
  5
0000014c
 39
 0.100 
 100
AcDbEntity
8
engraving007
 6
CONTINUOUS
 100
AcDbLine
 10
405.547622222222
 20
34.007666666667
 30
 0.0
 11
404.123733333333
 21
32.299000000000
 31
0.0
0
LWPOLYLINE
  5
0000014d
 39
 0.100 
 100
AcDbEntity
8
engraving007
 6
CONTINUOUS
100
AcDbPolyline
 90
3
 70
8
 10
397.544733333333
 20
27.220000000000
 10
397.544733333333
 20
29.783000000000
 10
398.484500000000
 20
29.783000000000
0
ARC
  5
0000014e
 39
 0.100 
 100
AcDbEntity
8
engraving007
 6
CONTINUOUS
100
AcDbCircle
 10
398.484500000000
 20
29.142250000000
 30
 0
 40
0.640750000000
100
AcDbArc
 50
-89.999997692112
 51
90.000000000000
0
LWPOLYLINE
  5
0000014f
 39
 0.100 
 100
AcDbEntity
8
engraving007
 6
CONTINUOUS
100
AcDbPolyline
 90
4
 70
8
 10
398.484500000000
 20
28.501500000000
 10
397.544733333333
 20
28.501500000000
 10
398.541455555556
 20
28.501500000000
 10
399.111011111111
 20
27.220000000000
0
LINE
  5
00000150
 39
 0.100 
 100
AcDbEntity
8
engraving007
 6
CONTINUOUS
 100
AcDbLine
 10
401.247577777778
 20
27.931944444444
 30
 0.0
 11
401.247577777778
 21
28.928666666667
 31
0.0
0
ARC
  5
00000151
 39
 0.100 
 100
AcDbEntity
8
engraving007
 6
CONTINUOUS
100
AcDbCircle
 10
400.507155555556
 20
27.931944444444
 30
 0
 40
0.740422222222
100
AcDbArc
 50
-179.999998369284
 51
0.000000000000
0
LINE
  5
00000152
 39
 0.100 
 100
AcDbEntity
8
engraving007
 6
CONTINUOUS
 100
AcDbLine
 10
399.766733333333
 20
28.216722222222
 30
 0.0
 11
399.766733333333
 21
27.931944444444
 31
0.0
0
ARC
  5
00000153
 39
 0.100 
 100
AcDbEntity
8
engraving007
 6
CONTINUOUS
100
AcDbCircle
 10
400.507155555556
 20
28.216722222222
 30
 0
 40
0.740422222222
100
AcDbArc
 50
0.000000000000
 51
180.000000000000
0
LINE
  5
00000154
 39
 0.100 
 100
AcDbEntity
8
engraving007
 6
CONTINUOUS
 100
AcDbLine
 10
401.247577777778
 20
27.533255555556
 30
 0.0
 11
401.247577777778
 21
28.216722222222
 31
0.0
0
ARC
  5
00000155
 39
 0.100 
 100
AcDbEntity
8
engraving007
 6
CONTINUOUS
100
AcDbCircle
 10
401.660461230137
 20
27.571550109870
 30
 0
 40
0.414655541531
100
AcDbArc
 50
185.298970098532
 51
260.119809816196
0
LWPOLYLINE
  5
00000156
 39
 0.100 
 100
AcDbEntity
8
engraving007
 6
CONTINUOUS
100
AcDbPolyline
 90
3
 70
8
 10
402.273733333333
 20
27.221000000000
 10
402.273733333333
 20
28.929666666667
 10
402.273733333333
 20
28.360111111111
0
ARC
  5
00000157
 39
 0.100 
 100
AcDbEntity
8
engraving007
 6
CONTINUOUS
100
AcDbCircle
 10
402.843288888889
 20
28.360111111111
 30
 0
 40
0.569555555556
100
AcDbArc
 50
0.000000000000
 51
180.000000000000
0
LWPOLYLINE
  5
00000158
 39
 0.100 
 100
AcDbEntity
8
engraving007
 6
CONTINUOUS
100
AcDbPolyline
 90
3
 70
8
 10
403.412844444444
 20
28.360111111111
 10
403.412844444444
 20
27.221000000000
 10
403.412844444444
 20
28.360111111111
0
ARC
  5
00000159
 39
 0.100 
 100
AcDbEntity
8
engraving007
 6
CONTINUOUS
100
AcDbCircle
 10
403.982400000000
 20
28.360111111111
 30
 0
 40
0.569555555556
100
AcDbArc
 50
0.000003351905
 51
180.000000000000
0
LINE
  5
0000015a
 39
 0.100 
 100
AcDbEntity
8
engraving007
 6
CONTINUOUS
 100
AcDbLine
 10
404.551955555556
 20
27.221000000000
 30
 0.0
 11
404.551955555556
 21
28.360111111111
 31
0.0
0
LINE
  5
0000015b
 39
 0.100 
 100
AcDbEntity
8
engraving007
 6
CONTINUOUS
 100
AcDbLine
 10
405.234733333333
 20
28.217722222222
 30
 0.0
 11
405.234733333333
 21
26.366666666667
 31
0.0
0
ARC
  5
0000015c
 39
 0.100 
 100
AcDbEntity
8
engraving007
 6
CONTINUOUS
100
AcDbCircle
 10
405.946677777778
 20
28.217722222222
 30
 0
 40
0.711944444444
100
AcDbArc
 50
0.000000000000
 51
180.000000000000
0
LINE
  5
0000015d
 39
 0.100 
 100
AcDbEntity
8
engraving007
 6
CONTINUOUS
 100
AcDbLine
 10
406.658622222222
 20
27.932944444444
 30
 0.0
 11
406.658622222222
 21
28.217722222222
 31
0.0
0
ARC
  5
0000015e
 39
 0.100 
 100
AcDbEntity
8
engraving007
 6
CONTINUOUS
100
AcDbCircle
 10
405.946677777778
 20
27.932944444444
 30
 0
 40
0.711944444444
100
AcDbArc
 50
-180.000000000000
 51
0.000000000000
0
LINE
  5
0000015f
 39
 0.100 
 100
AcDbEntity
8
engraving007
 6
CONTINUOUS
 100
AcDbLine
 10
405.234733333333
 20
28.929666666667
 30
 0.0
 11
405.234733333333
 21
27.932944444444
 31
0.0
0
ARC
  5
00000160
 39
 0.100 
 100
AcDbEntity
8
engraving007
 6
CONTINUOUS
100
AcDbCircle
 10
36.632022222222
 20
39.457066666667
 30
 0
 40
1.253488888889
100
AcDbArc
 50
-90.000000000000
 51
90.000000000000
0
ARC
  5
00000161
 39
 0.100 
 100
AcDbEntity
8
engraving007
 6
CONTINUOUS
100
AcDbCircle
 10
36.632022222222
 20
39.457066666667
 30
 0
 40
1.253488888889
100
AcDbArc
 50
90.000000000000
 51
270.000000000000
0
ARC
  5
00000162
 39
 0.100 
 100
AcDbEntity
8
engraving007
 6
CONTINUOUS
100
AcDbCircle
 10
36.632022222222
 20
41.722988888889
 30
 0
 40
1.012433333333
100
AcDbArc
 50
270.000000000000
 51
450.000000000000
0
ARC
  5
00000163
 39
 0.100 
 100
AcDbEntity
8
engraving007
 6
CONTINUOUS
100
AcDbCircle
 10
36.632022222222
 20
41.722988888889
 30
 0
 40
1.012433333333
100
AcDbArc
 50
90.000000000000
 51
270.000000000000
0
LWPOLYLINE
  5
00000164
 39
 0.100 
 100
AcDbEntity
8
engraving007
 6
CONTINUOUS
100
AcDbPolyline
 90
3
 70
8
 10
41.261244444444
 20
42.639000000000
 10
39.091744444444
 20
42.639000000000
 10
39.091744444444
 20
40.614133333333
0
ARC
  5
00000165
 39
 0.100 
 100
AcDbEntity
8
engraving007
 6
CONTINUOUS
100
AcDbCircle
 10
40.100788922609
 20
39.306834011374
 30
 0
 40
1.651424317403
100
AcDbArc
 50
84.857503260514
 51
127.662906156110
0
ARC
  5
00000166
 39
 0.100 
 100
AcDbEntity
8
engraving007
 6
CONTINUOUS
100
AcDbCircle
 10
40.117178406879
 20
39.562692181212
 30
 0
 40
1.395142631653
100
AcDbArc
 50
-44.244742533868
 51
84.586049357569
0
ARC
  5
00000167
 39
 0.100 
 100
AcDbEntity
8
engraving007
 6
CONTINUOUS
100
AcDbCircle
 10
40.187132563019
 20
39.501165775714
 30
 0
 40
1.302109963269
100
AcDbArc
 50
208.566076208517
 51
315.546980170302
0
LINE
  5
00000168
 39
 0.100 
 100
AcDbEntity
8
engraving007
 6
CONTINUOUS
 100
AcDbLine
 10
48.204511111111
 20
40.468500000000
 30
 0.0
 11
45.697533333333
 21
40.468500000000
 31
0.0
0
LINE
  5
00000169
 39
 0.100 
 100
AcDbEntity
8
engraving007
 6
CONTINUOUS
 100
AcDbLine
 10
52.786011111111
 20
42.445155555556
 30
 0.0
 11
52.496744444444
 21
42.204100000000
 31
0.0
0
ARC
  5
0000016a
 39
 0.100 
 100
AcDbEntity
8
engraving007
 6
CONTINUOUS
100
AcDbCircle
 10
53.567636082381
 20
41.539391637936
 30
 0
 40
1.196388678554
100
AcDbArc
 50
-40.792406106298
 51
130.792406106298
0
LWPOLYLINE
  5
0000016b
 39
 0.100 
 100
AcDbEntity
8
engraving007
 6
CONTINUOUS
100
AcDbPolyline
 90
3
 70
8
 10
54.473400000000
 20
40.757766666667
 10
52.448533333333
 20
38.299000000000
 10
54.859088888889
 20
38.299000000000
0
ARC
  5
0000016c
 39
 0.100 
 100
AcDbEntity
8
engraving007
 6
CONTINUOUS
100
AcDbCircle
 10
57.269022222222
 20
39.697122222222
 30
 0
 40
1.253488888889
100
AcDbArc
 50
0.000000000000
 51
180.000000000000
0
LINE
  5
0000016d
 39
 0.100 
 100
AcDbEntity
8
engraving007
 6
CONTINUOUS
 100
AcDbLine
 10
58.522511111111
 20
39.456066666667
 30
 0.0
 11
58.522511111111
 21
39.697122222222
 31
0.0
0
ARC
  5
0000016e
 39
 0.100 
 100
AcDbEntity
8
engraving007
 6
CONTINUOUS
100
AcDbCircle
 10
57.269022222222
 20
39.456066666667
 30
 0
 40
1.253488888889
100
AcDbArc
 50
-180.000000000000
 51
0.000000000000
0
LINE
  5
0000016f
 39
 0.100 
 100
AcDbEntity
8
engraving007
 6
CONTINUOUS
 100
AcDbLine
 10
56.015533333333
 20
41.336300000000
 30
 0.0
 11
56.015533333333
 21
39.456066666667
 31
0.0
0
ARC
  5
00000170
 39
 0.100 
 100
AcDbEntity
8
engraving007
 6
CONTINUOUS
100
AcDbCircle
 10
57.350874509909
 20
41.389570805866
 30
 0
 40
1.336403321088
100
AcDbArc
 50
45.866505621904
 51
182.284490888253
0
LWPOLYLINE
  5
00000171
 39
 0.100 
 100
AcDbEntity
8
engraving007
 6
CONTINUOUS
100
AcDbPolyline
 90
3
 70
8
 10
61.897244444444
 20
42.637000000000
 10
59.727744444444
 20
42.637000000000
 10
59.727744444444
 20
40.612133333333
0
ARC
  5
00000172
 39
 0.100 
 100
AcDbEntity
8
engraving007
 6
CONTINUOUS
100
AcDbCircle
 10
60.736788922609
 20
39.304834011374
 30
 0
 40
1.651424317403
100
AcDbArc
 50
84.857503260514
 51
127.662906156110
0
ARC
  5
00000173
 39
 0.100 
 100
AcDbEntity
8
engraving007
 6
CONTINUOUS
100
AcDbCircle
 10
60.753178406879
 20
39.560692181212
 30
 0
 40
1.395142631653
100
AcDbArc
 50
-44.244742533868
 51
84.586049357569
0
ARC
  5
00000174
 39
 0.100 
 100
AcDbEntity
8
engraving007
 6
CONTINUOUS
100
AcDbCircle
 10
60.823132563019
 20
39.499165775714
 30
 0
 40
1.302109963269
100
AcDbArc
 50
208.566076208517
 51
315.546980170302
0
LWPOLYLINE
  5
00000175
 39
 0.100 
 100
AcDbEntity
8
engraving007
 6
CONTINUOUS
100
AcDbPolyline
 90
3
 70
8
 10
63.246533333333
 20
42.636000000000
 10
64.692866666667
 20
38.297000000000
 10
66.139200000000
 20
42.636000000000
0
LINE
  5
00000176
 39
 0.100 
 100
AcDbEntity
8
engraving007
 6
CONTINUOUS
 100
AcDbLine
 10
70.188200000000
 20
39.502277777778
 30
 0.0
 11
67.777644444444
 21
39.502277777778
 31
0.0
0
LWPOLYLINE
  5
00000177
 39
 0.100 
 100
AcDbEntity
8
engraving007
 6
CONTINUOUS
100
AcDbPolyline
 90
3
 70
8
 10
67.295533333333
 20
38.297000000000
 10
68.982922222222
 20
42.636000000000
 10
70.670311111111
 20
38.297000000000
0
ARC
  5
00000178
 39
 0.100 
 100
AcDbEntity
8
engraving007
 6
CONTINUOUS
100
AcDbCircle
 10
73.239588662511
 20
41.327756385608
 30
 0
 40
1.413669531255
100
AcDbArc
 50
28.821216413460
 51
181.689020992655
0
LINE
  5
00000179
 39
 0.100 
 100
AcDbEntity
8
engraving007
 6
CONTINUOUS
 100
AcDbLine
 10
71.826533333333
 20
39.646911111111
 30
 0.0
 11
71.826533333333
 21
41.286088888889
 31
0.0
0
ARC
  5
0000017a
 39
 0.100 
 100
AcDbEntity
8
engraving007
 6
CONTINUOUS
100
AcDbCircle
 10
73.275401049036
 20
39.649317147440
 30
 0
 40
1.448869713471
100
AcDbArc
 50
180.095147126809
 51
338.427058671382
0
LINE
  5
0000017b
 39
 0.100 
 100
AcDbEntity
8
engraving007
 6
CONTINUOUS
 100
AcDbLine
 10
98.888733333333
 20
41.606377777778
 30
 0.0
 11
98.888733333333
 21
43.372000000000
 31
0.0
0
ARC
  5
0000017c
 39
 0.100 
 100
AcDbEntity
8
engraving007
 6
CONTINUOUS
100
AcDbCircle
 10
99.743066666667
 20
41.606377777778
 30
 0
 40
0.854333333333
100
AcDbArc
 50
180.000000000000
 51
360.000000000000
0
LINE
  5
0000017d
 39
 0.100 
 100
AcDbEntity
8
engraving007
 6
CONTINUOUS
 100
AcDbLine
 10
100.597400000000
 20
43.372000000000
 30
 0.0
 11
100.597400000000
 21
41.606377777778
 31
0.0
0
ARC
  5
0000017e
 39
 0.100 
 100
AcDbEntity
8
engraving007
 6
CONTINUOUS
100
AcDbCircle
 10
102.391898699076
 20
42.711536865229
 30
 0
 40
0.675736364150
100
AcDbArc
 50
36.734492807465
 51
77.795054648320
0
ARC
  5
0000017f
 39
 0.100 
 100
AcDbEntity
8
engraving007
 6
CONTINUOUS
100
AcDbCircle
 10
102.191680319062
 20
41.800578844051
 30
 0
 40
1.608435596243
100
AcDbArc
 50
77.684337493447
 51
106.406479484328
0
ARC
  5
00000180
 39
 0.100 
 100
AcDbEntity
8
engraving007
 6
CONTINUOUS
100
AcDbCircle
 10
101.956817901929
 20
42.614834937300
 30
 0
 40
0.761011910088
100
AcDbArc
 50
106.759382669312
 51
144.315972914637
0
ARC
  5
00000181
 39
 0.100 
 100
AcDbEntity
8
engraving007
 6
CONTINUOUS
100
AcDbCircle
 10
101.761955977964
 20
42.754914619901
 30
 0
 40
0.521025518546
100
AcDbArc
 50
144.328436933630
 51
251.309340895415
0
LINE
  5
00000182
 39
 0.100 
 100
AcDbEntity
8
engraving007
 6
CONTINUOUS
 100
AcDbLine
 10
102.591711111111
 20
41.919633333333
 30
 0.0
 11
101.594988888889
 21
42.261366666667
 31
0.0
0
ARC
  5
00000183
 39
 0.100 
 100
AcDbEntity
8
engraving007
 6
CONTINUOUS
100
AcDbCircle
 10
102.424744022036
 20
41.426085380099
 30
 0
 40
0.521025518546
100
AcDbArc
 50
-35.671563066371
 51
71.309340895414
0
ARC
  5
00000184
 39
 0.100 
 100
AcDbEntity
8
engraving007
 6
CONTINUOUS
100
AcDbCircle
 10
102.229882098071
 20
41.566165062700
 30
 0
 40
0.761011910088
100
AcDbArc
 50
286.759382669313
 51
324.315972914637
0
ARC
  5
00000185
 39
 0.100 
 100
AcDbEntity
8
engraving007
 6
CONTINUOUS
100
AcDbCircle
 10
101.995019680938
 20
42.380421155949
 30
 0
 40
1.608435596243
100
AcDbArc
 50
257.684337493446
 51
286.406479484327
0
ARC
  5
00000186
 39
 0.100 
 100
AcDbEntity
8
engraving007
 6
CONTINUOUS
100
AcDbCircle
 10
101.794801300924
 20
41.469463134771
 30
 0
 40
0.675736364150
100
AcDbArc
 50
216.734492807466
 51
257.795054648321
0
ARC
  5
00000187
 39
 0.100 
 100
AcDbEntity
8
engraving007
 6
CONTINUOUS
100
AcDbCircle
 10
104.556500000000
 20
42.731250000000
 30
 0
 40
0.640750000000
100
AcDbArc
 50
270.000000000000
 51
449.999997692112
0
LWPOLYLINE
  5
00000188
 39
 0.100 
 100
AcDbEntity
8
engraving007
 6
CONTINUOUS
100
AcDbPolyline
 90
4
 70
8
 10
104.556500000000
 20
43.372000000000
 10
103.616733333333
 20
43.372000000000
 10
103.616733333333
 20
40.809000000000
 10
104.698888888889
 20
40.809000000000
0
ARC
  5
00000189
 39
 0.100 
 100
AcDbEntity
8
engraving007
 6
CONTINUOUS
100
AcDbCircle
 10
104.698888888889
 20
41.449750000000
 30
 0
 40
0.640750000000
100
AcDbArc
 50
270.000000000000
 51
450.000000000000
0
LINE
  5
0000018a
 39
 0.100 
 100
AcDbEntity
8
engraving007
 6
CONTINUOUS
 100
AcDbLine
 10
103.616733333333
 20
42.090500000000
 30
 0.0
 11
104.698888888889
 21
42.090500000000
 31
0.0
0
LINE
  5
0000018b
 39
 0.100 
 100
AcDbEntity
8
engraving007
 6
CONTINUOUS
 100
AcDbLine
 10
125.420400000000
 20
41.521944444444
 30
 0.0
 11
123.996511111111
 21
41.521944444444
 31
0.0
0
LWPOLYLINE
  5
0000018c
 39
 0.100 
 100
AcDbEntity
8
engraving007
 6
CONTINUOUS
100
AcDbPolyline
 90
3
 70
8
 10
123.711733333333
 20
40.810000000000
 10
124.708455555556
 20
43.373000000000
 10
125.705177777778
 20
40.810000000000
0
LINE
  5
0000018d
 39
 0.100 
 100
AcDbEntity
8
engraving007
 6
CONTINUOUS
 100
AcDbLine
 10
126.388733333333
 20
41.607377777778
 30
 0.0
 11
126.388733333333
 21
43.373000000000
 31
0.0
0
ARC
  5
0000018e
 39
 0.100 
 100
AcDbEntity
8
engraving007
 6
CONTINUOUS
100
AcDbCircle
 10
127.243066666667
 20
41.607377777778
 30
 0
 40
0.854333333333
100
AcDbArc
 50
180.000000000000
 51
360.000000000000
0
LINE
  5
0000018f
 39
 0.100 
 100
AcDbEntity
8
engraving007
 6
CONTINUOUS
 100
AcDbLine
 10
128.097400000000
 20
43.373000000000
 30
 0.0
 11
128.097400000000
 21
41.607377777778
 31
0.0
0
LINE
  5
00000190
 39
 0.100 
 100
AcDbEntity
8
engraving007
 6
CONTINUOUS
 100
AcDbLine
 10
130.489400000000
 20
40.810000000000
 30
 0.0
 11
128.780733333333
 21
43.373000000000
 31
0.0
0
LINE
  5
00000191
 39
 0.100 
 100
AcDbEntity
8
engraving007
 6
CONTINUOUS
 100
AcDbLine
 10
130.489400000000
 20
43.373000000000
 30
 0.0
 11
128.780733333333
 21
40.810000000000
 31
0.0
0
ARC
  5
00000192
 39
 0.100 
 100
AcDbEntity
8
contour007
 6
CONTINUOUS
100
AcDbCircle
 10
366.500000000000
 20
3.500000000000
 30
 0
 40
1.500000000000
100
AcDbArc
 50
180.000000000000
 51
270.000000000000
0
LINE
  5
00000193
 39
 0.100 
 100
AcDbEntity
8
contour007
 6
CONTINUOUS
 100
AcDbLine
 10
403.500000000000
 20
2.000000000000
 30
 0.0
 11
366.500000000000
 21
2.000000000000
 31
0.0
0
ARC
  5
00000194
 39
 0.100 
 100
AcDbEntity
8
contour007
 6
CONTINUOUS
100
AcDbCircle
 10
403.500000000000
 20
3.500000000000
 30
 0
 40
1.500000000000
100
AcDbArc
 50
270.000000000000
 51
360.000000000000
0
LINE
  5
00000195
 39
 0.100 
 100
AcDbEntity
8
contour007
 6
CONTINUOUS
 100
AcDbLine
 10
405.000000000000
 20
10.500000000000
 30
 0.0
 11
405.000000000000
 21
3.500000000000
 31
0.0
0
ARC
  5
00000196
 39
 0.100 
 100
AcDbEntity
8
contour007
 6
CONTINUOUS
100
AcDbCircle
 10
403.500000000000
 20
10.500000000000
 30
 0
 40
1.500000000000
100
AcDbArc
 50
0.000000000000
 51
90.000000000000
0
LINE
  5
00000197
 39
 0.100 
 100
AcDbEntity
8
contour007
 6
CONTINUOUS
 100
AcDbLine
 10
366.500000000000
 20
12.000000000000
 30
 0.0
 11
403.500000000000
 21
12.000000000000
 31
0.0
0
ARC
  5
00000198
 39
 0.100 
 100
AcDbEntity
8
contour007
 6
CONTINUOUS
100
AcDbCircle
 10
366.500000000000
 20
10.500000000000
 30
 0
 40
1.500000000000
100
AcDbArc
 50
90.000000000000
 51
180.000000000000
0
LINE
  5
00000199
 39
 0.100 
 100
AcDbEntity
8
contour007
 6
CONTINUOUS
 100
AcDbLine
 10
365.000000000000
 20
3.500000000000
 30
 0.0
 11
365.000000000000
 21
10.500000000000
 31
0.0
0
ARC
  5
0000019a
 39
 0.100 
 100
AcDbEntity
8
contour007
 6
DASHED
100
AcDbCircle
 10
31.500000000000
 20
8.180000000000
 30
 0
 40
1.500000000000
100
AcDbArc
 50
180.000000000000
 51
270.000000000000
0
LINE
  5
0000019b
 39
 0.100 
 100
AcDbEntity
8
contour007
 6
DASHED
 100
AcDbLine
 10
78.500000000000
 20
6.680000000000
 30
 0.0
 11
31.500000000000
 21
6.680000000000
 31
0.0
0
ARC
  5
0000019c
 39
 0.100 
 100
AcDbEntity
8
contour007
 6
DASHED
100
AcDbCircle
 10
78.500000000000
 20
8.180000000000
 30
 0
 40
1.500000000000
100
AcDbArc
 50
270.000000000000
 51
360.000000000000
0
LINE
  5
0000019d
 39
 0.100 
 100
AcDbEntity
8
contour007
 6
DASHED
 100
AcDbLine
 10
80.000000000000
 20
35.980000000000
 30
 0.0
 11
80.000000000000
 21
8.180000000000
 31
0.0
0
ARC
  5
0000019e
 39
 0.100 
 100
AcDbEntity
8
contour007
 6
DASHED
100
AcDbCircle
 10
78.500000000000
 20
35.980000000000
 30
 0
 40
1.500000000000
100
AcDbArc
 50
0.000000000000
 51
90.000000000000
0
LINE
  5
0000019f
 39
 0.100 
 100
AcDbEntity
8
contour007
 6
DASHED
 100
AcDbLine
 10
31.500000000000
 20
37.480000000000
 30
 0.0
 11
78.500000000000
 21
37.480000000000
 31
0.0
0
ARC
  5
000001a0
 39
 0.100 
 100
AcDbEntity
8
contour007
 6
DASHED
100
AcDbCircle
 10
31.500000000000
 20
35.980000000000
 30
 0
 40
1.500000000000
100
AcDbArc
 50
90.000000000000
 51
180.000000000000
0
LINE
  5
000001a1
 39
 0.100 
 100
AcDbEntity
8
contour007
 6
DASHED
 100
AcDbLine
 10
30.000000000000
 20
8.180000000000
 30
 0.0
 11
30.000000000000
 21
35.980000000000
 31
0.0
0
CIRCLE
  5
000001a2
 39
 0.100 
 100
AcDbEntity
8
contour007
 6
CONTINUOUS
100
AcDbCircle
 10
431.900000000000
 20
38.850000000000
 30
 0
 40
5.000000000000
0
CIRCLE
  5
000001a3
 39
 0.100 
 100
AcDbEntity
8
contour007
 6
CONTINUOUS
100
AcDbCircle
 10
431.900000000000
 20
38.850000000000
 30
 0
 40
3.201000000000
0
CIRCLE
  5
000001a4
 39
 0.100 
 100
AcDbEntity
8
contour007
 6
CONTINUOUS
100
AcDbCircle
 10
431.900000000000
 20
38.850000000000
 30
 0
 40
3.201000000000
0
CIRCLE
  5
000001a5
 39
 0.100 
 100
AcDbEntity
8
contour007
 6
CONTINUOUS
100
AcDbCircle
 10
5.299000000000
 20
38.850000000000
 30
 0
 40
5.000000000000
0
CIRCLE
  5
000001a6
 39
 0.100 
 100
AcDbEntity
8
contour007
 6
CONTINUOUS
100
AcDbCircle
 10
5.299000000000
 20
38.850000000000
 30
 0
 40
3.201000000000
0
CIRCLE
  5
000001a7
 39
 0.100 
 100
AcDbEntity
8
contour007
 6
CONTINUOUS
100
AcDbCircle
 10
5.299000000000
 20
38.850000000000
 30
 0
 40
3.201000000000
0
CIRCLE
  5
000001a8
 39
 0.100 
 100
AcDbEntity
8
contour007
 6
CONTINUOUS
100
AcDbCircle
 10
431.900000000000
 20
5.299000000000
 30
 0
 40
5.000000000000
0
CIRCLE
  5
000001a9
 39
 0.100 
 100
AcDbEntity
8
contour007
 6
CONTINUOUS
100
AcDbCircle
 10
431.900000000000
 20
5.299000000000
 30
 0
 40
3.201000000000
0
CIRCLE
  5
000001aa
 39
 0.100 
 100
AcDbEntity
8
contour007
 6
CONTINUOUS
100
AcDbCircle
 10
431.900000000000
 20
5.299000000000
 30
 0
 40
3.201000000000
0
CIRCLE
  5
000001ab
 39
 0.100 
 100
AcDbEntity
8
contour007
 6
CONTINUOUS
100
AcDbCircle
 10
5.299000000000
 20
5.299000000000
 30
 0
 40
5.000000000000
0
CIRCLE
  5
000001ac
 39
 0.100 
 100
AcDbEntity
8
contour007
 6
CONTINUOUS
100
AcDbCircle
 10
5.299000000000
 20
5.299000000000
 30
 0
 40
3.201000000000
0
CIRCLE
  5
000001ad
 39
 0.100 
 100
AcDbEntity
8
contour007
 6
CONTINUOUS
100
AcDbCircle
 10
5.299000000000
 20
5.299000000000
 30
 0
 40
3.201000000000
0
CIRCLE
  5
000001ae
 39
 0.100 
 100
AcDbEntity
8
contour007
 6
CONTINUOUS
100
AcDbCircle
 10
149.100000000000
 20
35.549000000000
 30
 0
 40
3.000000000000
0
CIRCLE
  5
000001af
 39
 0.100 
 100
AcDbEntity
8
contour007
 6
CONTINUOUS
100
AcDbCircle
 10
149.100000000000
 20
35.549000000000
 30
 0
 40
1.600000000000
0
CIRCLE
  5
000001b0
 39
 0.100 
 100
AcDbEntity
8
contour007
 6
CONTINUOUS
100
AcDbCircle
 10
149.100000000000
 20
35.549000000000
 30
 0
 40
1.600000000000
0
CIRCLE
  5
000001b1
 39
 0.100 
 100
AcDbEntity
8
contour007
 6
CONTINUOUS
100
AcDbCircle
 10
288.100000000000
 20
35.549000000000
 30
 0
 40
3.000000000000
0
CIRCLE
  5
000001b2
 39
 0.100 
 100
AcDbEntity
8
contour007
 6
CONTINUOUS
100
AcDbCircle
 10
288.100000000000
 20
35.549000000000
 30
 0
 40
1.600000000000
0
CIRCLE
  5
000001b3
 39
 0.100 
 100
AcDbEntity
8
contour007
 6
CONTINUOUS
100
AcDbCircle
 10
288.100000000000
 20
35.549000000000
 30
 0
 40
1.600000000000
0
CIRCLE
  5
000001b4
 39
 0.100 
 100
AcDbEntity
8
contour007
 6
CONTINUOUS
100
AcDbCircle
 10
149.100000000000
 20
8.600000000000
 30
 0
 40
3.000000000000
0
CIRCLE
  5
000001b5
 39
 0.100 
 100
AcDbEntity
8
contour007
 6
CONTINUOUS
100
AcDbCircle
 10
149.100000000000
 20
8.600000000000
 30
 0
 40
1.600000000000
0
CIRCLE
  5
000001b6
 39
 0.100 
 100
AcDbEntity
8
contour007
 6
CONTINUOUS
100
AcDbCircle
 10
149.100000000000
 20
8.600000000000
 30
 0
 40
1.600000000000
0
CIRCLE
  5
000001b7
 39
 0.100 
 100
AcDbEntity
8
contour007
 6
CONTINUOUS
100
AcDbCircle
 10
288.100000000000
 20
8.600000000000
 30
 0
 40
3.000000000000
0
CIRCLE
  5
000001b8
 39
 0.100 
 100
AcDbEntity
8
contour007
 6
CONTINUOUS
100
AcDbCircle
 10
288.100000000000
 20
8.600000000000
 30
 0
 40
1.600000000000
0
CIRCLE
  5
000001b9
 39
 0.100 
 100
AcDbEntity
8
contour007
 6
CONTINUOUS
100
AcDbCircle
 10
288.100000000000
 20
8.600000000000
 30
 0
 40
1.600000000000
0
ARC
  5
000001ba
 39
 0.100 
 100
AcDbEntity
8
contour007
 6
CONTINUOUS
100
AcDbCircle
 10
320.863216682558
 20
25.330000009390
 30
 0
 40
2.500000000000
100
AcDbArc
 50
90.004965998437
 51
189.973926439760
0
LINE
  5
000001bb
 39
 0.100 
 100
AcDbEntity
8
contour007
 6
CONTINUOUS
 100
AcDbLine
 10
319.547000000000
 20
18.396000000000
 30
 0.0
 11
318.401000000000
 21
24.897000000000
 31
0.0
0
ARC
  5
000001bc
 39
 0.100 
 100
AcDbEntity
8
contour007
 6
CONTINUOUS
100
AcDbCircle
 10
322.009040655229
 20
18.829999783407
 30
 0
 40
2.500000000000
100
AcDbArc
 50
189.997192011371
 51
269.976149938283
0
LINE
  5
000001bd
 39
 0.100 
 100
AcDbEntity
8
contour007
 6
CONTINUOUS
 100
AcDbLine
 10
356.720000000000
 20
16.330000000000
 30
 0.0
 11
322.008000000000
 21
16.330000000000
 31
0.0
0
ARC
  5
000001be
 39
 0.100 
 100
AcDbEntity
8
contour007
 6
CONTINUOUS
100
AcDbCircle
 10
356.718959344771
 20
18.829999783407
 30
 0
 40
2.500000000000
100
AcDbArc
 50
270.023850061718
 51
350.002807988630
0
LINE
  5
000001bf
 39
 0.100 
 100
AcDbEntity
8
contour007
 6
CONTINUOUS
 100
AcDbLine
 10
360.327000000000
 20
24.897000000000
 30
 0.0
 11
359.181000000000
 21
18.396000000000
 31
0.0
0
ARC
  5
000001c0
 39
 0.100 
 100
AcDbEntity
8
contour007
 6
CONTINUOUS
100
AcDbCircle
 10
357.864783317442
 20
25.330000009390
 30
 0
 40
2.500000000000
100
AcDbArc
 50
350.026073560240
 51
449.995034001562
0
LINE
  5
000001c1
 39
 0.100 
 100
AcDbEntity
8
contour007
 6
CONTINUOUS
 100
AcDbLine
 10
320.863000000000
 20
27.830000000000
 30
 0.0
 11
357.865000000000
 21
27.830000000000
 31
0.0
0
CIRCLE
  5
000001c2
 39
 0.100 
 100
AcDbEntity
8
contour007
 6
CONTINUOUS
100
AcDbCircle
 10
315.864000000000
 20
22.080000000000
 30
 0
 40
1.600000000000
0
CIRCLE
  5
000001c3
 39
 0.100 
 100
AcDbEntity
8
contour007
 6
CONTINUOUS
100
AcDbCircle
 10
362.864000000000
 20
22.080000000000
 30
 0
 40
1.600000000000
0
ARC
  5
000001c4
 39
 0.100 
 100
AcDbEntity
8
contour007
 6
CONTINUOUS
100
AcDbCircle
 10
32.900000000000
 20
9.730000000000
 30
 0
 40
1.500000000000
100
AcDbArc
 50
180.000000000000
 51
270.000000000000
0
LINE
  5
000001c5
 39
 0.100 
 100
AcDbEntity
8
contour007
 6
CONTINUOUS
 100
AcDbLine
 10
77.100000000000
 20
8.230000000000
 30
 0.0
 11
32.900000000000
 21
8.230000000000
 31
0.0
0
ARC
  5
000001c6
 39
 0.100 
 100
AcDbEntity
8
contour007
 6
CONTINUOUS
100
AcDbCircle
 10
77.100000000000
 20
9.730000000000
 30
 0
 40
1.500000000000
100
AcDbArc
 50
270.000000000000
 51
360.000000000000
0
LINE
  5
000001c7
 39
 0.100 
 100
AcDbEntity
8
contour007
 6
CONTINUOUS
 100
AcDbLine
 10
78.600000000000
 20
34.430000000000
 30
 0.0
 11
78.600000000000
 21
9.730000000000
 31
0.0
0
ARC
  5
000001c8
 39
 0.100 
 100
AcDbEntity
8
contour007
 6
CONTINUOUS
100
AcDbCircle
 10
77.100000000000
 20
34.430000000000
 30
 0
 40
1.500000000000
100
AcDbArc
 50
0.000000000000
 51
90.000000000000
0
LINE
  5
000001c9
 39
 0.100 
 100
AcDbEntity
8
contour007
 6
CONTINUOUS
 100
AcDbLine
 10
32.900000000000
 20
35.930000000000
 30
 0.0
 11
77.100000000000
 21
35.930000000000
 31
0.0
0
ARC
  5
000001ca
 39
 0.100 
 100
AcDbEntity
8
contour007
 6
CONTINUOUS
100
AcDbCircle
 10
32.900000000000
 20
34.430000000000
 30
 0
 40
1.500000000000
100
AcDbArc
 50
90.000000000000
 51
180.000000000000
0
LINE
  5
000001cb
 39
 0.100 
 100
AcDbEntity
8
contour007
 6
CONTINUOUS
 100
AcDbLine
 10
31.400000000000
 20
9.730000000000
 30
 0.0
 11
31.400000000000
 21
34.430000000000
 31
0.0
0
CIRCLE
  5
000001cc
 39
 0.100 
 100
AcDbEntity
8
contour007
 6
CONTINUOUS
100
AcDbCircle
 10
102.100000000000
 20
36.580000000000
 30
 0
 40
1.500000000000
0
ARC
  5
000001cd
 39
 0.100 
 100
AcDbEntity
8
contour007
 6
CONTINUOUS
100
AcDbCircle
 10
93.893198051534
 20
11.018198051534
 30
 0
 40
0.500000000000
100
AcDbArc
 50
137.425317001059
 51
312.574682998940
0
LINE
  5
000001ce
 39
 0.100 
 100
AcDbEntity
8
contour007
 6
CONTINUOUS
 100
AcDbLine
 10
109.968526624438
 20
10.650000000000
 30
 0.0
 11
94.231473375562
 21
10.650000000000
 31
0.0
0
ARC
  5
000001cf
 39
 0.100 
 100
AcDbEntity
8
contour007
 6
CONTINUOUS
100
AcDbCircle
 10
110.306801948466
 20
11.018198051534
 30
 0
 40
0.500000000000
100
AcDbArc
 50
227.425317001058
 51
402.574682998940
0
LINE
  5
000001d0
 39
 0.100 
 100
AcDbEntity
8
contour007
 6
CONTINUOUS
 100
AcDbLine
 10
110.675000000000
 20
32.803526624438
 30
 0.0
 11
110.675000000000
 21
11.356473375562
 31
0.0
0
ARC
  5
000001d1
 39
 0.100 
 100
AcDbEntity
8
contour007
 6
CONTINUOUS
100
AcDbCircle
 10
110.306801948466
 20
33.141801948466
 30
 0
 40
0.500000000000
100
AcDbArc
 50
317.425317001059
 51
492.574682998941
0
LINE
  5
000001d2
 39
 0.100 
 100
AcDbEntity
8
contour007
 6
CONTINUOUS
 100
AcDbLine
 10
94.231473375562
 20
33.510000000000
 30
 0.0
 11
109.968526624438
 21
33.510000000000
 31
0.0
0
ARC
  5
000001d3
 39
 0.100 
 100
AcDbEntity
8
contour007
 6
CONTINUOUS
100
AcDbCircle
 10
93.893198051534
 20
33.141801948466
 30
 0
 40
0.500000000000
100
AcDbArc
 50
47.425317001058
 51
222.574682998940
0
LINE
  5
000001d4
 39
 0.100 
 100
AcDbEntity
8
contour007
 6
CONTINUOUS
 100
AcDbLine
 10
93.525000000000
 20
11.356473375562
 30
 0.0
 11
93.525000000000
 21
32.803526624438
 31
0.0
0
CIRCLE
  5
000001d5
 39
 0.100 
 100
AcDbEntity
8
contour007
 6
CONTINUOUS
100
AcDbCircle
 10
102.100000000000
 20
7.580000000000
 30
 0
 40
1.500000000000
0
CIRCLE
  5
000001d6
 39
 0.100 
 100
AcDbEntity
8
contour007
 6
CONTINUOUS
100
AcDbCircle
 10
127.100000000000
 20
36.580000000000
 30
 0
 40
1.500000000000
0
ARC
  5
000001d7
 39
 0.100 
 100
AcDbEntity
8
contour007
 6
CONTINUOUS
100
AcDbCircle
 10
118.893198051534
 20
11.018198051534
 30
 0
 40
0.500000000000
100
AcDbArc
 50
137.425317001059
 51
312.574682998940
0
LINE
  5
000001d8
 39
 0.100 
 100
AcDbEntity
8
contour007
 6
CONTINUOUS
 100
AcDbLine
 10
134.968526624438
 20
10.650000000000
 30
 0.0
 11
119.231473375562
 21
10.650000000000
 31
0.0
0
ARC
  5
000001d9
 39
 0.100 
 100
AcDbEntity
8
contour007
 6
CONTINUOUS
100
AcDbCircle
 10
135.306801948466
 20
11.018198051534
 30
 0
 40
0.500000000000
100
AcDbArc
 50
227.425317001059
 51
402.574682998941
0
LINE
  5
000001da
 39
 0.100 
 100
AcDbEntity
8
contour007
 6
CONTINUOUS
 100
AcDbLine
 10
135.675000000000
 20
32.803526624438
 30
 0.0
 11
135.675000000000
 21
11.356473375562
 31
0.0
0
ARC
  5
000001db
 39
 0.100 
 100
AcDbEntity
8
contour007
 6
CONTINUOUS
100
AcDbCircle
 10
135.306801948466
 20
33.141801948466
 30
 0
 40
0.500000000000
100
AcDbArc
 50
317.425317001059
 51
492.574682998941
0
LINE
  5
000001dc
 39
 0.100 
 100
AcDbEntity
8
contour007
 6
CONTINUOUS
 100
AcDbLine
 10
119.231473375562
 20
33.510000000000
 30
 0.0
 11
134.968526624438
 21
33.510000000000
 31
0.0
0
ARC
  5
000001dd
 39
 0.100 
 100
AcDbEntity
8
contour007
 6
CONTINUOUS
100
AcDbCircle
 10
118.893198051534
 20
33.141801948466
 30
 0
 40
0.500000000000
100
AcDbArc
 50
47.425317001058
 51
222.574682998940
0
LINE
  5
000001de
 39
 0.100 
 100
AcDbEntity
8
contour007
 6
CONTINUOUS
 100
AcDbLine
 10
118.525000000000
 20
11.356473375562
 30
 0.0
 11
118.525000000000
 21
32.803526624438
 31
0.0
0
CIRCLE
  5
000001df
 39
 0.100 
 100
AcDbEntity
8
contour007
 6
CONTINUOUS
100
AcDbCircle
 10
127.100000000000
 20
7.580000000000
 30
 0
 40
1.500000000000
0
ARC
  5
000001e0
 39
 0.100 
 100
AcDbEntity
8
contour007
 6
CONTINUOUS
100
AcDbCircle
 10
191.849216682558
 20
25.330000009390
 30
 0
 40
2.500000000000
100
AcDbArc
 50
90.004965998439
 51
189.973926439761
0
LINE
  5
000001e1
 39
 0.100 
 100
AcDbEntity
8
contour007
 6
CONTINUOUS
 100
AcDbLine
 10
190.533000000000
 20
18.396000000000
 30
 0.0
 11
189.387000000000
 21
24.897000000000
 31
0.0
0
ARC
  5
000001e2
 39
 0.100 
 100
AcDbEntity
8
contour007
 6
CONTINUOUS
100
AcDbCircle
 10
192.995040655229
 20
18.829999783407
 30
 0
 40
2.500000000000
100
AcDbArc
 50
189.997192011370
 51
269.976149938282
0
LINE
  5
000001e3
 39
 0.100 
 100
AcDbEntity
8
contour007
 6
CONTINUOUS
 100
AcDbLine
 10
244.206000000000
 20
16.330000000000
 30
 0.0
 11
192.994000000000
 21
16.330000000000
 31
0.0
0
ARC
  5
000001e4
 39
 0.100 
 100
AcDbEntity
8
contour007
 6
CONTINUOUS
100
AcDbCircle
 10
244.204959344771
 20
18.829999783407
 30
 0
 40
2.500000000000
100
AcDbArc
 50
270.023850061718
 51
350.002807988630
0
LINE
  5
000001e5
 39
 0.100 
 100
AcDbEntity
8
contour007
 6
CONTINUOUS
 100
AcDbLine
 10
247.813000000000
 20
24.897000000000
 30
 0.0
 11
246.667000000000
 21
18.396000000000
 31
0.0
0
ARC
  5
000001e6
 39
 0.100 
 100
AcDbEntity
8
contour007
 6
CONTINUOUS
100
AcDbCircle
 10
245.350783317442
 20
25.330000009390
 30
 0
 40
2.500000000000
100
AcDbArc
 50
350.026073560239
 51
449.995034001561
0
LINE
  5
000001e7
 39
 0.100 
 100
AcDbEntity
8
contour007
 6
CONTINUOUS
 100
AcDbLine
 10
191.849000000000
 20
27.830000000000
 30
 0.0
 11
245.351000000000
 21
27.830000000000
 31
0.0
0
CIRCLE
  5
000001e8
 39
 0.100 
 100
AcDbEntity
8
contour007
 6
CONTINUOUS
100
AcDbCircle
 10
186.850000000000
 20
22.080000000000
 30
 0
 40
1.600000000000
0
CIRCLE
  5
000001e9
 39
 0.100 
 100
AcDbEntity
8
contour007
 6
CONTINUOUS
100
AcDbCircle
 10
250.350000000000
 20
22.080000000000
 30
 0
 40
1.600000000000
0
ARC
  5
000001ea
 39
 0.100 
 100
AcDbEntity
8
contour007
 6
CONTINUOUS
100
AcDbCircle
 10
402.100000000000
 20
22.080000000000
 30
 0
 40
3.251301893088
100
AcDbArc
 50
44.775702748400
 51
135.224297251600
0
ARC
  5
000001eb
 39
 0.100 
 100
AcDbEntity
8
contour007
 6
CONTINUOUS
100
AcDbCircle
 10
402.100000000000
 20
22.080000000000
 30
 0
 40
3.251301893088
100
AcDbArc
 50
135.224297251600
 51
315.224297251600
0
ARC
  5
000001ec
 39
 0.100 
 100
AcDbEntity
8
contour007
 6
CONTINUOUS
100
AcDbCircle
 10
403.343000162086
 20
20.846302676909
 30
 0
 40
1.500000000000
100
AcDbArc
 50
315.234906536805
 51
360.026635781024
0
LINE
  5
000001ed
 39
 0.100 
 100
AcDbEntity
8
contour007
 6
CONTINUOUS
 100
AcDbLine
 10
404.843000000000
 20
23.313000000000
 30
 0.0
 11
404.843000000000
 21
20.847000000000
 31
0.0
0
ARC
  5
000001ee
 39
 0.100 
 100
AcDbEntity
8
contour007
 6
CONTINUOUS
100
AcDbCircle
 10
403.343000162086
 20
23.313697323091
 30
 0
 40
1.500000000000
100
AcDbArc
 50
359.973364218976
 51
404.765093463195
0
CIRCLE
  5
000001ef
 39
 0.100 
 100
AcDbEntity
8
contour007
 6
CONTINUOUS
100
AcDbCircle
 10
13.250000000000
 20
32.696000000000
 30
 0
 40
3.000000000000
0
CIRCLE
  5
000001f0
 39
 0.100 
 100
AcDbEntity
8
contour007
 6
CONTINUOUS
100
AcDbCircle
 10
13.250000000000
 20
32.696000000000
 30
 0
 40
1.600000000000
0
CIRCLE
  5
000001f1
 39
 0.100 
 100
AcDbEntity
8
contour007
 6
CONTINUOUS
100
AcDbCircle
 10
13.250000000000
 20
32.696000000000
 30
 0
 40
1.600000000000
0
CIRCLE
  5
000001f2
 39
 0.100 
 100
AcDbEntity
8
contour007
 6
CONTINUOUS
100
AcDbCircle
 10
13.250000000000
 20
11.247000000000
 30
 0
 40
3.000000000000
0
CIRCLE
  5
000001f3
 39
 0.100 
 100
AcDbEntity
8
contour007
 6
CONTINUOUS
100
AcDbCircle
 10
13.250000000000
 20
11.247000000000
 30
 0
 40
1.600000000000
0
CIRCLE
  5
000001f4
 39
 0.100 
 100
AcDbEntity
8
contour007
 6
CONTINUOUS
100
AcDbCircle
 10
13.250000000000
 20
11.247000000000
 30
 0
 40
1.600000000000
0
CIRCLE
  5
000001f5
 39
 0.100 
 100
AcDbEntity
8
contour007
 6
CONTINUOUS
100
AcDbCircle
 10
423.750000000000
 20
32.701000000000
 30
 0
 40
3.000000000000
0
CIRCLE
  5
000001f6
 39
 0.100 
 100
AcDbEntity
8
contour007
 6
CONTINUOUS
100
AcDbCircle
 10
423.750000000000
 20
32.701000000000
 30
 0
 40
1.600000000000
0
CIRCLE
  5
000001f7
 39
 0.100 
 100
AcDbEntity
8
contour007
 6
CONTINUOUS
100
AcDbCircle
 10
423.750000000000
 20
32.701000000000
 30
 0
 40
1.600000000000
0
CIRCLE
  5
000001f8
 39
 0.100 
 100
AcDbEntity
8
contour007
 6
CONTINUOUS
100
AcDbCircle
 10
423.750000000000
 20
11.252000000000
 30
 0
 40
3.000000000000
0
CIRCLE
  5
000001f9
 39
 0.100 
 100
AcDbEntity
8
contour007
 6
CONTINUOUS
100
AcDbCircle
 10
423.750000000000
 20
11.252000000000
 30
 0
 40
1.600000000000
0
CIRCLE
  5
000001fa
 39
 0.100 
 100
AcDbEntity
8
contour007
 6
CONTINUOUS
100
AcDbCircle
 10
423.750000000000
 20
11.252000000000
 30
 0
 40
1.600000000000
0
CIRCLE
  5
000001fb
 39
 0.100 
 100
AcDbEntity
8
contour007
 6
CONTINUOUS
100
AcDbCircle
 10
370.000000000000
 20
6.801000000000
 30
 0
 40
1.229000000000
0
ARC
  5
000001fc
 39
 0.100 
 100
AcDbEntity
8
contour007
 6
CONTINUOUS
100
AcDbCircle
 10
370.000000000000
 20
6.801000000000
 30
 0
 40
1.500000000000
100
AcDbArc
 50
0.000000000000
 51
270.000000000000
0
CIRCLE
  5
000001fd
 39
 0.100 
 100
AcDbEntity
8
contour007
 6
CONTINUOUS
100
AcDbCircle
 10
400.000000000000
 20
6.801000000000
 30
 0
 40
1.229000000000
0
ARC
  5
000001fe
 39
 0.100 
 100
AcDbEntity
8
contour007
 6
CONTINUOUS
100
AcDbCircle
 10
400.000000000000
 20
6.801000000000
 30
 0
 40
1.500000000000
100
AcDbArc
 50
0.000000000000
 51
270.000000000000
0
LINE
  5
000001ff
 39
 0.100 
 100
AcDbEntity
8
reference_cross001
 6
CONTINUOUS
 100
AcDbLine
 10
432.650000000000
 20
38.850000000000
 30
 0.0
 11
431.150000000000
 21
38.850000000000
 31
0.0
0
LINE
  5
00000200
 39
 0.100 
 100
AcDbEntity
8
reference_cross001
 6
CONTINUOUS
 100
AcDbLine
 10
431.900000000000
 20
38.100000000000
 30
 0.0
 11
431.900000000000
 21
39.600000000000
 31
0.0
0
LINE
  5
00000201
 39
 0.100 
 100
AcDbEntity
8
reference_cross001
 6
CONTINUOUS
 100
AcDbLine
 10
6.049000000000
 20
38.850000000000
 30
 0.0
 11
4.549000000000
 21
38.850000000000
 31
0.0
0
LINE
  5
00000202
 39
 0.100 
 100
AcDbEntity
8
reference_cross001
 6
CONTINUOUS
 100
AcDbLine
 10
5.299000000000
 20
38.100000000000
 30
 0.0
 11
5.299000000000
 21
39.600000000000
 31
0.0
0
LINE
  5
00000203
 39
 0.100 
 100
AcDbEntity
8
reference_cross001
 6
CONTINUOUS
 100
AcDbLine
 10
432.650000000000
 20
5.299000000000
 30
 0.0
 11
431.150000000000
 21
5.299000000000
 31
0.0
0
LINE
  5
00000204
 39
 0.100 
 100
AcDbEntity
8
reference_cross001
 6
CONTINUOUS
 100
AcDbLine
 10
431.900000000000
 20
4.549000000000
 30
 0.0
 11
431.900000000000
 21
6.049000000000
 31
0.0
0
LINE
  5
00000205
 39
 0.100 
 100
AcDbEntity
8
reference_cross001
 6
CONTINUOUS
 100
AcDbLine
 10
6.049000000000
 20
5.299000000000
 30
 0.0
 11
4.549000000000
 21
5.299000000000
 31
0.0
0
LINE
  5
00000206
 39
 0.100 
 100
AcDbEntity
8
reference_cross001
 6
CONTINUOUS
 100
AcDbLine
 10
5.299000000000
 20
4.549000000000
 30
 0.0
 11
5.299000000000
 21
6.049000000000
 31
0.0
0
LINE
  5
00000207
 39
 0.100 
 100
AcDbEntity
8
reference_cross001
 6
CONTINUOUS
 100
AcDbLine
 10
149.850000000000
 20
35.549000000000
 30
 0.0
 11
148.350000000000
 21
35.549000000000
 31
0.0
0
LINE
  5
00000208
 39
 0.100 
 100
AcDbEntity
8
reference_cross001
 6
CONTINUOUS
 100
AcDbLine
 10
149.100000000000
 20
34.799000000000
 30
 0.0
 11
149.100000000000
 21
36.299000000000
 31
0.0
0
LINE
  5
00000209
 39
 0.100 
 100
AcDbEntity
8
reference_cross001
 6
CONTINUOUS
 100
AcDbLine
 10
149.850000000000
 20
37.049000000000
 30
 0.0
 11
148.350000000000
 21
37.049000000000
 31
0.0
0
LINE
  5
0000020a
 39
 0.100 
 100
AcDbEntity
8
reference_cross001
 6
CONTINUOUS
 100
AcDbLine
 10
149.100000000000
 20
36.299000000000
 30
 0.0
 11
149.100000000000
 21
37.799000000000
 31
0.0
0
LINE
  5
0000020b
 39
 0.100 
 100
AcDbEntity
8
reference_cross001
 6
CONTINUOUS
 100
AcDbLine
 10
288.850000000000
 20
35.549000000000
 30
 0.0
 11
287.350000000000
 21
35.549000000000
 31
0.0
0
LINE
  5
0000020c
 39
 0.100 
 100
AcDbEntity
8
reference_cross001
 6
CONTINUOUS
 100
AcDbLine
 10
288.100000000000
 20
34.799000000000
 30
 0.0
 11
288.100000000000
 21
36.299000000000
 31
0.0
0
LINE
  5
0000020d
 39
 0.100 
 100
AcDbEntity
8
reference_cross001
 6
CONTINUOUS
 100
AcDbLine
 10
288.850000000000
 20
37.049000000000
 30
 0.0
 11
287.350000000000
 21
37.049000000000
 31
0.0
0
LINE
  5
0000020e
 39
 0.100 
 100
AcDbEntity
8
reference_cross001
 6
CONTINUOUS
 100
AcDbLine
 10
288.100000000000
 20
36.299000000000
 30
 0.0
 11
288.100000000000
 21
37.799000000000
 31
0.0
0
LINE
  5
0000020f
 39
 0.100 
 100
AcDbEntity
8
reference_cross001
 6
CONTINUOUS
 100
AcDbLine
 10
149.850000000000
 20
8.600000000000
 30
 0.0
 11
148.350000000000
 21
8.600000000000
 31
0.0
0
LINE
  5
00000210
 39
 0.100 
 100
AcDbEntity
8
reference_cross001
 6
CONTINUOUS
 100
AcDbLine
 10
149.100000000000
 20
7.850000000000
 30
 0.0
 11
149.100000000000
 21
9.350000000000
 31
0.0
0
LINE
  5
00000211
 39
 0.100 
 100
AcDbEntity
8
reference_cross001
 6
CONTINUOUS
 100
AcDbLine
 10
149.850000000000
 20
7.100000000000
 30
 0.0
 11
148.350000000000
 21
7.100000000000
 31
0.0
0
LINE
  5
00000212
 39
 0.100 
 100
AcDbEntity
8
reference_cross001
 6
CONTINUOUS
 100
AcDbLine
 10
149.100000000000
 20
6.350000000000
 30
 0.0
 11
149.100000000000
 21
7.850000000000
 31
0.0
0
LINE
  5
00000213
 39
 0.100 
 100
AcDbEntity
8
reference_cross001
 6
CONTINUOUS
 100
AcDbLine
 10
288.850000000000
 20
8.600000000000
 30
 0.0
 11
287.350000000000
 21
8.600000000000
 31
0.0
0
LINE
  5
00000214
 39
 0.100 
 100
AcDbEntity
8
reference_cross001
 6
CONTINUOUS
 100
AcDbLine
 10
288.100000000000
 20
7.850000000000
 30
 0.0
 11
288.100000000000
 21
9.350000000000
 31
0.0
0
LINE
  5
00000215
 39
 0.100 
 100
AcDbEntity
8
reference_cross001
 6
CONTINUOUS
 100
AcDbLine
 10
288.850000000000
 20
7.100000000000
 30
 0.0
 11
287.350000000000
 21
7.100000000000
 31
0.0
0
LINE
  5
00000216
 39
 0.100 
 100
AcDbEntity
8
reference_cross001
 6
CONTINUOUS
 100
AcDbLine
 10
288.100000000000
 20
6.350000000000
 30
 0.0
 11
288.100000000000
 21
7.850000000000
 31
0.0
0
LINE
  5
00000217
 39
 0.100 
 100
AcDbEntity
8
reference_cross001
 6
CONTINUOUS
 100
AcDbLine
 10
219.350000000000
 20
43.049000000000
 30
 0.0
 11
217.850000000000
 21
43.049000000000
 31
0.0
0
LINE
  5
00000218
 39
 0.100 
 100
AcDbEntity
8
reference_cross001
 6
CONTINUOUS
 100
AcDbLine
 10
218.600000000000
 20
42.299000000000
 30
 0.0
 11
218.600000000000
 21
43.799000000000
 31
0.0
0
LINE
  5
00000219
 39
 0.100 
 100
AcDbEntity
8
reference_cross001
 6
CONTINUOUS
 100
AcDbLine
 10
219.350000000000
 20
43.049000000000
 30
 0.0
 11
217.850000000000
 21
43.049000000000
 31
0.0
0
LINE
  5
0000021a
 39
 0.100 
 100
AcDbEntity
8
reference_cross001
 6
CONTINUOUS
 100
AcDbLine
 10
218.600000000000
 20
42.299000000000
 30
 0.0
 11
218.600000000000
 21
43.799000000000
 31
0.0
0
LINE
  5
0000021b
 39
 0.100 
 100
AcDbEntity
8
reference_cross001
 6
CONTINUOUS
 100
AcDbLine
 10
219.350000000000
 20
1.100000000000
 30
 0.0
 11
217.850000000000
 21
1.100000000000
 31
0.0
0
LINE
  5
0000021c
 39
 0.100 
 100
AcDbEntity
8
reference_cross001
 6
CONTINUOUS
 100
AcDbLine
 10
218.600000000000
 20
0.350000000000
 30
 0.0
 11
218.600000000000
 21
1.850000000000
 31
0.0
0
LINE
  5
0000021d
 39
 0.100 
 100
AcDbEntity
8
reference_cross001
 6
CONTINUOUS
 100
AcDbLine
 10
219.350000000000
 20
1.100000000000
 30
 0.0
 11
217.850000000000
 21
1.100000000000
 31
0.0
0
LINE
  5
0000021e
 39
 0.100 
 100
AcDbEntity
8
reference_cross001
 6
CONTINUOUS
 100
AcDbLine
 10
218.600000000000
 20
0.350000000000
 30
 0.0
 11
218.600000000000
 21
1.850000000000
 31
0.0
0
LINE
  5
0000021f
 39
 0.100 
 100
AcDbEntity
8
reference_cross001
 6
CONTINUOUS
 100
AcDbLine
 10
436.850000000000
 20
22.074000000000
 30
 0.0
 11
435.350000000000
 21
22.074000000000
 31
0.0
0
LINE
  5
00000220
 39
 0.100 
 100
AcDbEntity
8
reference_cross001
 6
CONTINUOUS
 100
AcDbLine
 10
436.100000000000
 20
21.324000000000
 30
 0.0
 11
436.100000000000
 21
22.824000000000
 31
0.0
0
LINE
  5
00000221
 39
 0.100 
 100
AcDbEntity
8
reference_cross001
 6
CONTINUOUS
 100
AcDbLine
 10
436.850000000000
 20
22.074000000000
 30
 0.0
 11
435.350000000000
 21
22.074000000000
 31
0.0
0
LINE
  5
00000222
 39
 0.100 
 100
AcDbEntity
8
reference_cross001
 6
CONTINUOUS
 100
AcDbLine
 10
436.100000000000
 20
21.324000000000
 30
 0.0
 11
436.100000000000
 21
22.824000000000
 31
0.0
0
LINE
  5
00000223
 39
 0.100 
 100
AcDbEntity
8
reference_cross001
 6
CONTINUOUS
 100
AcDbLine
 10
1.850000000000
 20
22.074000000000
 30
 0.0
 11
0.350000000000
 21
22.074000000000
 31
0.0
0
LINE
  5
00000224
 39
 0.100 
 100
AcDbEntity
8
reference_cross001
 6
CONTINUOUS
 100
AcDbLine
 10
1.100000000000
 20
21.324000000000
 30
 0.0
 11
1.100000000000
 21
22.824000000000
 31
0.0
0
LINE
  5
00000225
 39
 0.100 
 100
AcDbEntity
8
reference_cross001
 6
CONTINUOUS
 100
AcDbLine
 10
1.850000000000
 20
22.074000000000
 30
 0.0
 11
0.350000000000
 21
22.074000000000
 31
0.0
0
LINE
  5
00000226
 39
 0.100 
 100
AcDbEntity
8
reference_cross001
 6
CONTINUOUS
 100
AcDbLine
 10
1.100000000000
 20
21.324000000000
 30
 0.0
 11
1.100000000000
 21
22.824000000000
 31
0.0
0
LINE
  5
00000227
 39
 0.100 
 100
AcDbEntity
8
reference_cross001
 6
CONTINUOUS
 100
AcDbLine
 10
0.850000000000
 20
44.049000000000
 30
 0.0
 11
-0.650000000000
 21
44.049000000000
 31
0.0
0
LINE
  5
00000228
 39
 0.100 
 100
AcDbEntity
8
reference_cross001
 6
CONTINUOUS
 100
AcDbLine
 10
0.100000000000
 20
43.299000000000
 30
 0.0
 11
0.100000000000
 21
44.799000000000
 31
0.0
0
LINE
  5
00000229
 39
 0.100 
 100
AcDbEntity
8
reference_cross001
 6
CONTINUOUS
 100
AcDbLine
 10
437.850000000000
 20
44.049000000000
 30
 0.0
 11
436.350000000000
 21
44.049000000000
 31
0.0
0
LINE
  5
0000022a
 39
 0.100 
 100
AcDbEntity
8
reference_cross001
 6
CONTINUOUS
 100
AcDbLine
 10
437.100000000000
 20
43.299000000000
 30
 0.0
 11
437.100000000000
 21
44.799000000000
 31
0.0
0
LINE
  5
0000022b
 39
 0.100 
 100
AcDbEntity
8
reference_cross001
 6
CONTINUOUS
 100
AcDbLine
 10
437.850000000000
 20
0.100000000000
 30
 0.0
 11
436.350000000000
 21
0.100000000000
 31
0.0
0
LINE
  5
0000022c
 39
 0.100 
 100
AcDbEntity
8
reference_cross001
 6
CONTINUOUS
 100
AcDbLine
 10
437.100000000000
 20
-0.650000000000
 30
 0.0
 11
437.100000000000
 21
0.850000000000
 31
0.0
0
LINE
  5
0000022d
 39
 0.100 
 100
AcDbEntity
8
reference_cross001
 6
CONTINUOUS
 100
AcDbLine
 10
0.850000000000
 20
0.100000000000
 30
 0.0
 11
-0.650000000000
 21
0.100000000000
 31
0.0
0
LINE
  5
0000022e
 39
 0.100 
 100
AcDbEntity
8
reference_cross001
 6
CONTINUOUS
 100
AcDbLine
 10
0.100000000000
 20
-0.650000000000
 30
 0.0
 11
0.100000000000
 21
0.850000000000
 31
0.0
0
LINE
  5
0000022f
 39
 0.100 
 100
AcDbEntity
8
reference_cross001
 6
CONTINUOUS
 100
AcDbLine
 10
340.114000000000
 20
22.080000000000
 30
 0.0
 11
338.614000000000
 21
22.080000000000
 31
0.0
0
LINE
  5
00000230
 39
 0.100 
 100
AcDbEntity
8
reference_cross001
 6
CONTINUOUS
 100
AcDbLine
 10
339.364000000000
 20
21.330000000000
 30
 0.0
 11
339.364000000000
 21
22.830000000000
 31
0.0
0
LINE
  5
00000231
 39
 0.100 
 100
AcDbEntity
8
reference_cross092
 6
CONTINUOUS
 100
AcDbLine
 10
340.114000000000
 20
22.080000000000
 30
 0.0
 11
338.614000000000
 21
22.080000000000
 31
0.0
0
LINE
  5
00000232
 39
 0.100 
 100
AcDbEntity
8
reference_cross092
 6
CONTINUOUS
 100
AcDbLine
 10
339.364000000000
 20
21.330000000000
 30
 0.0
 11
339.364000000000
 21
22.830000000000
 31
0.0
0
LINE
  5
00000233
 39
 0.100 
 100
AcDbEntity
8
reference_cross092
 6
CONTINUOUS
 100
AcDbLine
 10
316.614000000000
 20
22.080000000000
 30
 0.0
 11
315.114000000000
 21
22.080000000000
 31
0.0
0
LINE
  5
00000234
 39
 0.100 
 100
AcDbEntity
8
reference_cross092
 6
CONTINUOUS
 100
AcDbLine
 10
315.864000000000
 20
21.330000000000
 30
 0.0
 11
315.864000000000
 21
22.830000000000
 31
0.0
0
LINE
  5
00000235
 39
 0.100 
 100
AcDbEntity
8
reference_cross092
 6
CONTINUOUS
 100
AcDbLine
 10
363.614000000000
 20
22.080000000000
 30
 0.0
 11
362.114000000000
 21
22.080000000000
 31
0.0
0
LINE
  5
00000236
 39
 0.100 
 100
AcDbEntity
8
reference_cross092
 6
CONTINUOUS
 100
AcDbLine
 10
362.864000000000
 20
21.330000000000
 30
 0.0
 11
362.864000000000
 21
22.830000000000
 31
0.0
0
LINE
  5
00000237
 39
 0.100 
 100
AcDbEntity
8
reference_cross001
 6
CONTINUOUS
 100
AcDbLine
 10
340.114000000000
 20
30.080000000000
 30
 0.0
 11
338.614000000000
 21
30.080000000000
 31
0.0
0
LINE
  5
00000238
 39
 0.100 
 100
AcDbEntity
8
reference_cross001
 6
CONTINUOUS
 100
AcDbLine
 10
339.364000000000
 20
29.330000000000
 30
 0.0
 11
339.364000000000
 21
30.830000000000
 31
0.0
0
LINE
  5
00000239
 39
 0.100 
 100
AcDbEntity
8
reference_cross001
 6
CONTINUOUS
 100
AcDbLine
 10
55.750000000000
 20
22.080000000000
 30
 0.0
 11
54.250000000000
 21
22.080000000000
 31
0.0
0
LINE
  5
0000023a
 39
 0.100 
 100
AcDbEntity
8
reference_cross001
 6
CONTINUOUS
 100
AcDbLine
 10
55.000000000000
 20
21.330000000000
 30
 0.0
 11
55.000000000000
 21
22.830000000000
 31
0.0
0
LINE
  5
0000023b
 39
 0.100 
 100
AcDbEntity
8
reference_cross001
 6
CONTINUOUS
 100
AcDbLine
 10
102.850000000000
 20
22.080000000000
 30
 0.0
 11
101.350000000000
 21
22.080000000000
 31
0.0
0
LINE
  5
0000023c
 39
 0.100 
 100
AcDbEntity
8
reference_cross001
 6
CONTINUOUS
 100
AcDbLine
 10
102.100000000000
 20
21.330000000000
 30
 0.0
 11
102.100000000000
 21
22.830000000000
 31
0.0
0
LINE
  5
0000023d
 39
 0.100 
 100
AcDbEntity
8
reference_cross092
 6
CONTINUOUS
 100
AcDbLine
 10
102.850000000000
 20
36.580000000000
 30
 0.0
 11
101.350000000000
 21
36.580000000000
 31
0.0
0
LINE
  5
0000023e
 39
 0.100 
 100
AcDbEntity
8
reference_cross092
 6
CONTINUOUS
 100
AcDbLine
 10
102.100000000000
 20
35.830000000000
 30
 0.0
 11
102.100000000000
 21
37.330000000000
 31
0.0
0
LINE
  5
0000023f
 39
 0.100 
 100
AcDbEntity
8
reference_cross092
 6
CONTINUOUS
 100
AcDbLine
 10
102.850000000000
 20
22.080000000000
 30
 0.0
 11
101.350000000000
 21
22.080000000000
 31
0.0
0
LINE
  5
00000240
 39
 0.100 
 100
AcDbEntity
8
reference_cross092
 6
CONTINUOUS
 100
AcDbLine
 10
102.100000000000
 20
21.330000000000
 30
 0.0
 11
102.100000000000
 21
22.830000000000
 31
0.0
0
LINE
  5
00000241
 39
 0.100 
 100
AcDbEntity
8
reference_cross092
 6
CONTINUOUS
 100
AcDbLine
 10
102.850000000000
 20
7.580000000000
 30
 0.0
 11
101.350000000000
 21
7.580000000000
 31
0.0
0
LINE
  5
00000242
 39
 0.100 
 100
AcDbEntity
8
reference_cross092
 6
CONTINUOUS
 100
AcDbLine
 10
102.100000000000
 20
6.830000000000
 30
 0.0
 11
102.100000000000
 21
8.330000000000
 31
0.0
0
LINE
  5
00000243
 39
 0.100 
 100
AcDbEntity
8
reference_cross001
 6
CONTINUOUS
 100
AcDbLine
 10
127.850000000000
 20
22.080000000000
 30
 0.0
 11
126.350000000000
 21
22.080000000000
 31
0.0
0
LINE
  5
00000244
 39
 0.100 
 100
AcDbEntity
8
reference_cross001
 6
CONTINUOUS
 100
AcDbLine
 10
127.100000000000
 20
21.330000000000
 30
 0.0
 11
127.100000000000
 21
22.830000000000
 31
0.0
0
LINE
  5
00000245
 39
 0.100 
 100
AcDbEntity
8
reference_cross092
 6
CONTINUOUS
 100
AcDbLine
 10
127.850000000000
 20
36.580000000000
 30
 0.0
 11
126.350000000000
 21
36.580000000000
 31
0.0
0
LINE
  5
00000246
 39
 0.100 
 100
AcDbEntity
8
reference_cross092
 6
CONTINUOUS
 100
AcDbLine
 10
127.100000000000
 20
35.830000000000
 30
 0.0
 11
127.100000000000
 21
37.330000000000
 31
0.0
0
LINE
  5
00000247
 39
 0.100 
 100
AcDbEntity
8
reference_cross092
 6
CONTINUOUS
 100
AcDbLine
 10
127.850000000000
 20
22.080000000000
 30
 0.0
 11
126.350000000000
 21
22.080000000000
 31
0.0
0
LINE
  5
00000248
 39
 0.100 
 100
AcDbEntity
8
reference_cross092
 6
CONTINUOUS
 100
AcDbLine
 10
127.100000000000
 20
21.330000000000
 30
 0.0
 11
127.100000000000
 21
22.830000000000
 31
0.0
0
LINE
  5
00000249
 39
 0.100 
 100
AcDbEntity
8
reference_cross092
 6
CONTINUOUS
 100
AcDbLine
 10
127.850000000000
 20
7.580000000000
 30
 0.0
 11
126.350000000000
 21
7.580000000000
 31
0.0
0
LINE
  5
0000024a
 39
 0.100 
 100
AcDbEntity
8
reference_cross092
 6
CONTINUOUS
 100
AcDbLine
 10
127.100000000000
 20
6.830000000000
 30
 0.0
 11
127.100000000000
 21
8.330000000000
 31
0.0
0
LINE
  5
0000024b
 39
 0.100 
 100
AcDbEntity
8
reference_cross001
 6
CONTINUOUS
 100
AcDbLine
 10
219.350000000000
 20
22.080000000000
 30
 0.0
 11
217.850000000000
 21
22.080000000000
 31
0.0
0
LINE
  5
0000024c
 39
 0.100 
 100
AcDbEntity
8
reference_cross001
 6
CONTINUOUS
 100
AcDbLine
 10
218.600000000000
 20
21.330000000000
 30
 0.0
 11
218.600000000000
 21
22.830000000000
 31
0.0
0
LINE
  5
0000024d
 39
 0.100 
 100
AcDbEntity
8
reference_cross092
 6
CONTINUOUS
 100
AcDbLine
 10
219.350000000000
 20
22.080000000000
 30
 0.0
 11
217.850000000000
 21
22.080000000000
 31
0.0
0
LINE
  5
0000024e
 39
 0.100 
 100
AcDbEntity
8
reference_cross092
 6
CONTINUOUS
 100
AcDbLine
 10
218.600000000000
 20
21.330000000000
 30
 0.0
 11
218.600000000000
 21
22.830000000000
 31
0.0
0
LINE
  5
0000024f
 39
 0.100 
 100
AcDbEntity
8
reference_cross092
 6
CONTINUOUS
 100
AcDbLine
 10
187.600000000000
 20
22.080000000000
 30
 0.0
 11
186.100000000000
 21
22.080000000000
 31
0.0
0
LINE
  5
00000250
 39
 0.100 
 100
AcDbEntity
8
reference_cross092
 6
CONTINUOUS
 100
AcDbLine
 10
186.850000000000
 20
21.330000000000
 30
 0.0
 11
186.850000000000
 21
22.830000000000
 31
0.0
0
LINE
  5
00000251
 39
 0.100 
 100
AcDbEntity
8
reference_cross092
 6
CONTINUOUS
 100
AcDbLine
 10
251.100000000000
 20
22.080000000000
 30
 0.0
 11
249.600000000000
 21
22.080000000000
 31
0.0
0
LINE
  5
00000252
 39
 0.100 
 100
AcDbEntity
8
reference_cross092
 6
CONTINUOUS
 100
AcDbLine
 10
250.350000000000
 20
21.330000000000
 30
 0.0
 11
250.350000000000
 21
22.830000000000
 31
0.0
0
LINE
  5
00000253
 39
 0.100 
 100
AcDbEntity
8
reference_cross001
 6
CONTINUOUS
 100
AcDbLine
 10
219.350000000000
 20
30.080000000000
 30
 0.0
 11
217.850000000000
 21
30.080000000000
 31
0.0
0
LINE
  5
00000254
 39
 0.100 
 100
AcDbEntity
8
reference_cross001
 6
CONTINUOUS
 100
AcDbLine
 10
218.600000000000
 20
29.330000000000
 30
 0.0
 11
218.600000000000
 21
30.830000000000
 31
0.0
0
LINE
  5
00000255
 39
 0.100 
 100
AcDbEntity
8
reference_cross001
 6
CONTINUOUS
 100
AcDbLine
 10
402.850000000000
 20
32.100000000000
 30
 0.0
 11
401.350000000000
 21
32.100000000000
 31
0.0
0
LINE
  5
00000256
 39
 0.100 
 100
AcDbEntity
8
reference_cross001
 6
CONTINUOUS
 100
AcDbLine
 10
402.100000000000
 20
31.350000000000
 30
 0.0
 11
402.100000000000
 21
32.850000000000
 31
0.0
0
LINE
  5
00000257
 39
 0.100 
 100
AcDbEntity
8
reference_cross001
 6
CONTINUOUS
 100
AcDbLine
 10
402.850000000000
 20
22.080000000000
 30
 0.0
 11
401.350000000000
 21
22.080000000000
 31
0.0
0
LINE
  5
00000258
 39
 0.100 
 100
AcDbEntity
8
reference_cross001
 6
CONTINUOUS
 100
AcDbLine
 10
402.100000000000
 20
21.330000000000
 30
 0.0
 11
402.100000000000
 21
22.830000000000
 31
0.0
0
LINE
  5
00000259
 39
 0.100 
 100
AcDbEntity
8
reference_cross001
 6
CONTINUOUS
 100
AcDbLine
 10
55.750000000000
 20
22.080000000000
 30
 0.0
 11
54.250000000000
 21
22.080000000000
 31
0.0
0
LINE
  5
0000025a
 39
 0.100 
 100
AcDbEntity
8
reference_cross001
 6
CONTINUOUS
 100
AcDbLine
 10
55.000000000000
 20
21.330000000000
 30
 0.0
 11
55.000000000000
 21
22.830000000000
 31
0.0
0
LINE
  5
0000025b
 39
 0.100 
 100
AcDbEntity
8
reference_cross001
 6
CONTINUOUS
 100
AcDbLine
 10
219.250000000000
 20
21.974000000000
 30
 0.0
 11
217.750000000000
 21
21.974000000000
 31
0.0
0
LINE
  5
0000025c
 39
 0.100 
 100
AcDbEntity
8
reference_cross001
 6
CONTINUOUS
 100
AcDbLine
 10
218.500000000000
 20
21.224000000000
 30
 0.0
 11
218.500000000000
 21
22.724000000000
 31
0.0
0
LINE
  5
0000025d
 39
 0.100 
 100
AcDbEntity
8
reference_cross092
 6
CONTINUOUS
 100
AcDbLine
 10
14.000000000000
 20
21.972000000000
 30
 0.0
 11
12.500000000000
 21
21.972000000000
 31
0.0
0
LINE
  5
0000025e
 39
 0.100 
 100
AcDbEntity
8
reference_cross092
 6
CONTINUOUS
 100
AcDbLine
 10
13.250000000000
 20
21.222000000000
 30
 0.0
 11
13.250000000000
 21
22.722000000000
 31
0.0
0
LINE
  5
0000025f
 39
 0.100 
 100
AcDbEntity
8
reference_cross251
 6
CONTINUOUS
 100
AcDbLine
 10
14.000000000000
 20
32.696000000000
 30
 0.0
 11
12.500000000000
 21
32.696000000000
 31
0.0
0
LINE
  5
00000260
 39
 0.100 
 100
AcDbEntity
8
reference_cross251
 6
CONTINUOUS
 100
AcDbLine
 10
13.250000000000
 20
31.946000000000
 30
 0.0
 11
13.250000000000
 21
33.446000000000
 31
0.0
0
LINE
  5
00000261
 39
 0.100 
 100
AcDbEntity
8
reference_cross251
 6
CONTINUOUS
 100
AcDbLine
 10
14.000000000000
 20
11.247000000000
 30
 0.0
 11
12.500000000000
 21
11.247000000000
 31
0.0
0
LINE
  5
00000262
 39
 0.100 
 100
AcDbEntity
8
reference_cross251
 6
CONTINUOUS
 100
AcDbLine
 10
13.250000000000
 20
10.497000000000
 30
 0.0
 11
13.250000000000
 21
11.997000000000
 31
0.0
0
LINE
  5
00000263
 39
 0.100 
 100
AcDbEntity
8
reference_cross092
 6
CONTINUOUS
 100
AcDbLine
 10
424.500000000000
 20
21.977000000000
 30
 0.0
 11
423.000000000000
 21
21.977000000000
 31
0.0
0
LINE
  5
00000264
 39
 0.100 
 100
AcDbEntity
8
reference_cross092
 6
CONTINUOUS
 100
AcDbLine
 10
423.750000000000
 20
21.227000000000
 30
 0.0
 11
423.750000000000
 21
22.727000000000
 31
0.0
0
LINE
  5
00000265
 39
 0.100 
 100
AcDbEntity
8
reference_cross251
 6
CONTINUOUS
 100
AcDbLine
 10
424.500000000000
 20
32.701000000000
 30
 0.0
 11
423.000000000000
 21
32.701000000000
 31
0.0
0
LINE
  5
00000266
 39
 0.100 
 100
AcDbEntity
8
reference_cross251
 6
CONTINUOUS
 100
AcDbLine
 10
423.750000000000
 20
31.951000000000
 30
 0.0
 11
423.750000000000
 21
33.451000000000
 31
0.0
0
LINE
  5
00000267
 39
 0.100 
 100
AcDbEntity
8
reference_cross251
 6
CONTINUOUS
 100
AcDbLine
 10
424.500000000000
 20
11.252000000000
 30
 0.0
 11
423.000000000000
 21
11.252000000000
 31
0.0
0
LINE
  5
00000268
 39
 0.100 
 100
AcDbEntity
8
reference_cross251
 6
CONTINUOUS
 100
AcDbLine
 10
423.750000000000
 20
10.502000000000
 30
 0.0
 11
423.750000000000
 21
12.002000000000
 31
0.0
0
LINE
  5
00000269
 39
 0.100 
 100
AcDbEntity
8
reference_cross001
 6
CONTINUOUS
 100
AcDbLine
 10
55.750000000000
 20
38.000000000000
 30
 0.0
 11
54.250000000000
 21
38.000000000000
 31
0.0
0
LINE
  5
0000026a
 39
 0.100 
 100
AcDbEntity
8
reference_cross001
 6
CONTINUOUS
 100
AcDbLine
 10
55.000000000000
 20
37.250000000000
 30
 0.0
 11
55.000000000000
 21
38.750000000000
 31
0.0
0
LINE
  5
0000026b
 39
 0.100 
 100
AcDbEntity
8
reference_cross001
 6
CONTINUOUS
 100
AcDbLine
 10
102.850000000000
 20
40.609000000000
 30
 0.0
 11
101.350000000000
 21
40.609000000000
 31
0.0
0
LINE
  5
0000026c
 39
 0.100 
 100
AcDbEntity
8
reference_cross001
 6
CONTINUOUS
 100
AcDbLine
 10
102.100000000000
 20
39.859000000000
 30
 0.0
 11
102.100000000000
 21
41.359000000000
 31
0.0
0
LINE
  5
0000026d
 39
 0.100 
 100
AcDbEntity
8
reference_cross001
 6
CONTINUOUS
 100
AcDbLine
 10
102.850000000000
 20
22.080000000000
 30
 0.0
 11
101.350000000000
 21
22.080000000000
 31
0.0
0
LINE
  5
0000026e
 39
 0.100 
 100
AcDbEntity
8
reference_cross001
 6
CONTINUOUS
 100
AcDbLine
 10
102.100000000000
 20
21.330000000000
 30
 0.0
 11
102.100000000000
 21
22.830000000000
 31
0.0
0
LINE
  5
0000026f
 39
 0.100 
 100
AcDbEntity
8
reference_cross001
 6
CONTINUOUS
 100
AcDbLine
 10
127.850000000000
 20
40.610000000000
 30
 0.0
 11
126.350000000000
 21
40.610000000000
 31
0.0
0
LINE
  5
00000270
 39
 0.100 
 100
AcDbEntity
8
reference_cross001
 6
CONTINUOUS
 100
AcDbLine
 10
127.100000000000
 20
39.860000000000
 30
 0.0
 11
127.100000000000
 21
41.360000000000
 31
0.0
0
LINE
  5
00000271
 39
 0.100 
 100
AcDbEntity
8
reference_cross001
 6
CONTINUOUS
 100
AcDbLine
 10
385.750000000000
 20
7.000000000000
 30
 0.0
 11
384.250000000000
 21
7.000000000000
 31
0.0
0
LINE
  5
00000272
 39
 0.100 
 100
AcDbEntity
8
reference_cross001
 6
CONTINUOUS
 100
AcDbLine
 10
385.000000000000
 20
6.250000000000
 30
 0.0
 11
385.000000000000
 21
7.750000000000
 31
0.0
0
LINE
  5
00000273
 39
 0.100 
 100
AcDbEntity
8
reference_cross001
 6
CONTINUOUS
 100
AcDbLine
 10
370.750000000000
 20
6.801000000000
 30
 0.0
 11
369.250000000000
 21
6.801000000000
 31
0.0
0
LINE
  5
00000274
 39
 0.100 
 100
AcDbEntity
8
reference_cross001
 6
CONTINUOUS
 100
AcDbLine
 10
370.000000000000
 20
6.051000000000
 30
 0.0
 11
370.000000000000
 21
7.551000000000
 31
0.0
0
LINE
  5
00000275
 39
 0.100 
 100
AcDbEntity
8
reference_cross001
 6
CONTINUOUS
 100
AcDbLine
 10
400.750000000000
 20
6.801000000000
 30
 0.0
 11
399.250000000000
 21
6.801000000000
 31
0.0
0
LINE
  5
00000276
 39
 0.100 
 100
AcDbEntity
8
reference_cross001
 6
CONTINUOUS
 100
AcDbLine
 10
400.000000000000
 20
6.051000000000
 30
 0.0
 11
400.000000000000
 21
7.551000000000
 31
0.0
0
ENDSEC
0
SECTION
2
OBJECTS
0
DICTIONARY
5
C
330
0
100
AcDbDictionary
281
1
3
ACAD_GROUP
350
D
0
DICTIONARY
5
D
330
C
100
AcDbDictionary
281
1
0
ENDSEC
0
EOF
