  0
SECTION
  2
HEADER
  9
$ANGBASE
  50
0.0
  9
$ANGDIR
  70
1
  9
$MEASUREMENT
  70
1
  0
ENDSEC
  0
SECTION
  2
TABLES
  0
TABLE
  2
LTYPE
  70
4
  0
LTYPE
  5
40F
  2
CONTINUOUS
  70
0
  3
Solid line
  72
65
  73
0
  40
0.0
  0
LTYPE
  5
410
  2
DASHDOT
 70
0
  3
Dash Dot ____ _ ____ _
 72
65
 73
4
 40
2.0
 49
1.25
 49
-0.25
 49
0.25
 49
-0.25
  0
LTYPE
  5
411
  2
DASHED
 70
0
  3
Dashed __ __ __ __ __
 72
65
 73
2
 40
0.75
 49
0.5
 49
-0.25
  0
LTYPE
  5
43B
  2
DOTTED
 70
0
  3
Dotted .  .  .  .
 72
65
 73
2
 40
0.2
 49
0.0
 49
-0.2
  0
ENDTAB
  0
TABLE
  2
STYLE
  70
4
  0
STYLE
  2
KICAD
  70
0
  40
0
  41
1
  42
1
  50
0
  71
0
  3
isocp.shx
  0
STYLE
  2
KICADB
  70
0
  40
0
  41
1
  42
1
  50
0
  71
0
  3
isocp.shx
  0
STYLE
  2
KICADI
  70
0
  40
0
  41
1
  42
1
  50
15
  71
0
  3
isocp.shx
  0
STYLE
  2
KICADBI
  70
0
  40
0
  41
1
  42
1
  50
15
  71
0
  3
isocp.shx
  0
ENDTAB
  0
TABLE
  2
LAYER
  70
1
  0
LAYER
  2
BLACK
  70
0
  62
7
  6
CONTINUOUS
  0
ENDTAB
  0
ENDSEC
  0
SECTION
  2
ENTITIES
0
LINE
8
BLACK
6
CONTINUOUS
10
0.
20
14.474499999999999
11
7.0800000000000001
21
14.474499999999999
0
LINE
8
BLACK
6
CONTINUOUS
10
7.0800000000000001
20
14.474499999999999
11
7.0800000000000001
21
3.
0
LINE
8
BLACK
6
CONTINUOUS
10
7.0800000000000001
20
3.
11
0.
21
3.
0
LINE
8
BLACK
6
CONTINUOUS
10
0.
20
3.
11
0.
21
14.474499999999999
0
LINE
8
BLACK
6
CONTINUOUS
10
0.
20
27.9489999999999981
11
7.0800000000000001
21
27.9489999999999981
0
LINE
8
BLACK
6
CONTINUOUS
10
7.0800000000000001
20
27.9489999999999981
11
7.0800000000000001
21
16.474499999999999
0
LINE
8
BLACK
6
CONTINUOUS
10
7.0800000000000001
20
16.474499999999999
11
0.
21
16.474499999999999
0
LINE
8
BLACK
6
CONTINUOUS
10
0.
20
16.474499999999999
11
0.
21
27.9489999999999981
0
LINE
8
BLACK
6
CONTINUOUS
10
0.
20
29.9489999999999981
11
7.0800000000000001
21
29.9489999999999981
0
LINE
8
BLACK
6
CONTINUOUS
10
7.0800000000000001
20
29.9489999999999981
11
7.0800000000000001
21
30.9489999999999981
0
LINE
8
BLACK
6
CONTINUOUS
10
7.0800000000000001
20
30.9489999999999981
11
16.5799999999999983
21
30.9489999999999981
0
LINE
8
BLACK
6
CONTINUOUS
10
16.5799999999999983
20
30.9489999999999981
11
16.5799999999999983
21
23.9489999999999981
0
LINE
8
BLACK
6
CONTINUOUS
10
16.5799999999999983
20
23.9489999999999981
11
23.0799999999999983
21
23.9489999999999981
0
LINE
8
BLACK
6
CONTINUOUS
10
23.0799999999999983
20
23.9489999999999981
11
23.0799999999999983
21
7.
0
LINE
8
BLACK
6
CONTINUOUS
10
23.0799999999999983
20
7.
11
16.5799999999999983
21
7.
0
LINE
8
BLACK
6
CONTINUOUS
10
16.5799999999999983
20
7.
11
16.5799999999999983
21
0.
0
LINE
8
BLACK
6
CONTINUOUS
10
16.5799999999999983
20
0.
11
7.0800000000000001
21
0.
0
LINE
8
BLACK
6
CONTINUOUS
10
7.0800000000000001
20
0.
11
7.0800000000000001
21
1.
0
LINE
8
BLACK
6
CONTINUOUS
10
7.0800000000000001
20
1.
11
0.
21
1.
0
LINE
8
BLACK
6
CONTINUOUS
10
0.
20
1.
11
0.
21
0.
0
LINE
8
BLACK
6
CONTINUOUS
10
0.
20
0.
11
-9.5
21
0.
0
LINE
8
BLACK
6
CONTINUOUS
10
-9.5
20
0.
11
-9.5
21
7.
0
LINE
8
BLACK
6
CONTINUOUS
10
-9.5
20
7.
11
-16.
21
7.
0
LINE
8
BLACK
6
CONTINUOUS
10
-16.
20
7.
11
-16.
21
23.9489999999999981
0
LINE
8
BLACK
6
CONTINUOUS
10
-16.
20
23.9489999999999981
11
-9.5
21
23.9489999999999981
0
LINE
8
BLACK
6
CONTINUOUS
10
-9.5
20
23.9489999999999981
11
-9.5
21
30.9489999999999981
0
LINE
8
BLACK
6
CONTINUOUS
10
-9.5
20
30.9489999999999981
11
0.
21
30.9489999999999981
0
LINE
8
BLACK
6
CONTINUOUS
10
0.
20
30.9489999999999981
11
0.
21
29.9489999999999981
0
CIRCLE
8
BLACK
10
11.8300000000000001
20
4.75
40
1.5
0
CIRCLE
8
BLACK
10
11.8300000000000001
20
26.1989999999999981
40
1.5
0
CIRCLE
8
BLACK
10
-4.75
20
26.1989999999999981
40
1.5
0
CIRCLE
8
BLACK
10
-4.75
20
4.75
40
1.5
  0
ENDSEC
  0
EOF
