999
dxfrw 0.5.10
0
SECTION
  2
HEADER
9
$ACADVER
  1
AC1021
  9
$MEASUREMENT
  70
  1
  9
$INSUNITS
  70
  4
9
$HANDSEED
  5
20000
0
ENDSEC
 0
SECTION
2
CLASSES
0
ENDSEC
 0
SECTION
 2
TABLES
0
TABLE
2
VPORT
5
8
330
0
100
AcDbSymbolTable
70
1
0
VPORT
5
31
330
2
100
AcDbSymbolTableRecord
100
AcDbViewportTableRecord
2
*ACTIVE
70
0
10
0
20
0
11
1
21
1
12
209.475294253
22
86.0026335861
13
0
23
0
14
10
24
10
15
10
25
10
16
0
26
0
36
1
17
0
27
0
37
0
40
319.744231092
41
2.12946428571
42
50
43
0
44
0
50
0
51
0
71
0
72
100
73
1
74
3
75
0
76
0
77
0
78
0
281
0
65
1
110
0
120
0
130
0
111
1
121
0
131
0
112
0
122
1
132
0
79
0
146
0
348
10020
60
7
61
5
292
1
282
1
141
0
142
0
63
250
421
3358443
0
ENDTAB
0
TABLE
2
LTYPE
5
5
330
0
100
AcDbSymbolTable
70
4
0
LTYPE
5
14
330
5
100
AcDbSymbolTableRecord
100
AcDbLinetypeTableRecord
2
ByBlock
70
0
3

72
65
73
0
40
0
0
LTYPE
5
15
330
5
100
AcDbSymbolTableRecord
100
AcDbLinetypeTableRecord
2
ByLayer
70
0
3
 
72
65
73
0
40
0
0
LTYPE
5
16
330
5
100
AcDbSymbolTableRecord
100
AcDbLinetypeTableRecord
2
Continuous
70
0
3
Solid line
72
65
73
0
40
0.0
0
LTYPE
5
 0000009d
100
AcDbSymbolTableRecord
100
AcDbLinetypeTableRecord
2
DOT
70
0
3
Dot . . . . . . . . . . . . . . . . . . . . . .
72
65
73
2
40
 3.0
49
 1.0
74
 0
49
 0.0
74
 0
0
LTYPE
5
 0000009e
100
AcDbSymbolTableRecord
100
AcDbLinetypeTableRecord
2
DASHED
70
0
3
Dashed __ __ __ __ __ __ __ __ __ __ __ __ __ _
72
65
73
2
40
1.0
49
 0.55
74
0
49
-0.45
74
0
0
ENDTAB
0
TABLE
2
LAYER
5
10
330
0
100
AcDbSymbolTable
70
1
0
LAYER
5
 0000009f
330
 2
100
AcDbSymbolTableRecord
100
AcDbLayerTableRecord
2
0
70
0
62
7
6
CONTINUOUS
370
 -3.0
390
F
0
LAYER
5
 000000a0
330
 2
100
AcDbSymbolTableRecord
100
AcDbLayerTableRecord
2
contour007
70
0
62
7
6
CONTINUOUS
370
 0.1
390
F
0
LAYER
5
 000000a1
330
 2
100
AcDbSymbolTableRecord
100
AcDbLayerTableRecord
2
contour152
70
0
62
152
6
CONTINUOUS
370
 0.1
390
F
0
LAYER
5
 000000a2
330
 2
100
AcDbSymbolTableRecord
100
AcDbLayerTableRecord
2
engraving007
70
0
62
7
6
CONTINUOUS
370
 0.1
390
F
0
LAYER
5
 000000a3
330
 2
100
AcDbSymbolTableRecord
100
AcDbLayerTableRecord
2
engraving152
70
0
62
152
6
CONTINUOUS
370
 0.1
390
F
0
LAYER
5
 000000a4
330
 2
100
AcDbSymbolTableRecord
100
AcDbLayerTableRecord
2
reference_cross001
70
0
62
1
6
CONTINUOUS
370
 0.1
390
F
0
LAYER
5
 000000a5
330
 2
100
AcDbSymbolTableRecord
100
AcDbLayerTableRecord
2
reference_cross092
70
0
62
92
6
CONTINUOUS
370
 0.1
390
F
0
ENDTAB
0
TABLE
2
STYLE
5
3
330
0
100
AcDbSymbolTable
70
3
0
STYLE
5
45
330
2
100
AcDbSymbolTableRecord
100
AcDbTextStyleTableRecord
2
Standard
70
0
40
0
41
1
50
0
71
0
42
1
3
txt
4
 
0
ENDTAB
0
TABLE
2
VIEW
5
6
330
0
100
AcDbSymbolTable
70
0
0
ENDTAB
0
TABLE
2
UCS
5
7
330
0
100
AcDbSymbolTable
70
0
0
ENDTAB
0
TABLE
2
APPID
5
9
330
0
100
AcDbSymbolTable
70
1
0
APPID
5
12
330
9
100
AcDbSymbolTableRecord
100
AcDbRegAppTableRecord
2
ACAD
70
0
0
ENDTAB
0
TABLE
2
DIMSTYLE
5
A
330
0
100
AcDbSymbolTable
70
1
100
AcDbDimStyleTable
71
1
0
DIMSTYLE
105
46
330
A
100
AcDbSymbolTableRecord
100
AcDbDimStyleTableRecord
2
Standard
70
0
40
1
41
0.18
42
0.0625
43
0.38
44
0.18
45
0
46
0
47
0
48
0
140
0.18
141
0.09
142
0
143
25.4
144
1
145
0
146
1
147
0.09
148
0
71
0
72
0
73
0
74
1
75
0
76
0
77
0
78
0
79
0
170
0
171
2
172
0
173
0
174
0
175
0
176
0
177
0
178
0
179
0
271
4
272
4
273
2
274
2
275
0
276
0
277
2
278
46
279
0
280
0
281
0
282
0
283
1
284
0
285
0
286
0
288
0
289
3
340
Standard
341
 
371
-2
372
-2
0
ENDTAB
0
TABLE
2
BLOCK_RECORD
5
1
330
0
100
AcDbSymbolTable
70
2
0
BLOCK_RECORD
5
1F
330
1
100
AcDbSymbolTableRecord
100
AcDbBlockTableRecord
2
*Model_Space
70
0
280
1
281
0
0
BLOCK_RECORD
5
1E
330
1
100
AcDbSymbolTableRecord
100
AcDbBlockTableRecord
2
*Paper_Space
70
0
280
1
281
0
0
ENDTAB
0
ENDSEC
0
SECTION
2
BLOCKS
0
BLOCK
5
20
330
1F
100
AcDbEntity
8
0
100
AcDbBlockBegin
2
*Model_Space
70
0
10
0
20
0
30
0
3
*Model_Space
1
 
0
ENDBLK
5
21
330
1F
100
AcDbEntity
8
0
100
AcDbBlockEnd
0
BLOCK
5
1C
330
1B
100
AcDbEntity
8
0
100
AcDbBlockBegin
2
*Paper_Space
70
0
10
0
20
0
30
0
3
*Paper_Space
1
 
0
ENDBLK
5
1D
330
1E
100
AcDbEntity
8
0
100
AcDbBlockEnd
0
ENDSEC
0
SECTION
  2
ENTITIES
0
ARC
  5
000000a6
 39
 0.100 
 100
AcDbEntity
8
contour007
 6
CONTINUOUS
100
AcDbCircle
 10
481.000000000000
 20
41.949000000000
 30
 0
 40
2.000000000000
100
AcDbArc
 50
0.000000000000
 51
90.000000000000
0
LINE
  5
000000a7
 39
 0.100 
 100
AcDbEntity
8
contour007
 6
CONTINUOUS
 100
AcDbLine
 10
483.000000000000
 20
2.000000000000
 30
 0.0
 11
483.000000000000
 21
41.949000000000
 31
0.0
0
ARC
  5
000000a8
 39
 0.100 
 100
AcDbEntity
8
contour007
 6
CONTINUOUS
100
AcDbCircle
 10
481.000000000000
 20
2.000000000000
 30
 0
 40
2.000000000000
100
AcDbArc
 50
-90.000000000000
 51
0.000000000000
0
LINE
  5
000000a9
 39
 0.100 
 100
AcDbEntity
8
contour007
 6
CONTINUOUS
 100
AcDbLine
 10
2.000000000000
 20
0.000000000000
 30
 0.0
 11
481.000000000000
 21
0.000000000000
 31
0.0
0
ARC
  5
000000aa
 39
 0.100 
 100
AcDbEntity
8
contour007
 6
CONTINUOUS
100
AcDbCircle
 10
2.000000000000
 20
2.000000000000
 30
 0
 40
2.000000000000
100
AcDbArc
 50
180.000000000000
 51
270.000000000000
0
LINE
  5
000000ab
 39
 0.100 
 100
AcDbEntity
8
contour007
 6
CONTINUOUS
 100
AcDbLine
 10
0.000000000000
 20
41.949000000000
 30
 0.0
 11
0.000000000000
 21
2.000000000000
 31
0.0
0
ARC
  5
000000ac
 39
 0.100 
 100
AcDbEntity
8
contour007
 6
CONTINUOUS
100
AcDbCircle
 10
2.000000000000
 20
41.949000000000
 30
 0
 40
2.000000000000
100
AcDbArc
 50
90.000000000000
 51
180.000000000000
0
LINE
  5
000000ad
 39
 0.100 
 100
AcDbEntity
8
contour007
 6
CONTINUOUS
 100
AcDbLine
 10
481.000000000000
 20
43.949000000000
 30
 0.0
 11
2.000000000000
 21
43.949000000000
 31
0.0
0
LWPOLYLINE
  5
000000ae
 39
 0.100 
 100
AcDbEntity
8
engraving152
 6
CONTINUOUS
100
AcDbPolyline
 90
5
 70
8
 10
167.000000000000
 20
31.949000000000
 10
177.000000000000
 20
31.949000000000
 10
177.000000000000
 20
41.949000000000
 10
167.000000000000
 20
41.949000000000
 10
167.000000000000
 20
31.949000000000
0
LWPOLYLINE
  5
000000af
 39
 0.100 
 100
AcDbEntity
8
engraving152
 6
CONTINUOUS
100
AcDbPolyline
 90
5
 70
8
 10
306.000000000000
 20
31.949000000000
 10
316.000000000000
 20
31.949000000000
 10
316.000000000000
 20
41.949000000000
 10
306.000000000000
 20
41.949000000000
 10
306.000000000000
 20
31.949000000000
0
LWPOLYLINE
  5
000000b0
 39
 0.100 
 100
AcDbEntity
8
engraving152
 6
CONTINUOUS
100
AcDbPolyline
 90
5
 70
8
 10
167.000000000000
 20
2.000000000000
 10
177.000000000000
 20
2.000000000000
 10
177.000000000000
 20
12.000000000000
 10
167.000000000000
 20
12.000000000000
 10
167.000000000000
 20
2.000000000000
0
LWPOLYLINE
  5
000000b1
 39
 0.100 
 100
AcDbEntity
8
engraving152
 6
CONTINUOUS
100
AcDbPolyline
 90
5
 70
8
 10
306.000000000000
 20
2.000000000000
 10
316.000000000000
 20
2.000000000000
 10
316.000000000000
 20
12.000000000000
 10
306.000000000000
 20
12.000000000000
 10
306.000000000000
 20
2.000000000000
0
LWPOLYLINE
  5
000000b2
 39
 0.100 
 100
AcDbEntity
8
engraving152
 6
CONTINUOUS
100
AcDbPolyline
 90
5
 70
8
 10
33.000000000000
 20
43.949000000000
 10
33.000000000000
 20
41.949000000000
 10
450.000000000000
 20
41.949000000000
 10
450.000000000000
 20
43.949000000000
 10
33.000000000000
 20
43.949000000000
0
LWPOLYLINE
  5
000000b3
 39
 0.100 
 100
AcDbEntity
8
engraving152
 6
CONTINUOUS
100
AcDbPolyline
 90
4
 70
8
 10
240.125666666667
 20
43.544000000000
 10
240.919000000000
 20
43.544000000000
 10
240.522333333333
 20
43.544000000000
 10
240.522333333333
 20
42.354000000000
0
LINE
  5
000000b4
 39
 0.100 
 100
AcDbEntity
8
engraving152
 6
CONTINUOUS
 100
AcDbLine
 10
241.236666666667
 20
42.816777777778
 30
 0.0
 11
241.236666666667
 21
42.684555555556
 31
0.0
0
ARC
  5
000000b5
 39
 0.100 
 100
AcDbEntity
8
engraving152
 6
CONTINUOUS
100
AcDbCircle
 10
241.567222222222
 20
42.816777777778
 30
 0
 40
0.330555555556
100
AcDbArc
 50
0.000000000000
 51
180.000000000000
0
LINE
  5
000000b6
 39
 0.100 
 100
AcDbEntity
8
engraving152
 6
CONTINUOUS
 100
AcDbLine
 10
241.897777777778
 20
42.684555555556
 30
 0.0
 11
241.897777777778
 21
42.816777777778
 31
0.0
0
ARC
  5
000000b7
 39
 0.100 
 100
AcDbEntity
8
engraving152
 6
CONTINUOUS
100
AcDbCircle
 10
241.567222222222
 20
42.684555555556
 30
 0
 40
0.330555555556
100
AcDbArc
 50
-180.000000000000
 51
0.000000000000
0
LINE
  5
000000b8
 39
 0.100 
 100
AcDbEntity
8
engraving152
 6
CONTINUOUS
 100
AcDbLine
 10
242.214666666667
 20
42.816777777778
 30
 0.0
 11
242.214666666667
 21
41.957333333333
 31
0.0
0
ARC
  5
000000b9
 39
 0.100 
 100
AcDbEntity
8
engraving152
 6
CONTINUOUS
100
AcDbCircle
 10
242.545222222222
 20
42.816777777778
 30
 0
 40
0.330555555556
100
AcDbArc
 50
0.000000000000
 51
180.000000000000
0
LINE
  5
000000ba
 39
 0.100 
 100
AcDbEntity
8
engraving152
 6
CONTINUOUS
 100
AcDbLine
 10
242.875777777778
 20
42.684555555556
 30
 0.0
 11
242.875777777778
 21
42.816777777778
 31
0.0
0
ARC
  5
000000bb
 39
 0.100 
 100
AcDbEntity
8
engraving152
 6
CONTINUOUS
100
AcDbCircle
 10
242.545222222222
 20
42.684555555556
 30
 0
 40
0.330555555556
100
AcDbArc
 50
-179.999997763191
 51
0.000000000000
0
LINE
  5
000000bc
 39
 0.100 
 100
AcDbEntity
8
engraving152
 6
CONTINUOUS
 100
AcDbLine
 10
242.214666666667
 20
43.147333333333
 30
 0.0
 11
242.214666666667
 21
42.684555555556
 31
0.0
0
LWPOLYLINE
  5
000000bd
 39
 0.100 
 100
AcDbEntity
8
engraving152
 6
CONTINUOUS
100
AcDbPolyline
 90
5
 70
8
 10
450.000000000000
 20
0.000000000000
 10
450.000000000000
 20
2.000000000000
 10
33.000000000000
 20
2.000000000000
 10
33.000000000000
 20
-0.000000000000
 10
450.000000000000
 20
0.000000000000
0
ARC
  5
000000be
 39
 0.100 
 100
AcDbEntity
8
engraving152
 6
CONTINUOUS
100
AcDbCircle
 10
239.240000000000
 20
1.297500000000
 30
 0
 40
0.297500000000
100
AcDbArc
 50
270.000000000000
 51
450.000000000000
0
LWPOLYLINE
  5
000000bf
 39
 0.100 
 100
AcDbEntity
8
engraving152
 6
CONTINUOUS
100
AcDbPolyline
 90
4
 70
8
 10
239.240000000000
 20
1.595000000000
 10
238.803666666667
 20
1.595000000000
 10
238.803666666667
 20
0.405000000000
 10
239.306111111111
 20
0.405000000000
0
ARC
  5
000000c0
 39
 0.100 
 100
AcDbEntity
8
engraving152
 6
CONTINUOUS
100
AcDbCircle
 10
239.306111111111
 20
0.702500000000
 30
 0
 40
0.297500000000
100
AcDbArc
 50
270.000000000000
 51
450.000000000000
0
LINE
  5
000000c1
 39
 0.100 
 100
AcDbEntity
8
engraving152
 6
CONTINUOUS
 100
AcDbLine
 10
238.803666666667
 20
1.000000000000
 30
 0.0
 11
239.306111111111
 21
1.000000000000
 31
0.0
0
LINE
  5
000000c2
 39
 0.100 
 100
AcDbEntity
8
engraving152
 6
CONTINUOUS
 100
AcDbLine
 10
239.914666666667
 20
0.867777777778
 30
 0.0
 11
239.914666666667
 21
0.735555555556
 31
0.0
0
ARC
  5
000000c3
 39
 0.100 
 100
AcDbEntity
8
engraving152
 6
CONTINUOUS
100
AcDbCircle
 10
240.245222222222
 20
0.867777777778
 30
 0
 40
0.330555555556
100
AcDbArc
 50
0.000000000000
 51
180.000000000000
0
LINE
  5
000000c4
 39
 0.100 
 100
AcDbEntity
8
engraving152
 6
CONTINUOUS
 100
AcDbLine
 10
240.575777777778
 20
0.735555555556
 30
 0.0
 11
240.575777777778
 21
0.867777777778
 31
0.0
0
ARC
  5
000000c5
 39
 0.100 
 100
AcDbEntity
8
engraving152
 6
CONTINUOUS
100
AcDbCircle
 10
240.245222222222
 20
0.735555555556
 30
 0
 40
0.330555555556
100
AcDbArc
 50
-180.000000000000
 51
0.000000000000
0
LWPOLYLINE
  5
000000c6
 39
 0.100 
 100
AcDbEntity
8
engraving152
 6
CONTINUOUS
100
AcDbPolyline
 90
6
 70
8
 10
241.012666666667
 20
1.595000000000
 10
241.012666666667
 20
1.198333333333
 10
241.211000000000
 20
1.198333333333
 10
240.880444444444
 20
1.198333333333
 10
241.012666666667
 20
1.198333333333
 10
241.012666666667
 20
0.563666666667
0
ARC
  5
000000c7
 39
 0.100 
 100
AcDbEntity
8
engraving152
 6
CONTINUOUS
100
AcDbCircle
 10
241.173924816463
 20
0.563622532238
 30
 0
 40
0.161258155836
100
AcDbArc
 50
179.984318830104
 51
259.626823354390
0
LWPOLYLINE
  5
000000c8
 39
 0.100 
 100
AcDbEntity
8
engraving152
 6
CONTINUOUS
100
AcDbPolyline
 90
6
 70
8
 10
241.647666666667
 20
1.596000000000
 10
241.647666666667
 20
1.199333333333
 10
241.846000000000
 20
1.199333333333
 10
241.515444444444
 20
1.199333333333
 10
241.647666666667
 20
1.199333333333
 10
241.647666666667
 20
0.564666666667
0
ARC
  5
000000c9
 39
 0.100 
 100
AcDbEntity
8
engraving152
 6
CONTINUOUS
100
AcDbCircle
 10
241.808924816463
 20
0.564622532238
 30
 0
 40
0.161258155836
100
AcDbArc
 50
179.984318830104
 51
259.626823354390
0
LINE
  5
000000ca
 39
 0.100 
 100
AcDbEntity
8
engraving152
 6
CONTINUOUS
 100
AcDbLine
 10
242.162666666667
 20
0.869777777778
 30
 0.0
 11
242.162666666667
 21
0.737555555556
 31
0.0
0
ARC
  5
000000cb
 39
 0.100 
 100
AcDbEntity
8
engraving152
 6
CONTINUOUS
100
AcDbCircle
 10
242.493222222222
 20
0.869777777778
 30
 0
 40
0.330555555556
100
AcDbArc
 50
0.000000000000
 51
180.000000000000
0
LINE
  5
000000cc
 39
 0.100 
 100
AcDbEntity
8
engraving152
 6
CONTINUOUS
 100
AcDbLine
 10
242.823777777778
 20
0.737555555556
 30
 0.0
 11
242.823777777778
 21
0.869777777778
 31
0.0
0
ARC
  5
000000cd
 39
 0.100 
 100
AcDbEntity
8
engraving152
 6
CONTINUOUS
100
AcDbCircle
 10
242.493222222222
 20
0.737555555556
 30
 0
 40
0.330555555556
100
AcDbArc
 50
-179.999997763191
 51
0.000000000000
0
LWPOLYLINE
  5
000000ce
 39
 0.100 
 100
AcDbEntity
8
engraving152
 6
CONTINUOUS
100
AcDbPolyline
 90
3
 70
8
 10
243.140666666667
 20
0.407000000000
 10
243.140666666667
 20
1.200333333333
 10
243.140666666667
 20
0.935888888889
0
ARC
  5
000000cf
 39
 0.100 
 100
AcDbEntity
8
engraving152
 6
CONTINUOUS
100
AcDbCircle
 10
243.405111111111
 20
0.935888888889
 30
 0
 40
0.264444444444
100
AcDbArc
 50
0.000000000000
 51
180.000000000000
0
LWPOLYLINE
  5
000000d0
 39
 0.100 
 100
AcDbEntity
8
engraving152
 6
CONTINUOUS
100
AcDbPolyline
 90
3
 70
8
 10
243.669555555556
 20
0.935888888889
 10
243.669555555556
 20
0.407000000000
 10
243.669555555556
 20
0.935888888889
0
ARC
  5
000000d1
 39
 0.100 
 100
AcDbEntity
8
engraving152
 6
CONTINUOUS
100
AcDbCircle
 10
243.934000000000
 20
0.935888888889
 30
 0
 40
0.264444444444
100
AcDbArc
 50
0.000004842834
 51
180.000000000000
0
LINE
  5
000000d2
 39
 0.100 
 100
AcDbEntity
8
engraving152
 6
CONTINUOUS
 100
AcDbLine
 10
244.198444444444
 20
0.407000000000
 30
 0.0
 11
244.198444444444
 21
0.935888888889
 31
0.0
0
LWPOLYLINE
  5
000000d3
 39
 0.100 
 100
AcDbEntity
8
engraving152
 6
CONTINUOUS
100
AcDbPolyline
 90
9
 70
8
 10
460.000000000000
 20
27.948000000000
 10
458.900000000000
 20
27.948000000000
 10
458.900000000000
 20
33.948000000000
 10
458.000000000000
 20
33.948000000000
 10
458.000000000000
 20
10.000000000000
 10
458.900000000000
 20
10.000000000000
 10
458.900000000000
 20
16.000000000000
 10
460.000000000000
 20
16.000000000000
 10
460.000000000000
 20
27.948000000000
0
LWPOLYLINE
  5
000000d4
 39
 0.100 
 100
AcDbEntity
8
engraving152
 6
CONTINUOUS
100
AcDbPolyline
 90
3
 70
8
 10
459.595000000000
 20
20.163666666667
 10
458.405000000000
 20
20.163666666667
 10
458.405000000000
 20
20.600000000000
0
ARC
  5
000000d5
 39
 0.100 
 100
AcDbEntity
8
engraving152
 6
CONTINUOUS
100
AcDbCircle
 10
458.702500000000
 20
20.600000000000
 30
 0
 40
0.297500000000
100
AcDbArc
 50
0.000000000000
 51
180.000000000000
0
LWPOLYLINE
  5
000000d6
 39
 0.100 
 100
AcDbEntity
8
engraving152
 6
CONTINUOUS
100
AcDbPolyline
 90
4
 70
8
 10
459.000000000000
 20
20.600000000000
 10
459.000000000000
 20
20.163666666667
 10
459.000000000000
 20
20.626444444444
 10
459.595000000000
 20
20.890888888889
0
LINE
  5
000000d7
 39
 0.100 
 100
AcDbEntity
8
engraving152
 6
CONTINUOUS
 100
AcDbLine
 10
458.471111111111
 20
21.195666666667
 30
 0.0
 11
458.405000000000
 21
21.195666666667
 31
0.0
0
LINE
  5
000000d8
 39
 0.100 
 100
AcDbEntity
8
engraving152
 6
CONTINUOUS
 100
AcDbLine
 10
459.595000000000
 20
21.195666666667
 30
 0.0
 11
458.801666666667
 21
21.195666666667
 31
0.0
0
LINE
  5
000000d9
 39
 0.100 
 100
AcDbEntity
8
engraving152
 6
CONTINUOUS
 100
AcDbLine
 10
459.263444444444
 20
22.174777777778
 30
 0.0
 11
458.800666666667
 21
22.174777777778
 31
0.0
0
ARC
  5
000000da
 39
 0.100 
 100
AcDbEntity
8
engraving152
 6
CONTINUOUS
100
AcDbCircle
 10
459.276666666667
 20
21.844222222222
 30
 0
 40
0.330819894307
100
AcDbArc
 50
-87.709389957361
 51
92.290610042639
0
LINE
  5
000000db
 39
 0.100 
 100
AcDbEntity
8
engraving152
 6
CONTINUOUS
 100
AcDbLine
 10
459.131222222222
 20
21.513666666667
 30
 0.0
 11
459.289888888889
 21
21.513666666667
 31
0.0
0
ARC
  5
000000dc
 39
 0.100 
 100
AcDbEntity
8
engraving152
 6
CONTINUOUS
100
AcDbCircle
 10
459.131222222222
 20
21.844222222222
 30
 0
 40
0.330555555556
100
AcDbArc
 50
90.000000000000
 51
270.000000000000
0
LINE
  5
000000dd
 39
 0.100 
 100
AcDbEntity
8
engraving152
 6
CONTINUOUS
 100
AcDbLine
 10
459.660111111111
 20
22.174777777778
 30
 0.0
 11
459.131222222222
 21
22.174777777778
 31
0.0
0
ARC
  5
000000de
 39
 0.100 
 100
AcDbEntity
8
engraving152
 6
CONTINUOUS
100
AcDbCircle
 10
459.661871216098
 20
21.841422834646
 30
 0
 40
0.333359589753
100
AcDbArc
 50
-44.873692632036
 51
90.302517338354
0
LWPOLYLINE
  5
000000df
 39
 0.100 
 100
AcDbEntity
8
engraving152
 6
CONTINUOUS
100
AcDbPolyline
 90
3
 70
8
 10
458.404000000000
 20
22.491666666667
 10
459.594000000000
 20
22.491666666667
 10
459.131222222222
 20
22.491666666667
0
ARC
  5
000000e0
 39
 0.100 
 100
AcDbEntity
8
engraving152
 6
CONTINUOUS
100
AcDbCircle
 10
459.131222222222
 20
22.822222222222
 30
 0
 40
0.330555555556
100
AcDbArc
 50
90.000000000000
 51
270.000000000000
0
LINE
  5
000000e1
 39
 0.100 
 100
AcDbEntity
8
engraving152
 6
CONTINUOUS
 100
AcDbLine
 10
459.594000000000
 20
23.152777777778
 30
 0.0
 11
459.131222222222
 21
23.152777777778
 31
0.0
0
LWPOLYLINE
  5
000000e2
 39
 0.100 
 100
AcDbEntity
8
engraving152
 6
CONTINUOUS
100
AcDbPolyline
 90
6
 70
8
 10
458.404000000000
 20
23.588666666667
 10
458.800666666667
 20
23.588666666667
 10
458.800666666667
 20
23.787000000000
 10
458.800666666667
 20
23.456444444444
 10
458.800666666667
 20
23.588666666667
 10
459.435333333333
 20
23.588666666667
0
ARC
  5
000000e3
 39
 0.100 
 100
AcDbEntity
8
engraving152
 6
CONTINUOUS
100
AcDbCircle
 10
459.435377467762
 20
23.749924816463
 30
 0
 40
0.161258155836
100
AcDbArc
 50
269.984318830108
 51
349.626823354393
0
LWPOLYLINE
  5
000000e4
 39
 0.100 
 100
AcDbEntity
8
engraving152
 6
CONTINUOUS
100
AcDbPolyline
 90
9
 70
8
 10
23.000000000000
 20
16.000000000000
 10
24.100000000000
 20
16.000000000000
 10
24.100000000000
 20
10.000000000000
 10
25.000000000000
 20
10.000000000000
 10
25.000000000000
 20
33.948000000000
 10
24.100000000000
 20
33.948000000000
 10
24.100000000000
 20
27.948000000000
 10
23.000000000000
 20
27.948000000000
 10
23.000000000000
 20
16.000000000000
0
LWPOLYLINE
  5
000000e5
 39
 0.100 
 100
AcDbEntity
8
engraving152
 6
CONTINUOUS
100
AcDbPolyline
 90
3
 70
8
 10
23.405000000000
 20
20.520666666667
 10
24.595000000000
 20
20.520666666667
 10
24.595000000000
 20
21.181777777778
0
LWPOLYLINE
  5
000000e6
 39
 0.100 
 100
AcDbEntity
8
engraving152
 6
CONTINUOUS
100
AcDbPolyline
 90
3
 70
8
 10
24.198333333333
 20
21.499666666667
 10
24.198333333333
 20
22.160777777778
 10
24.132222222222
 20
22.160777777778
0
ARC
  5
000000e7
 39
 0.100 
 100
AcDbEntity
8
engraving152
 6
CONTINUOUS
100
AcDbCircle
 10
24.132222222222
 20
21.830222222222
 30
 0
 40
0.330555555556
100
AcDbArc
 50
90.000000000000
 51
270.000000000000
0
LINE
  5
000000e8
 39
 0.100 
 100
AcDbEntity
8
engraving152
 6
CONTINUOUS
 100
AcDbLine
 10
24.264444444444
 20
21.499666666667
 30
 0.0
 11
24.132222222222
 21
21.499666666667
 31
0.0
0
ARC
  5
000000e9
 39
 0.100 
 100
AcDbEntity
8
engraving152
 6
CONTINUOUS
100
AcDbCircle
 10
24.264721313682
 20
21.846304091796
 30
 0
 40
0.346637535701
100
AcDbArc
 50
269.954236229956
 51
412.445993452739
0
LINE
  5
000000ea
 39
 0.100 
 100
AcDbEntity
8
engraving152
 6
CONTINUOUS
 100
AcDbLine
 10
23.801666666667
 20
22.795000000000
 30
 0.0
 11
23.801666666667
 21
22.464444444444
 31
0.0
0
ARC
  5
000000eb
 39
 0.100 
 100
AcDbEntity
8
engraving152
 6
CONTINUOUS
100
AcDbCircle
 10
23.602287302531
 20
22.793953969197
 30
 0
 40
0.197290075575
100
AcDbArc
 50
179.696216695818
 51
270.303783304180
0
LINE
  5
000000ec
 39
 0.100 
 100
AcDbEntity
8
engraving152
 6
CONTINUOUS
 100
AcDbLine
 10
24.595000000000
 20
22.596666666667
 30
 0.0
 11
23.603333333333
 21
22.596666666667
 31
0.0
0
LWPOLYLINE
  5
000000ed
 39
 0.100 
 100
AcDbEntity
8
engraving152
 6
CONTINUOUS
100
AcDbPolyline
 90
6
 70
8
 10
23.405000000000
 20
23.230666666667
 10
23.801666666667
 20
23.230666666667
 10
23.801666666667
 20
23.429000000000
 10
23.801666666667
 20
23.098444444444
 10
23.801666666667
 20
23.230666666667
 10
24.436333333333
 20
23.230666666667
0
ARC
  5
000000ee
 39
 0.100 
 100
AcDbEntity
8
engraving152
 6
CONTINUOUS
100
AcDbCircle
 10
24.436377467762
 20
23.391924816463
 30
 0
 40
0.161258155836
100
AcDbArc
 50
269.984318830121
 51
349.626823354407
0
LINE
  5
000000ef
 39
 0.100 
 100
AcDbEntity
8
engraving152
 6
CONTINUOUS
 100
AcDbLine
 10
23.000000000000
 20
28.949000000000
 30
 0.0
 11
23.000000000000
 21
41.949000000000
 31
0.0
0
ARC
  5
000000f0
 39
 0.100 
 100
AcDbEntity
8
engraving152
 6
CONTINUOUS
100
AcDbCircle
 10
24.000000000000
 20
28.949000000000
 30
 0
 40
1.000000000000
100
AcDbArc
 50
180.000000000000
 51
270.000000000000
0
LWPOLYLINE
  5
000000f1
 39
 0.100 
 100
AcDbEntity
8
engraving152
 6
CONTINUOUS
100
AcDbPolyline
 90
5
 70
8
 10
24.000000000000
 20
27.949000000000
 10
23.999000000000
 20
27.949000000000
 10
23.999000000000
 20
33.949000000000
 10
25.599000000000
 20
33.949000000000
 10
25.600000000000
 20
31.949000000000
0
ARC
  5
000000f2
 39
 0.100 
 100
AcDbEntity
8
engraving152
 6
CONTINUOUS
100
AcDbCircle
 10
26.600000000000
 20
31.949000000000
 30
 0
 40
1.000000000000
100
AcDbArc
 50
180.000000000000
 51
270.000000000000
0
LWPOLYLINE
  5
000000f3
 39
 0.100 
 100
AcDbEntity
8
engraving152
 6
CONTINUOUS
100
AcDbPolyline
 90
36
 70
8
 10
26.600000000000
 20
30.949000000000
 10
26.999000000000
 20
30.949000000000
 10
27.999000000000
 20
32.449000000000
 10
26.999000000000
 20
32.449000000000
 10
26.999000000000
 20
34.449000000000
 10
29.499000000000
 20
34.449000000000
 10
29.499000000000
 20
35.449000000000
 10
29.499000000000
 20
35.449000000000
 10
28.200000000000
 20
36.749000000000
 10
27.900000000000
 20
36.749000000000
 10
26.900000000000
 20
35.749000000000
 10
25.199000000000
 20
37.449000000000
 10
26.199000000000
 20
38.449000000000
 10
26.199000000000
 20
39.049000000000
 10
25.199000000000
 20
40.049000000000
 10
26.900000000000
 20
41.749000000000
 10
27.900000000000
 20
40.749000000000
 10
28.500000000000
 20
40.749000000000
 10
29.500000000000
 20
41.749000000000
 10
31.200000000000
 20
40.049000000000
 10
30.200000000000
 20
39.049000000000
 10
30.200000000000
 20
38.749000000000
 10
31.500000000000
 20
37.449000000000
 10
41.000000000000
 20
37.449000000000
 10
41.000000000000
 20
41.949000000000
 10
38.600000000000
 20
41.949000000000
 10
38.600000000000
 20
40.949000000000
 10
40.100000000000
 20
40.949000000000
 10
40.100000000000
 20
38.749000000000
 10
33.900000000000
 20
38.749000000000
 10
33.900000000000
 20
40.949000000000
 10
35.400000000000
 20
40.949000000000
 10
35.400000000000
 20
41.949000000000
 10
33.000000000000
 20
41.949000000000
 10
33.000000000000
 20
43.949000000000
 10
25.000000000000
 20
43.949000000000
0
ARC
  5
000000f4
 39
 0.100 
 100
AcDbEntity
8
engraving152
 6
CONTINUOUS
100
AcDbCircle
 10
25.000000000000
 20
41.949000000000
 30
 0
 40
2.000000000000
100
AcDbArc
 50
90.000000000000
 51
180.000000000000
0
LINE
  5
000000f5
 39
 0.100 
 100
AcDbEntity
8
engraving152
 6
CONTINUOUS
 100
AcDbLine
 10
460.000000000000
 20
28.949000000000
 30
 0.0
 11
460.000000000000
 21
41.949000000000
 31
0.0
0
ARC
  5
000000f6
 39
 0.100 
 100
AcDbEntity
8
engraving152
 6
CONTINUOUS
100
AcDbCircle
 10
459.000000000000
 20
28.949000000000
 30
 0
 40
1.000000000000
100
AcDbArc
 50
-90.000000000000
 51
0.000000000000
0
LWPOLYLINE
  5
000000f7
 39
 0.100 
 100
AcDbEntity
8
engraving152
 6
CONTINUOUS
100
AcDbPolyline
 90
5
 70
8
 10
459.000000000000
 20
27.949000000000
 10
459.001000000000
 20
27.949000000000
 10
459.001000000000
 20
33.949000000000
 10
457.401000000000
 20
33.949000000000
 10
457.400000000000
 20
31.949000000000
0
ARC
  5
000000f8
 39
 0.100 
 100
AcDbEntity
8
engraving152
 6
CONTINUOUS
100
AcDbCircle
 10
456.400000000000
 20
31.949000000000
 30
 0
 40
1.000000000000
100
AcDbArc
 50
-90.000000000000
 51
0.000000000000
0
LWPOLYLINE
  5
000000f9
 39
 0.100 
 100
AcDbEntity
8
engraving152
 6
CONTINUOUS
100
AcDbPolyline
 90
36
 70
8
 10
456.400000000000
 20
30.949000000000
 10
456.001000000000
 20
30.949000000000
 10
455.001000000000
 20
32.449000000000
 10
456.001000000000
 20
32.449000000000
 10
456.001000000000
 20
34.449000000000
 10
453.501000000000
 20
34.449000000000
 10
453.501000000000
 20
35.449000000000
 10
453.501000000000
 20
35.449000000000
 10
454.800000000000
 20
36.749000000000
 10
455.100000000000
 20
36.749000000000
 10
456.100000000000
 20
35.749000000000
 10
457.801000000000
 20
37.449000000000
 10
456.801000000000
 20
38.449000000000
 10
456.801000000000
 20
39.049000000000
 10
457.801000000000
 20
40.049000000000
 10
456.100000000000
 20
41.749000000000
 10
455.100000000000
 20
40.749000000000
 10
454.500000000000
 20
40.749000000000
 10
453.500000000000
 20
41.749000000000
 10
451.800000000000
 20
40.049000000000
 10
452.800000000000
 20
39.049000000000
 10
452.800000000000
 20
38.749000000000
 10
451.500000000000
 20
37.449000000000
 10
442.000000000000
 20
37.449000000000
 10
442.000000000000
 20
41.949000000000
 10
444.400000000000
 20
41.949000000000
 10
444.400000000000
 20
40.949000000000
 10
442.900000000000
 20
40.949000000000
 10
442.900000000000
 20
38.749000000000
 10
449.100000000000
 20
38.749000000000
 10
449.100000000000
 20
40.949000000000
 10
447.600000000000
 20
40.949000000000
 10
447.600000000000
 20
41.949000000000
 10
450.000000000000
 20
41.949000000000
 10
450.000000000000
 20
43.949000000000
 10
458.000000000000
 20
43.949000000000
0
ARC
  5
000000fa
 39
 0.100 
 100
AcDbEntity
8
engraving152
 6
CONTINUOUS
100
AcDbCircle
 10
458.000000000000
 20
41.949000000000
 30
 0
 40
2.000000000000
100
AcDbArc
 50
0.000000000000
 51
90.000000000000
0
LINE
  5
000000fb
 39
 0.100 
 100
AcDbEntity
8
engraving152
 6
CONTINUOUS
 100
AcDbLine
 10
460.000000000000
 20
15.000000000000
 30
 0.0
 11
460.000000000000
 21
2.000000000000
 31
0.0
0
ARC
  5
000000fc
 39
 0.100 
 100
AcDbEntity
8
engraving152
 6
CONTINUOUS
100
AcDbCircle
 10
459.000000000000
 20
15.000000000000
 30
 0
 40
1.000000000000
100
AcDbArc
 50
0.000000000000
 51
90.000000000000
0
LWPOLYLINE
  5
000000fd
 39
 0.100 
 100
AcDbEntity
8
engraving152
 6
CONTINUOUS
100
AcDbPolyline
 90
5
 70
8
 10
459.000000000000
 20
16.000000000000
 10
459.001000000000
 20
16.000000000000
 10
459.001000000000
 20
10.000000000000
 10
457.401000000000
 20
10.000000000000
 10
457.400000000000
 20
12.000000000000
0
ARC
  5
000000fe
 39
 0.100 
 100
AcDbEntity
8
engraving152
 6
CONTINUOUS
100
AcDbCircle
 10
456.400000000000
 20
12.000000000000
 30
 0
 40
1.000000000000
100
AcDbArc
 50
0.000000000000
 51
90.000000000000
0
LWPOLYLINE
  5
000000ff
 39
 0.100 
 100
AcDbEntity
8
engraving152
 6
CONTINUOUS
100
AcDbPolyline
 90
36
 70
8
 10
456.400000000000
 20
13.000000000000
 10
456.001000000000
 20
13.000000000000
 10
455.001000000000
 20
11.500000000000
 10
456.001000000000
 20
11.500000000000
 10
456.001000000000
 20
9.500000000000
 10
453.501000000000
 20
9.500000000000
 10
453.501000000000
 20
8.500000000000
 10
453.501000000000
 20
8.500000000000
 10
454.800000000000
 20
7.200000000000
 10
455.100000000000
 20
7.200000000000
 10
456.100000000000
 20
8.200000000000
 10
457.801000000000
 20
6.500000000000
 10
456.801000000000
 20
5.500000000000
 10
456.801000000000
 20
4.900000000000
 10
457.801000000000
 20
3.900000000000
 10
456.100000000000
 20
2.200000000000
 10
455.100000000000
 20
3.200000000000
 10
454.500000000000
 20
3.200000000000
 10
453.500000000000
 20
2.200000000000
 10
451.800000000000
 20
3.900000000000
 10
452.800000000000
 20
4.900000000000
 10
452.800000000000
 20
5.200000000000
 10
451.500000000000
 20
6.500000000000
 10
442.000000000000
 20
6.500000000000
 10
442.000000000000
 20
2.000000000000
 10
444.400000000000
 20
2.000000000000
 10
444.400000000000
 20
3.000000000000
 10
442.900000000000
 20
3.000000000000
 10
442.900000000000
 20
5.200000000000
 10
449.100000000000
 20
5.200000000000
 10
449.100000000000
 20
3.000000000000
 10
447.600000000000
 20
3.000000000000
 10
447.600000000000
 20
2.000000000000
 10
450.000000000000
 20
2.000000000000
 10
450.000000000000
 20
0.000000000000
 10
458.000000000000
 20
0.000000000000
0
ARC
  5
00000100
 39
 0.100 
 100
AcDbEntity
8
engraving152
 6
CONTINUOUS
100
AcDbCircle
 10
458.000000000000
 20
2.000000000000
 30
 0
 40
2.000000000000
100
AcDbArc
 50
270.000000000000
 51
360.000000000000
0
LINE
  5
00000101
 39
 0.100 
 100
AcDbEntity
8
engraving152
 6
CONTINUOUS
 100
AcDbLine
 10
23.000000000000
 20
15.000000000000
 30
 0.0
 11
23.000000000000
 21
2.000000000000
 31
0.0
0
ARC
  5
00000102
 39
 0.100 
 100
AcDbEntity
8
engraving152
 6
CONTINUOUS
100
AcDbCircle
 10
24.000000000000
 20
15.000000000000
 30
 0
 40
1.000000000000
100
AcDbArc
 50
90.000000000000
 51
180.000000000000
0
LWPOLYLINE
  5
00000103
 39
 0.100 
 100
AcDbEntity
8
engraving152
 6
CONTINUOUS
100
AcDbPolyline
 90
5
 70
8
 10
24.000000000000
 20
16.000000000000
 10
23.999000000000
 20
16.000000000000
 10
23.999000000000
 20
10.000000000000
 10
25.599000000000
 20
10.000000000000
 10
25.600000000000
 20
12.000000000000
0
ARC
  5
00000104
 39
 0.100 
 100
AcDbEntity
8
engraving152
 6
CONTINUOUS
100
AcDbCircle
 10
26.600000000000
 20
12.000000000000
 30
 0
 40
1.000000000000
100
AcDbArc
 50
90.000000000000
 51
180.000000000000
0
LWPOLYLINE
  5
00000105
 39
 0.100 
 100
AcDbEntity
8
engraving152
 6
CONTINUOUS
100
AcDbPolyline
 90
36
 70
8
 10
26.600000000000
 20
13.000000000000
 10
26.999000000000
 20
13.000000000000
 10
27.999000000000
 20
11.500000000000
 10
26.999000000000
 20
11.500000000000
 10
26.999000000000
 20
9.500000000000
 10
29.499000000000
 20
9.500000000000
 10
29.499000000000
 20
8.500000000000
 10
29.499000000000
 20
8.500000000000
 10
28.200000000000
 20
7.200000000000
 10
27.900000000000
 20
7.200000000000
 10
26.900000000000
 20
8.200000000000
 10
25.199000000000
 20
6.500000000000
 10
26.199000000000
 20
5.500000000000
 10
26.199000000000
 20
4.900000000000
 10
25.199000000000
 20
3.900000000000
 10
26.900000000000
 20
2.200000000000
 10
27.900000000000
 20
3.200000000000
 10
28.500000000000
 20
3.200000000000
 10
29.500000000000
 20
2.200000000000
 10
31.200000000000
 20
3.900000000000
 10
30.200000000000
 20
4.900000000000
 10
30.200000000000
 20
5.200000000000
 10
31.500000000000
 20
6.500000000000
 10
41.000000000000
 20
6.500000000000
 10
41.000000000000
 20
2.000000000000
 10
38.600000000000
 20
2.000000000000
 10
38.600000000000
 20
3.000000000000
 10
40.100000000000
 20
3.000000000000
 10
40.100000000000
 20
5.200000000000
 10
33.900000000000
 20
5.200000000000
 10
33.900000000000
 20
3.000000000000
 10
35.400000000000
 20
3.000000000000
 10
35.400000000000
 20
2.000000000000
 10
33.000000000000
 20
2.000000000000
 10
33.000000000000
 20
0.000000000000
 10
25.000000000000
 20
0.000000000000
0
ARC
  5
00000106
 39
 0.100 
 100
AcDbEntity
8
engraving152
 6
CONTINUOUS
100
AcDbCircle
 10
25.000000000000
 20
2.000000000000
 30
 0
 40
2.000000000000
100
AcDbArc
 50
180.000000000000
 51
270.000000000000
0
ARC
  5
00000107
 39
 0.100 
 100
AcDbEntity
8
contour152
 6
CONTINUOUS
100
AcDbCircle
 10
96.002553390593
 20
11.958553390593
 30
 0
 40
0.500000000000
100
AcDbArc
 50
135.000000000000
 51
315.000000000000
0
LINE
  5
00000108
 39
 0.100 
 100
AcDbEntity
8
contour152
 6
CONTINUOUS
 100
AcDbLine
 10
109.641893218813
 20
11.605000000000
 30
 0.0
 11
96.356106781187
 21
11.605000000000
 31
0.0
0
ARC
  5
00000109
 39
 0.100 
 100
AcDbEntity
8
contour152
 6
CONTINUOUS
100
AcDbCircle
 10
109.995446609407
 20
11.958553390593
 30
 0
 40
0.500000000000
100
AcDbArc
 50
225.000000000001
 51
405.000000000001
0
LINE
  5
0000010a
 39
 0.100 
 100
AcDbEntity
8
contour152
 6
CONTINUOUS
 100
AcDbLine
 10
110.349000000000
 20
31.647893218813
 30
 0.0
 11
110.349000000000
 21
12.312106781187
 31
0.0
0
ARC
  5
0000010b
 39
 0.100 
 100
AcDbEntity
8
contour152
 6
CONTINUOUS
100
AcDbCircle
 10
109.995446609407
 20
32.001446609407
 30
 0
 40
0.500000000000
100
AcDbArc
 50
315.000000000000
 51
495.000000000000
0
LINE
  5
0000010c
 39
 0.100 
 100
AcDbEntity
8
contour152
 6
CONTINUOUS
 100
AcDbLine
 10
96.356106781187
 20
32.355000000000
 30
 0.0
 11
109.641893218813
 21
32.355000000000
 31
0.0
0
ARC
  5
0000010d
 39
 0.100 
 100
AcDbEntity
8
contour152
 6
CONTINUOUS
100
AcDbCircle
 10
96.002553390593
 20
32.001446609407
 30
 0
 40
0.500000000000
100
AcDbArc
 50
45.000000000001
 51
225.000000000001
0
LINE
  5
0000010e
 39
 0.100 
 100
AcDbEntity
8
contour152
 6
CONTINUOUS
 100
AcDbLine
 10
95.649000000000
 20
12.312106781187
 30
 0.0
 11
95.649000000000
 21
31.647893218813
 31
0.0
0
LWPOLYLINE
  5
0000010f
 39
 0.100 
 100
AcDbEntity
8
engraving007
 6
CONTINUOUS
100
AcDbPolyline
 90
19
 70
8
 10
192.239021739130
 20
24.203315217391
 10
192.239021739130
 20
19.397228260870
 10
192.539402173913
 20
19.397228260870
 10
192.539402173913
 20
24.143239130435
 10
195.182750000000
 20
24.143239130435
 10
195.182750000000
 20
24.443619565217
 10
189.295293478261
 20
24.443619565217
 10
189.295293478261
 20
24.143239130435
 10
191.938641304348
 20
24.143239130435
 10
191.938641304348
 20
19.397228260870
 10
191.638260869565
 20
19.217000000000
 10
192.839782608696
 20
19.217000000000
 10
192.839782608696
 20
23.902934782609
 10
195.423054347826
 20
23.902934782609
 10
195.423054347826
 20
24.744000000000
 10
189.054989130435
 20
24.744000000000
 10
189.054989130435
 20
23.902934782609
 10
191.638260869565
 20
23.902934782609
 10
191.638260869565
 20
19.217000000000
0
LWPOLYLINE
  5
00000110
 39
 0.100 
 100
AcDbEntity
8
engraving007
 6
CONTINUOUS
100
AcDbPolyline
 90
27
 70
8
 10
197.346445652174
 20
24.564771739130
 10
197.346445652174
 20
19.458304347826
 10
202.512989130435
 20
19.458304347826
 10
202.512989130435
 20
19.758684782609
 10
197.947206521739
 20
19.758684782609
 10
197.947206521739
 20
21.921423913043
 10
202.392836956522
 20
21.921423913043
 10
202.392836956522
 20
22.161728260870
 10
197.947206521739
 20
22.161728260870
 10
197.947206521739
 20
24.144239130435
 10
202.512989130435
 20
24.144239130435
 10
202.512989130435
 20
24.444619565217
 10
197.646826086957
 20
24.444619565217
 10
197.646826086957
 20
19.638532608696
 10
197.106141304348
 20
19.218000000000
 10
202.873445652174
 20
19.218000000000
 10
202.873445652174
 20
20.059065217391
 10
198.247586956522
 20
20.059065217391
 10
198.247586956522
 20
21.681119565217
 10
202.693217391304
 20
21.681119565217
 10
202.693217391304
 20
22.402032608696
 10
198.247586956522
 20
22.402032608696
 10
198.247586956522
 20
23.903934782609
 10
202.873445652174
 20
23.903934782609
 10
202.873445652174
 20
24.745000000000
 10
197.106141304348
 20
24.745000000000
 10
197.106141304348
 20
19.218000000000
0
ARC
  5
00000111
 39
 0.100 
 100
AcDbEntity
8
engraving007
 6
CONTINUOUS
100
AcDbCircle
 10
206.351275146692
 20
20.482836515649
 30
 0
 40
0.665196771765
100
AcDbArc
 50
190.602367645352
 51
265.423207363016
0
ARC
  5
00000112
 39
 0.100 
 100
AcDbEntity
8
engraving007
 6
CONTINUOUS
100
AcDbCircle
 10
207.980326086957
 20
55.404987390163
 30
 0
 40
35.624961885199
100
AcDbArc
 50
267.293616092441
 51
272.706383907559
0
ARC
  5
00000113
 39
 0.100 
 100
AcDbEntity
8
engraving007
 6
CONTINUOUS
100
AcDbCircle
 10
209.690724043870
 20
20.553932550007
 30
 0
 40
0.734715665527
100
AcDbArc
 50
267.795052384681
 51
329.425866947249
0
ARC
  5
00000114
 39
 0.100 
 100
AcDbEntity
8
engraving007
 6
CONTINUOUS
100
AcDbCircle
 10
209.063247223554
 20
20.867582434098
 30
 0
 40
1.435335245180
100
AcDbArc
 50
331.387189391726
 51
375.932427116453
0
ARC
  5
00000115
 39
 0.100 
 100
AcDbEntity
8
engraving007
 6
CONTINUOUS
100
AcDbCircle
 10
209.772750339617
 20
21.046565089921
 30
 0
 40
0.704319959537
100
AcDbArc
 50
17.775614080707
 51
99.009381426795
0
LINE
  5
00000116
 39
 0.100 
 100
AcDbEntity
8
engraving007
 6
CONTINUOUS
 100
AcDbLine
 10
205.817586956522
 20
21.922423913043
 30
 0.0
 11
209.662456521739
 21
21.742195652174
 31
0.0
0
ARC
  5
00000117
 39
 0.100 
 100
AcDbEntity
8
engraving007
 6
CONTINUOUS
100
AcDbCircle
 10
205.885559173623
 20
22.830474331268
 30
 0
 40
0.910590898448
100
AcDbArc
 50
176.652748619084
 51
265.719101712333
0
LINE
  5
00000118
 39
 0.100 
 100
AcDbEntity
8
engraving007
 6
CONTINUOUS
 100
AcDbLine
 10
204.976521739130
 20
23.724706521739
 30
 0.0
 11
204.976521739130
 21
22.883641304348
 31
0.0
0
ARC
  5
00000119
 39
 0.100 
 100
AcDbEntity
8
engraving007
 6
CONTINUOUS
100
AcDbCircle
 10
205.920230255975
 20
23.596263362001
 30
 0
 40
0.952409266045
100
AcDbArc
 50
107.277883485332
 51
172.249399896122
0
ARC
  5
0000011a
 39
 0.100 
 100
AcDbEntity
8
engraving007
 6
CONTINUOUS
100
AcDbCircle
 10
208.366592856684
 20
-11.192833816544
 30
 0
 40
35.802705558864
100
AcDbArc
 50
87.155908228529
 51
94.371888693331
0
ARC
  5
0000011b
 39
 0.100 
 100
AcDbEntity
8
engraving007
 6
CONTINUOUS
100
AcDbCircle
 10
210.093560127577
 20
23.555049258012
 30
 0
 40
1.011934132123
100
AcDbArc
 50
2.804100822023
 51
87.195899177980
0
LWPOLYLINE
  5
0000011c
 39
 0.100 
 100
AcDbEntity
8
engraving007
 6
CONTINUOUS
100
AcDbPolyline
 90
3
 70
8
 10
211.104282608696
 20
23.604554347826
 10
210.863978260870
 20
23.604554347826
 10
210.743826086957
 20
23.844858695652
0
ARC
  5
0000011d
 39
 0.100 
 100
AcDbEntity
8
engraving007
 6
CONTINUOUS
100
AcDbCircle
 10
208.603674619137
 20
22.185315923485
 30
 0
 40
2.708196912682
100
AcDbArc
 50
37.791158921648
 51
52.208841078351
0
ARC
  5
0000011e
 39
 0.100 
 100
AcDbEntity
8
engraving007
 6
CONTINUOUS
100
AcDbCircle
 10
208.070440217391
 20
-10.450338320567
 30
 0
 40
34.844869559868
100
AcDbArc
 50
86.392009767599
 51
93.607990232401
0
ARC
  5
0000011f
 39
 0.100 
 100
AcDbEntity
8
engraving007
 6
CONTINUOUS
100
AcDbCircle
 10
206.181584520957
 20
23.461425942681
 30
 0
 40
0.915934435105
100
AcDbArc
 50
109.379021626452
 51
171.009836189020
0
LINE
  5
00000120
 39
 0.100 
 100
AcDbEntity
8
engraving007
 6
CONTINUOUS
 100
AcDbLine
 10
205.276902173913
 20
22.823565217391
 30
 0.0
 11
205.276902173913
 21
23.604554347826
 31
0.0
0
ARC
  5
00000121
 39
 0.100 
 100
AcDbEntity
8
engraving007
 6
CONTINUOUS
100
AcDbCircle
 10
206.064538123579
 20
22.936106298115
 30
 0
 40
0.795635522119
100
AcDbArc
 50
188.131646423456
 51
256.415731588731
0
ARC
  5
00000122
 39
 0.100 
 100
AcDbEntity
8
engraving007
 6
CONTINUOUS
100
AcDbCircle
 10
209.766525333790
 20
64.012345386854
 30
 0
 40
42.029914388498
100
AcDbArc
 50
264.691053889941
 51
270.103821705060
0
ARC
  5
00000123
 39
 0.100 
 100
AcDbEntity
8
engraving007
 6
CONTINUOUS
100
AcDbCircle
 10
209.865813712210
 20
21.103994117119
 30
 0
 40
0.878810294455
100
AcDbArc
 50
2.441757464258
 51
91.508110557508
0
ARC
  5
00000124
 39
 0.100 
 100
AcDbEntity
8
engraving007
 6
CONTINUOUS
100
AcDbCircle
 10
204.074493484680
 20
20.720902173913
 30
 0
 40
6.682577723810
100
AcDbArc
 50
-3.607990232401
 51
3.607990232401
0
ARC
  5
00000125
 39
 0.100 
 100
AcDbEntity
8
engraving007
 6
CONTINUOUS
100
AcDbCircle
 10
209.968055494147
 20
20.425277301383
 30
 0
 40
0.785762022003
100
AcDbArc
 50
269.619474636230
 51
350.853241982318
0
ARC
  5
00000126
 39
 0.100 
 100
AcDbEntity
8
engraving007
 6
CONTINUOUS
100
AcDbCircle
 10
208.040402173913
 20
60.308362917950
 30
 0
 40
40.714242154513
100
AcDbArc
 50
267.293616092441
 51
272.706383907559
0
ARC
  5
00000127
 39
 0.100 
 100
AcDbEntity
8
engraving007
 6
CONTINUOUS
100
AcDbCircle
 10
206.114165220298
 20
20.356643481168
 30
 0
 40
0.717120952087
100
AcDbArc
 50
179.696216695819
 51
270.303783304183
0
LWPOLYLINE
  5
00000128
 39
 0.100 
 100
AcDbEntity
8
engraving007
 6
CONTINUOUS
100
AcDbPolyline
 90
3
 70
8
 10
205.397054347826
 20
20.360445652174
 10
205.036597826087
 20
20.360445652174
 10
205.036597826087
 20
20.120141304348
0
ARC
  5
00000129
 39
 0.100 
 100
AcDbEntity
8
engraving007
 6
CONTINUOUS
100
AcDbCircle
 10
205.915992072781
 20
20.355836707856
 30
 0
 40
0.910432075640
100
AcDbArc
 50
195.003794716603
 51
259.975311127394
0
ARC
  5
0000012a
 39
 0.100 
 100
AcDbEntity
8
engraving007
 6
CONTINUOUS
100
AcDbCircle
 10
207.980326086956
 20
42.931591285804
 30
 0
 40
23.577301830138
100
AcDbArc
 50
264.590248028529
 51
275.409751971471
0
ARC
  5
0000012b
 39
 0.100 
 100
AcDbEntity
8
engraving007
 6
CONTINUOUS
100
AcDbCircle
 10
210.247499759484
 20
20.254909539953
 30
 0
 40
0.796840821169
100
AcDbArc
 50
266.808814624968
 51
358.948992581710
0
ARC
  5
0000012c
 39
 0.100 
 100
AcDbEntity
8
engraving007
 6
CONTINUOUS
100
AcDbCircle
 10
203.045477627525
 20
20.871092391304
 30
 0
 40
8.023563497090
100
AcDbArc
 50
355.490850068130
 51
364.509149931870
0
ARC
  5
0000012d
 39
 0.100 
 100
AcDbEntity
8
engraving007
 6
CONTINUOUS
100
AcDbCircle
 10
210.181950388380
 20
21.188981700547
 30
 0
 40
0.917277525979
100
AcDbArc
 50
19.945649765777
 51
84.917166176567
0
LINE
  5
0000012e
 39
 0.100 
 100
AcDbEntity
8
engraving007
 6
CONTINUOUS
 100
AcDbLine
 10
206.057891304348
 20
22.342956521739
 30
 0.0
 11
210.263217391304
 21
22.102652173913
 31
0.0
0
ARC
  5
0000012f
 39
 0.100 
 100
AcDbEntity
8
engraving007
 6
CONTINUOUS
100
AcDbCircle
 10
206.290584558985
 20
22.953408647811
 30
 0
 40
0.653297749100
100
AcDbArc
 50
180.849977615922
 51
249.134062781199
0
LINE
  5
00000130
 39
 0.100 
 100
AcDbEntity
8
engraving007
 6
CONTINUOUS
 100
AcDbLine
 10
205.637358695652
 20
23.544478260870
 30
 0.0
 11
205.637358695652
 21
22.943717391304
 31
0.0
0
ARC
  5
00000131
 39
 0.100 
 100
AcDbEntity
8
engraving007
 6
CONTINUOUS
100
AcDbCircle
 10
206.346379651283
 20
23.398183667459
 30
 0
 40
0.723956368564
100
AcDbArc
 50
108.391336721315
 51
168.341584605543
0
ARC
  5
00000132
 39
 0.100 
 100
AcDbEntity
8
engraving007
 6
CONTINUOUS
100
AcDbCircle
 10
208.070440217391
 20
-0.672807343376
 30
 0
 40
24.834839395755
100
AcDbArc
 50
85.490850068130
 51
94.509149931870
0
ARC
  5
00000133
 39
 0.100 
 100
AcDbEntity
8
engraving007
 6
CONTINUOUS
100
AcDbCircle
 10
209.573480643936
 20
23.201721321180
 30
 0
 40
0.991190576254
100
AcDbArc
 50
20.230837888774
 51
63.036240784371
0
LINE
  5
00000134
 39
 0.100 
 100
AcDbEntity
8
engraving007
 6
CONTINUOUS
 100
AcDbLine
 10
210.203141304348
 20
23.424326086957
 30
 0.0
 11
210.503521739130
 21
23.544478260870
 31
0.0
0
ARC
  5
00000135
 39
 0.100 
 100
AcDbEntity
8
engraving007
 6
CONTINUOUS
100
AcDbCircle
 10
209.477074613957
 20
23.116215181805
 30
 0
 40
0.788736438088
100
AcDbArc
 50
22.994241360862
 51
89.625623587176
0
LINE
  5
00000136
 39
 0.100 
 100
AcDbEntity
8
engraving007
 6
CONTINUOUS
 100
AcDbLine
 10
206.598576086957
 20
23.904934782609
 30
 0.0
 11
209.482228260870
 21
23.904934782609
 31
0.0
0
ARC
  5
00000137
 39
 0.100 
 100
AcDbEntity
8
engraving007
 6
CONTINUOUS
100
AcDbCircle
 10
206.621651211580
 20
23.184021739130
 30
 0
 40
0.721282245472
100
AcDbArc
 50
91.833308512770
 51
268.166691487230
0
LINE
  5
00000138
 39
 0.100 
 100
AcDbEntity
8
engraving007
 6
CONTINUOUS
 100
AcDbLine
 10
210.383369565217
 20
22.342956521739
 30
 0.0
 11
206.598576086957
 21
22.463108695652
 31
0.0
0
ARC
  5
00000139
 39
 0.100 
 100
AcDbEntity
8
engraving007
 6
CONTINUOUS
100
AcDbCircle
 10
210.329373434259
 20
21.268997917380
 30
 0
 40
1.075315147311
100
AcDbArc
 50
-0.394879716767
 51
87.121725633533
0
LINE
  5
0000013a
 39
 0.100 
 100
AcDbEntity
8
engraving007
 6
CONTINUOUS
 100
AcDbLine
 10
211.404663043478
 20
20.300369565217
 30
 0.0
 11
211.404663043478
 21
21.261586956522
 31
0.0
0
ARC
  5
0000013b
 39
 0.100 
 100
AcDbEntity
8
engraving007
 6
CONTINUOUS
100
AcDbCircle
 10
210.327676339177
 20
20.289798568075
 30
 0
 40
1.077038582050
100
AcDbArc
 50
-83.829438514548
 51
0.562359841408
0
ARC
  5
0000013c
 39
 0.100 
 100
AcDbEntity
8
engraving007
 6
CONTINUOUS
100
AcDbCircle
 10
208.040402173913
 20
44.594445338354
 30
 0
 40
25.488974951501
100
AcDbArc
 50
264.590248028529
 51
275.409751971471
0
ARC
  5
0000013d
 39
 0.100 
 100
AcDbEntity
8
engraving007
 6
CONTINUOUS
100
AcDbCircle
 10
205.753128008650
 20
20.289798568075
 30
 0
 40
1.077038582050
100
AcDbArc
 50
179.437640158593
 51
263.829438514550
0
LWPOLYLINE
  5
0000013e
 39
 0.100 
 100
AcDbEntity
8
engraving007
 6
CONTINUOUS
100
AcDbPolyline
 90
3
 70
8
 10
204.676141304348
 20
20.300369565217
 10
204.676141304348
 20
20.540673913043
 10
205.877663043478
 20
20.540673913043
0
ARC
  5
0000013f
 39
 0.100 
 100
AcDbEntity
8
engraving007
 6
CONTINUOUS
100
AcDbCircle
 10
206.603729733869
 20
20.848784818195
 30
 0
 40
0.788736438088
100
AcDbArc
 50
202.994241360863
 51
269.625623587178
0
LINE
  5
00000140
 39
 0.100 
 100
AcDbEntity
8
engraving007
 6
CONTINUOUS
 100
AcDbLine
 10
209.482228260870
 20
20.060065217391
 30
 0.0
 11
206.598576086957
 21
20.060065217391
 31
0.0
0
ARC
  5
00000141
 39
 0.100 
 100
AcDbEntity
8
engraving007
 6
CONTINUOUS
100
AcDbCircle
 10
209.458191672720
 20
20.811016304348
 30
 0
 40
0.751335672367
100
AcDbArc
 50
271.833308512769
 51
448.166691487229
0
LINE
  5
00000142
 39
 0.100 
 100
AcDbEntity
8
engraving007
 6
CONTINUOUS
 100
AcDbLine
 10
205.697434782609
 20
21.682119565217
 30
 0.0
 11
209.482228260870
 21
21.561967391304
 31
0.0
0
ARC
  5
00000143
 39
 0.100 
 100
AcDbEntity
8
engraving007
 6
CONTINUOUS
100
AcDbCircle
 10
205.751430913567
 20
22.756078169577
 30
 0
 40
1.075315147311
100
AcDbArc
 50
179.605120283232
 51
267.121725633533
0
LINE
  5
00000144
 39
 0.100 
 100
AcDbEntity
8
engraving007
 6
CONTINUOUS
 100
AcDbLine
 10
204.676141304348
 20
23.664630434783
 30
 0.0
 11
204.676141304348
 21
22.763489130435
 31
0.0
0
ARC
  5
00000145
 39
 0.100 
 100
AcDbEntity
8
engraving007
 6
CONTINUOUS
100
AcDbCircle
 10
205.753128008650
 20
23.675201431925
 30
 0
 40
1.077038582050
100
AcDbArc
 50
96.170561485451
 51
180.562359841407
0
ARC
  5
00000146
 39
 0.100 
 100
AcDbEntity
8
engraving007
 6
CONTINUOUS
100
AcDbCircle
 10
208.040402173913
 20
-0.629445338354
 30
 0
 40
25.488974951501
100
AcDbArc
 50
84.590248028529
 51
95.409751971471
0
ARC
  5
00000147
 39
 0.100 
 100
AcDbEntity
8
engraving007
 6
CONTINUOUS
100
AcDbCircle
 10
210.327676339177
 20
23.675201431925
 30
 0
 40
1.077038582050
100
AcDbArc
 50
-0.562359841408
 51
83.829438514548
0
LWPOLYLINE
  5
00000148
 39
 0.100 
 100
AcDbEntity
8
engraving007
 6
CONTINUOUS
100
AcDbPolyline
 90
3
 70
8
 10
211.404663043478
 20
23.664630434783
 10
211.404663043478
 20
23.424326086957
 10
210.203141304348
 20
23.424326086957
0
LINE
  5
00000149
 39
 0.100 
 100
AcDbEntity
8
engraving007
 6
CONTINUOUS
 100
AcDbLine
 10
223.600456521739
 20
21.682119565217
 30
 0.0
 11
219.755586956522
 21
21.682119565217
 31
0.0
0
ARC
  5
0000014a
 39
 0.100 
 100
AcDbEntity
8
engraving007
 6
CONTINUOUS
100
AcDbCircle
 10
223.600456521739
 20
20.871092391304
 30
 0
 40
0.811027173913
100
AcDbArc
 50
-90.000000000000
 51
90.000000000000
0
LWPOLYLINE
  5
0000014b
 39
 0.100 
 100
AcDbEntity
8
engraving007
 6
CONTINUOUS
100
AcDbPolyline
 90
6
 70
8
 10
223.600456521739
 20
20.060065217391
 10
219.755586956522
 20
20.060065217391
 10
219.755586956522
 20
21.682119565217
 10
219.755586956522
 20
22.403032608696
 10
219.755586956522
 20
23.904934782609
 10
223.300076086957
 20
23.904934782609
0
ARC
  5
0000014c
 39
 0.100 
 100
AcDbEntity
8
engraving007
 6
CONTINUOUS
100
AcDbCircle
 10
223.300076086957
 20
23.153983695652
 30
 0
 40
0.750951086957
100
AcDbArc
 50
-90.000000000000
 51
90.000000000000
0
LWPOLYLINE
  5
0000014d
 39
 0.100 
 100
AcDbEntity
8
engraving007
 6
CONTINUOUS
100
AcDbPolyline
 90
5
 70
8
 10
223.300076086957
 20
22.403032608696
 10
219.755586956522
 20
22.403032608696
 10
219.755586956522
 20
23.904934782609
 10
219.455206521739
 20
24.145239130435
 10
223.540380434783
 20
24.145239130435
0
ARC
  5
0000014e
 39
 0.100 
 100
AcDbEntity
8
engraving007
 6
CONTINUOUS
100
AcDbCircle
 10
223.500665939596
 20
23.304375650714
 30
 0
 40
0.841800827189
100
AcDbArc
 50
-25.368381826569
 51
87.295894890715
0
ARC
  5
0000014f
 39
 0.100 
 100
AcDbEntity
8
engraving007
 6
CONTINUOUS
100
AcDbCircle
 10
223.030296450200
 20
23.426030662326
 30
 0
 40
1.322111861568
100
AcDbArc
 50
287.153401565422
 51
338.604405641255
0
LWPOLYLINE
  5
00000150
 39
 0.100 
 100
AcDbEntity
8
engraving007
 6
CONTINUOUS
100
AcDbPolyline
 90
4
 70
8
 10
223.420228260870
 20
22.162728260870
 10
219.875739130435
 20
22.162728260870
 10
219.875739130435
 20
21.862347826087
 10
223.720608695652
 20
21.862347826087
0
ARC
  5
00000151
 39
 0.100 
 100
AcDbEntity
8
engraving007
 6
CONTINUOUS
100
AcDbCircle
 10
223.726229861142
 20
20.840336204356
 30
 0
 40
1.022027080099
100
AcDbArc
 50
-86.945760668084
 51
90.315129303879
0
LWPOLYLINE
  5
00000152
 39
 0.100 
 100
AcDbEntity
8
engraving007
 6
CONTINUOUS
100
AcDbPolyline
 90
5
 70
8
 10
223.780684782609
 20
19.819760869565
 10
219.455206521739
 20
19.819760869565
 10
219.455206521739
 20
24.145239130435
 10
219.214902173913
 20
24.325467391304
 10
223.900836956522
 20
24.325467391304
0
ARC
  5
00000153
 39
 0.100 
 100
AcDbEntity
8
engraving007
 6
CONTINUOUS
100
AcDbCircle
 10
223.745923096298
 20
23.414848391573
 30
 0
 40
0.923701936103
100
AcDbArc
 50
-35.105581928525
 51
80.345311824603
0
ARC
  5
00000154
 39
 0.100 
 100
AcDbEntity
8
engraving007
 6
CONTINUOUS
100
AcDbCircle
 10
222.433368156596
 20
24.198331306583
 30
 0
 40
2.450710869878
100
AcDbArc
 50
295.289802165416
 51
327.557529084589
0
ARC
  5
00000155
 39
 0.100 
 100
AcDbEntity
8
engraving007
 6
CONTINUOUS
100
AcDbCircle
 10
223.609297865620
 20
20.153738411095
 30
 0
 40
1.833305287366
100
AcDbArc
 50
56.478142040866
 51
94.034732286191
0
ARC
  5
00000156
 39
 0.100 
 100
AcDbEntity
8
engraving007
 6
CONTINUOUS
100
AcDbCircle
 10
223.943105285602
 20
20.768906113658
 30
 0
 40
1.137768630473
100
AcDbArc
 50
-83.035472603531
 51
53.382512662818
0
LWPOLYLINE
  5
00000157
 39
 0.100 
 100
AcDbEntity
8
engraving007
 6
CONTINUOUS
100
AcDbPolyline
 90
4
 70
8
 10
224.081065217391
 20
19.639532608696
 10
219.154826086957
 20
19.639532608696
 10
219.154826086957
 20
24.565771739130
 10
223.900836956522
 20
24.565771739130
0
ARC
  5
00000158
 39
 0.100 
 100
AcDbEntity
8
engraving007
 6
CONTINUOUS
100
AcDbCircle
 10
223.826303582891
 20
23.206508880734
 30
 0
 40
1.361304793938
100
AcDbArc
 50
51.063572806161
 51
86.861405142996
0
ARC
  5
00000159
 39
 0.100 
 100
AcDbEntity
8
engraving007
 6
CONTINUOUS
100
AcDbCircle
 10
223.752439311970
 20
23.444256011370
 30
 0
 40
1.240170531377
100
AcDbArc
 50
7.426548147877
 51
41.461361412958
0
ARC
  5
0000015a
 39
 0.100 
 100
AcDbEntity
8
engraving007
 6
CONTINUOUS
100
AcDbCircle
 10
224.012010830195
 20
23.464118216364
 30
 0
 40
0.980307088065
100
AcDbArc
 50
-36.308862330290
 51
8.236375394437
0
ARC
  5
0000015b
 39
 0.100 
 100
AcDbEntity
8
engraving007
 6
CONTINUOUS
100
AcDbCircle
 10
223.143649209896
 20
24.093478589704
 30
 0
 40
2.052744869277
100
AcDbArc
 50
289.852491013303
 51
323.887304278385
0
ARC
  5
0000015c
 39
 0.100 
 100
AcDbEntity
8
engraving007
 6
CONTINUOUS
100
AcDbCircle
 10
223.391982790230
 20
19.771299160796
 30
 0
 40
2.433173833735
100
AcDbArc
 50
45.336618003721
 51
79.371431268803
0
ARC
  5
0000015d
 39
 0.100 
 100
AcDbEntity
8
engraving007
 6
CONTINUOUS
100
AcDbCircle
 10
223.902388527901
 20
20.667846001369
 30
 0
 40
1.461355525159
100
AcDbArc
 50
-9.743811153212
 51
34.801426571514
0
ARC
  5
0000015e
 39
 0.100 
 100
AcDbEntity
8
engraving007
 6
CONTINUOUS
100
AcDbCircle
 10
224.159505027779
 20
20.594361388391
 30
 0
 40
1.195860825418
100
AcDbArc
 50
271.998917617993
 51
351.641422142278
0
LWPOLYLINE
  5
0000015f
 39
 0.100 
 100
AcDbEntity
8
engraving007
 6
CONTINUOUS
100
AcDbPolyline
 90
5
 70
8
 10
224.201217391304
 20
19.399228260870
 10
218.854445652174
 20
19.399228260870
 10
218.854445652174
 20
24.565771739130
 10
218.554065217391
 20
24.746000000000
 10
224.201217391304
 20
24.746000000000
0
ARC
  5
00000160
 39
 0.100 
 100
AcDbEntity
8
engraving007
 6
CONTINUOUS
100
AcDbCircle
 10
224.206920647814
 20
23.670333691292
 30
 0
 40
1.075681428130
100
AcDbArc
 50
-0.303783304180
 51
90.303783304183
0
LINE
  5
00000161
 39
 0.100 
 100
AcDbEntity
8
engraving007
 6
CONTINUOUS
 100
AcDbLine
 10
225.282586956522
 20
23.364250000000
 30
 0.0
 11
225.282586956522
 21
23.664630434783
 31
0.0
0
ARC
  5
00000162
 39
 0.100 
 100
AcDbEntity
8
engraving007
 6
CONTINUOUS
100
AcDbCircle
 10
223.707297874111
 20
23.738017343280
 30
 0
 40
1.619023693485
100
AcDbArc
 50
283.347691847656
 51
346.652308152346
0
ARC
  5
00000163
 39
 0.100 
 100
AcDbEntity
8
engraving007
 6
CONTINUOUS
100
AcDbCircle
 10
224.063509236787
 20
20.580811924834
 30
 0
 40
1.582013750468
100
AcDbArc
 50
16.166169898704
 51
89.364162138146
0
ARC
  5
00000164
 39
 0.100 
 100
AcDbEntity
8
engraving007
 6
CONTINUOUS
100
AcDbCircle
 10
217.322111234737
 20
20.630788043478
 30
 0
 40
8.270080437636
100
AcDbArc
 50
-2.706383907559
 51
2.706383907560
0
ARC
  5
00000165
 39
 0.100 
 100
AcDbEntity
8
engraving007
 6
CONTINUOUS
100
AcDbCircle
 10
224.509008786945
 20
20.294289609219
 30
 0
 40
1.075315147311
100
AcDbArc
 50
269.605120283233
 51
357.121725633534
0
LWPOLYLINE
  5
00000166
 39
 0.100 
 100
AcDbEntity
8
engraving007
 6
CONTINUOUS
100
AcDbPolyline
 90
3
 70
8
 10
224.501597826087
 20
19.219000000000
 10
218.554065217391
 20
19.219000000000
 10
218.554065217391
 20
24.746000000000
0
LWPOLYLINE
  5
00000167
 39
 0.100 
 100
AcDbEntity
8
engraving007
 6
CONTINUOUS
100
AcDbPolyline
 90
10
 70
8
 10
227.686521739130
 20
24.206315217391
 10
228.227206521739
 20
24.206315217391
 10
228.227206521739
 20
24.506695652174
 10
227.686521739130
 20
24.506695652174
 10
227.686521739130
 20
24.206315217391
 10
227.386141304348
 20
24.026086956522
 10
228.467510869565
 20
24.026086956522
 10
228.467510869565
 20
24.747000000000
 10
227.386141304348
 20
24.747000000000
 10
227.386141304348
 20
24.026086956522
0
LWPOLYLINE
  5
00000168
 39
 0.100 
 100
AcDbEntity
8
engraving007
 6
CONTINUOUS
100
AcDbPolyline
 90
11
 70
8
 10
227.926826086957
 20
22.644336956522
 10
227.926826086957
 20
19.340152173913
 10
227.626445652174
 20
19.340152173913
 10
227.626445652174
 20
22.824565217391
 10
228.227206521739
 20
22.824565217391
 10
228.227206521739
 20
19.340152173913
 10
228.467510869565
 20
19.220000000000
 10
227.386141304348
 20
19.220000000000
 10
227.386141304348
 20
22.944717391304
 10
228.467510869565
 20
22.944717391304
 10
228.467510869565
 20
19.220000000000
0
ARC
  5
00000169
 39
 0.100 
 100
AcDbEntity
8
engraving007
 6
CONTINUOUS
100
AcDbCircle
 10
231.653970190904
 20
21.837181242004
 30
 0
 40
0.827487911380
100
AcDbArc
 50
102.727474664400
 51
136.762287929481
0
LINE
  5
0000016a
 39
 0.100 
 100
AcDbEntity
8
engraving007
 6
CONTINUOUS
 100
AcDbLine
 10
230.570521739130
 20
22.404032608696
 30
 0.0
 11
231.051130434783
 21
22.404032608696
 31
0.0
0
ARC
  5
0000016b
 39
 0.100 
 100
AcDbEntity
8
engraving007
 6
CONTINUOUS
100
AcDbCircle
 10
231.171022436666
 20
22.103999069953
 30
 0
 40
0.671283257731
100
AcDbArc
 50
100.288294823273
 51
153.451500468417
0
ARC
  5
0000016c
 39
 0.100 
 100
AcDbEntity
8
engraving007
 6
CONTINUOUS
100
AcDbCircle
 10
232.763298913043
 20
-13.456187863745
 30
 0
 40
36.261121918863
100
AcDbArc
 50
87.293616092441
 51
92.706383907559
0
ARC
  5
0000016d
 39
 0.100 
 100
AcDbEntity
8
engraving007
 6
CONTINUOUS
100
AcDbCircle
 10
234.189830038229
 20
21.980330631633
 30
 0
 40
0.834561710549
100
AcDbArc
 50
-8.057842355353
 51
69.985355419500
0
LWPOLYLINE
  5
0000016e
 39
 0.100 
 100
AcDbEntity
8
engraving007
 6
CONTINUOUS
100
AcDbPolyline
 90
4
 70
8
 10
235.016152173913
 20
21.863347826087
 10
235.016152173913
 20
19.400228260870
 10
234.715771739130
 20
19.400228260870
 10
234.715771739130
 20
21.983500000000
0
ARC
  5
0000016f
 39
 0.100 
 100
AcDbEntity
8
engraving007
 6
CONTINUOUS
100
AcDbCircle
 10
234.118179345404
 20
21.986668475839
 30
 0
 40
0.597600793406
100
AcDbArc
 50
359.696216695819
 51
450.303783304181
0
ARC
  5
00000170
 39
 0.100 
 100
AcDbEntity
8
engraving007
 6
CONTINUOUS
100
AcDbCircle
 10
233.934983136545
 20
22.067726838449
 30
 0
 40
0.547007669012
100
AcDbArc
 50
-8.857495730074
 51
70.785008794212
0
LWPOLYLINE
  5
00000171
 39
 0.100 
 100
AcDbEntity
8
engraving007
 6
CONTINUOUS
100
AcDbPolyline
 90
4
 70
8
 10
234.475467391304
 20
21.983500000000
 10
234.475467391304
 20
19.400228260870
 10
234.475467391304
 20
20.301369565217
 10
234.235163043478
 20
20.301369565217
0
ARC
  5
00000172
 39
 0.100 
 100
AcDbEntity
8
engraving007
 6
CONTINUOUS
100
AcDbCircle
 10
233.042323560353
 20
20.563699840594
 30
 0
 40
1.221344834959
100
AcDbArc
 50
326.005911933391
 51
347.596907039312
0
ARC
  5
00000173
 39
 0.100 
 100
AcDbEntity
8
engraving007
 6
CONTINUOUS
100
AcDbCircle
 10
233.037138421896
 20
20.642727094745
 30
 0
 40
1.271371705916
100
AcDbArc
 50
298.019953098294
 51
323.182636191714
0
LWPOLYLINE
  5
00000174
 39
 0.100 
 100
AcDbEntity
8
engraving007
 6
CONTINUOUS
100
AcDbPolyline
 90
4
 70
8
 10
233.634402173913
 20
19.520380434783
 10
233.394097826087
 20
19.400228260870
 10
233.093717391304
 20
19.280076086957
 10
231.231358695652
 20
19.280076086957
0
ARC
  5
00000175
 39
 0.100 
 100
AcDbEntity
8
engraving007
 6
CONTINUOUS
100
AcDbCircle
 10
231.374137952185
 20
20.198520454484
 30
 0
 40
0.929476181696
100
AcDbArc
 50
173.647053956257
 51
261.163659306558
0
LINE
  5
00000176
 39
 0.100 
 100
AcDbEntity
8
engraving007
 6
CONTINUOUS
 100
AcDbLine
 10
230.450369565217
 20
20.601750000000
 30
 0.0
 11
230.450369565217
 21
20.301369565217
 31
0.0
0
ARC
  5
00000177
 39
 0.100 
 100
AcDbEntity
8
engraving007
 6
CONTINUOUS
100
AcDbCircle
 10
231.322545819382
 20
20.533834139453
 30
 0
 40
0.874816542163
100
AcDbArc
 50
103.979887432330
 51
175.547395949123
0
LINE
  5
00000178
 39
 0.100 
 100
AcDbEntity
8
engraving007
 6
CONTINUOUS
 100
AcDbLine
 10
233.093717391304
 20
21.382739130435
 30
 0.0
 11
231.111206521739
 21
21.382739130435
 31
0.0
0
ARC
  5
00000179
 39
 0.100 
 100
AcDbEntity
8
engraving007
 6
CONTINUOUS
100
AcDbCircle
 10
233.018957352648
 20
20.062405497547
 30
 0
 40
1.322448473671
100
AcDbArc
 50
65.168258979113
 51
86.759254085034
0
LWPOLYLINE
  5
0000017a
 39
 0.100 
 100
AcDbEntity
8
engraving007
 6
CONTINUOUS
100
AcDbPolyline
 90
3
 70
8
 10
233.574326086957
 20
21.262586956522
 10
233.273945652174
 20
21.262586956522
 10
231.351510869565
 20
21.262586956522
0
ARC
  5
0000017b
 39
 0.100 
 100
AcDbEntity
8
engraving007
 6
CONTINUOUS
100
AcDbCircle
 10
231.575354762278
 20
20.372363505891
 30
 0
 40
0.917934573027
100
AcDbArc
 50
104.114239510330
 51
263.513910158251
0
LINE
  5
0000017c
 39
 0.100 
 100
AcDbEntity
8
engraving007
 6
CONTINUOUS
 100
AcDbLine
 10
233.093717391304
 20
19.460304347826
 30
 0.0
 11
231.471663043478
 21
19.460304347826
 31
0.0
0
ARC
  5
0000017d
 39
 0.100 
 100
AcDbEntity
8
engraving007
 6
CONTINUOUS
100
AcDbCircle
 10
233.096305971604
 20
20.247252468951
 30
 0
 40
0.786952378540
100
AcDbArc
 50
269.811532441337
 51
302.079259360509
0
LINE
  5
0000017e
 39
 0.100 
 100
AcDbEntity
8
engraving007
 6
CONTINUOUS
 100
AcDbLine
 10
231.471663043478
 20
19.580456521739
 30
 0.0
 11
233.514250000000
 21
19.580456521739
 31
0.0
0
ARC
  5
0000017f
 39
 0.100 
 100
AcDbEntity
8
engraving007
 6
CONTINUOUS
100
AcDbCircle
 10
231.774191188854
 20
20.361445652174
 30
 0
 40
0.837536447328
100
AcDbArc
 50
111.174642636474
 51
248.825357363526
0
LWPOLYLINE
  5
00000180
 39
 0.100 
 100
AcDbEntity
8
engraving007
 6
CONTINUOUS
100
AcDbPolyline
 90
4
 70
8
 10
231.471663043478
 20
21.142434782609
 10
233.874706521739
 20
21.142434782609
 10
233.514250000000
 20
21.082358695652
 10
231.952271739130
 20
21.082358695652
0
ARC
  5
00000181
 39
 0.100 
 100
AcDbEntity
8
engraving007
 6
CONTINUOUS
100
AcDbCircle
 10
231.952271739130
 20
20.391483695652
 30
 0
 40
0.690875000000
100
AcDbArc
 50
90.000000000000
 51
270.000000000000
0
LINE
  5
00000182
 39
 0.100 
 100
AcDbEntity
8
engraving007
 6
CONTINUOUS
 100
AcDbLine
 10
233.514250000000
 20
19.700608695652
 30
 0.0
 11
231.952271739130
 21
19.700608695652
 31
0.0
0
ARC
  5
00000183
 39
 0.100 
 100
AcDbEntity
8
engraving007
 6
CONTINUOUS
100
AcDbCircle
 10
233.514250000000
 20
20.391483695652
 30
 0
 40
0.690875000000
100
AcDbArc
 50
270.000000000000
 51
450.000000000000
0
LINE
  5
00000184
 39
 0.100 
 100
AcDbEntity
8
engraving007
 6
CONTINUOUS
 100
AcDbLine
 10
233.153793478261
 20
21.502891304348
 30
 0.0
 11
233.514250000000
 21
21.082358695652
 31
0.0
0
ARC
  5
00000185
 39
 0.100 
 100
AcDbEntity
8
engraving007
 6
CONTINUOUS
100
AcDbCircle
 10
232.102461956522
 20
-11.868606309911
 30
 0
 40
33.388054016176
100
AcDbArc
 50
88.195557676940
 51
91.804442323060
0
ARC
  5
00000186
 39
 0.100 
 100
AcDbEntity
8
engraving007
 6
CONTINUOUS
100
AcDbCircle
 10
231.088077592138
 20
20.685448524692
 30
 0
 40
0.818277331012
100
AcDbArc
 50
92.587919850037
 51
181.654272943286
0
LINE
  5
00000187
 39
 0.100 
 100
AcDbEntity
8
engraving007
 6
CONTINUOUS
 100
AcDbLine
 10
230.270141304348
 20
20.061065217391
 30
 0.0
 11
230.270141304348
 21
20.661826086957
 31
0.0
0
ARC
  5
00000188
 39
 0.100 
 100
AcDbEntity
8
engraving007
 6
CONTINUOUS
100
AcDbCircle
 10
231.088077592138
 20
20.037442779656
 30
 0
 40
0.818277331012
100
AcDbArc
 50
178.345727056714
 51
267.412080149963
0
ARC
  5
00000189
 39
 0.100 
 100
AcDbEntity
8
engraving007
 6
CONTINUOUS
100
AcDbCircle
 10
232.102461956522
 20
52.591497614259
 30
 0
 40
33.388054016176
100
AcDbArc
 50
268.195557676940
 51
271.804442323060
0
ARC
  5
0000018a
 39
 0.100 
 100
AcDbEntity
8
engraving007
 6
CONTINUOUS
100
AcDbCircle
 10
233.114242599281
 20
20.340920444197
 30
 0
 40
1.121617989445
100
AcDbArc
 50
272.020802402801
 51
357.979197597197
0
LWPOLYLINE
  5
0000018b
 39
 0.100 
 100
AcDbEntity
8
engraving007
 6
CONTINUOUS
100
AcDbPolyline
 90
4
 70
8
 10
234.235163043478
 20
20.301369565217
 10
234.235163043478
 20
19.220000000000
 10
235.316532608696
 20
19.220000000000
 10
235.316532608696
 20
21.983500000000
0
ARC
  5
0000018c
 39
 0.100 
 100
AcDbEntity
8
engraving007
 6
CONTINUOUS
100
AcDbCircle
 10
234.364057183109
 20
21.993572970578
 30
 0
 40
0.952528687800
100
AcDbArc
 50
359.394087058856
 51
446.910692409157
0
ARC
  5
0000018d
 39
 0.100 
 100
AcDbEntity
8
engraving007
 6
CONTINUOUS
100
AcDbCircle
 10
232.793336956522
 20
-11.369608182129
 30
 0
 40
34.352641817870
100
AcDbArc
 50
87.293616092441
 51
92.706383907559
0
ARC
  5
0000018e
 39
 0.100 
 100
AcDbEntity
8
engraving007
 6
CONTINUOUS
100
AcDbCircle
 10
231.097140536581
 20
22.113725144491
 30
 0
 40
0.834293210521
100
AcDbArc
 50
84.901505578939
 51
172.418110929240
0
LINE
  5
0000018f
 39
 0.100 
 100
AcDbEntity
8
engraving007
 6
CONTINUOUS
 100
AcDbLine
 10
231.351510869565
 20
22.223804347826
 30
 0.0
 11
230.270141304348
 21
22.223804347826
 31
0.0
0
ARC
  5
00000190
 39
 0.100 
 100
AcDbEntity
8
engraving007
 6
CONTINUOUS
100
AcDbCircle
 10
231.954042260478
 20
21.900447681812
 30
 0
 40
0.683815479857
100
AcDbArc
 50
90.148349250790
 51
151.779163813358
0
LINE
  5
00000191
 39
 0.100 
 100
AcDbEntity
8
engraving007
 6
CONTINUOUS
 100
AcDbLine
 10
233.634402173913
 20
22.584260869565
 30
 0.0
 11
231.952271739130
 21
22.584260869565
 31
0.0
0
ARC
  5
00000192
 39
 0.100 
 100
AcDbEntity
8
engraving007
 6
CONTINUOUS
100
AcDbCircle
 10
233.637570649752
 20
21.986668475839
 30
 0
 40
0.597600793406
100
AcDbArc
 50
-0.303783304183
 51
90.303783304180
0
LINE
  5
00000193
 39
 0.100 
 100
AcDbEntity
8
engraving007
 6
CONTINUOUS
 100
AcDbLine
 10
234.235163043478
 20
20.421521739130
 30
 0.0
 11
234.235163043478
 21
21.983500000000
 31
0.0
0
ARC
  5
00000194
 39
 0.100 
 100
AcDbEntity
8
engraving007
 6
CONTINUOUS
100
AcDbCircle
 10
233.114242599281
 20
20.381970860151
 30
 0
 40
1.121617989445
100
AcDbArc
 50
2.020802402802
 51
87.979197597198
0
ARC
  5
00000195
 39
 0.100 
 100
AcDbEntity
8
engraving007
 6
CONTINUOUS
100
AcDbCircle
 10
237.987200127942
 20
19.862012388188
 30
 0
 40
0.342696726514
100
AcDbArc
 50
197.198149163273
 51
265.482234328550
0
ARC
  5
00000196
 39
 0.100 
 100
AcDbEntity
8
engraving007
 6
CONTINUOUS
100
AcDbCircle
 10
240.088679813206
 20
45.691291900248
 30
 0
 40
26.257322892590
100
AcDbArc
 50
265.350383091589
 51
272.566363556391
0
ARC
  5
00000197
 39
 0.100 
 100
AcDbEntity
8
engraving007
 6
CONTINUOUS
100
AcDbCircle
 10
241.170350125872
 20
20.115083537095
 30
 0
 40
0.661497944024
100
AcDbArc
 50
278.173085675836
 51
376.356461779954
0
ARC
  5
00000198
 39
 0.100 
 100
AcDbEntity
8
engraving007
 6
CONTINUOUS
100
AcDbCircle
 10
241.178079344919
 20
20.394335323907
 30
 0
 40
0.633851360189
100
AcDbArc
 50
351.566114341662
 51
442.173680950025
0
ARC
  5
00000199
 39
 0.100 
 100
AcDbEntity
8
engraving007
 6
CONTINUOUS
100
AcDbCircle
 10
238.809017770027
 20
-26.621247368196
 30
 0
 40
47.706758513360
100
AcDbArc
 50
87.049794838765
 51
90.658679484885
0
ARC
  5
0000019a
 39
 0.100 
 100
AcDbEntity
8
engraving007
 6
CONTINUOUS
100
AcDbCircle
 10
238.514149941312
 20
21.916362100797
 30
 0
 40
0.871697118872
100
AcDbArc
 50
191.458281724810
 51
253.089096287378
0
ARC
  5
0000019b
 39
 0.100 
 100
AcDbEntity
8
engraving007
 6
CONTINUOUS
100
AcDbCircle
 10
238.871121171504
 20
22.013538043478
 30
 0
 40
1.241096607999
100
AcDbArc
 50
167.418658453290
 51
192.581341546710
0
ARC
  5
0000019c
 39
 0.100 
 100
AcDbEntity
8
engraving007
 6
CONTINUOUS
100
AcDbCircle
 10
238.256729052075
 20
22.153531619689
 30
 0
 40
0.610969691035
100
AcDbArc
 50
89.638209366663
 51
167.681407141516
0
ARC
  5
0000019d
 39
 0.100 
 100
AcDbEntity
8
engraving007
 6
CONTINUOUS
100
AcDbCircle
 10
239.475334107184
 20
6.557604683756
 30
 0
 40
16.252344880295
100
AcDbArc
 50
83.466945314453
 51
94.286449257396
0
ARC
  5
0000019e
 39
 0.100 
 100
AcDbEntity
8
engraving007
 6
CONTINUOUS
100
AcDbCircle
 10
241.127476727203
 20
22.234867381365
 30
 0
 40
0.509193922344
100
AcDbArc
 50
12.370878455544
 51
67.240263728985
0
LINE
  5
0000019f
 39
 0.100 
 100
AcDbEntity
8
engraving007
 6
CONTINUOUS
 100
AcDbLine
 10
241.925228260870
 20
22.343956521739
 30
 0.0
 11
241.624847826087
 21
22.343956521739
 31
0.0
0
ARC
  5
000001a0
 39
 0.100 
 100
AcDbEntity
8
engraving007
 6
CONTINUOUS
100
AcDbCircle
 10
241.464009569816
 20
22.364677531197
 30
 0
 40
0.461683919160
100
AcDbArc
 50
357.427622490559
 51
444.944227840860
0
ARC
  5
000001a1
 39
 0.100 
 100
AcDbEntity
8
engraving007
 6
CONTINUOUS
100
AcDbCircle
 10
239.702413043478
 20
6.524956472832
 30
 0
 40
16.398947156062
100
AcDbArc
 50
83.690314270416
 51
96.309685729584
0
ARC
  5
000001a2
 39
 0.100 
 100
AcDbEntity
8
engraving007
 6
CONTINUOUS
100
AcDbCircle
 10
237.956348617292
 20
22.287738339229
 30
 0
 40
0.539762522932
100
AcDbArc
 50
95.978401112575
 51
174.021598887428
0
ARC
  5
000001a3
 39
 0.100 
 100
AcDbEntity
8
engraving007
 6
CONTINUOUS
100
AcDbCircle
 10
239.883788426481
 20
21.953461956522
 30
 0
 40
2.495014290911
100
AcDbArc
 50
170.995621015918
 51
189.004378984082
0
ARC
  5
000001a4
 39
 0.100 
 100
AcDbEntity
8
engraving007
 6
CONTINUOUS
100
AcDbCircle
 10
238.026454303160
 20
21.633238476941
 30
 0
 40
0.610987039761
100
AcDbArc
 50
186.604340245500
 51
269.421234762868
0
LINE
  5
000001a5
 39
 0.100 
 100
AcDbEntity
8
engraving007
 6
CONTINUOUS
 100
AcDbLine
 10
240.843858695652
 20
20.962206521739
 30
 0.0
 11
238.020282608696
 21
21.022282608696
 31
0.0
0
ARC
  5
000001a6
 39
 0.100 
 100
AcDbEntity
8
engraving007
 6
CONTINUOUS
100
AcDbCircle
 10
240.827341395836
 20
20.271331521739
 30
 0
 40
0.691072417926
100
AcDbArc
 50
-88.630444985982
 51
88.630444985981
0
ARC
  5
000001a7
 39
 0.100 
 100
AcDbEntity
8
engraving007
 6
CONTINUOUS
100
AcDbCircle
 10
240.475656143016
 20
61.563234423143
 30
 0
 40
41.984392498146
100
AcDbArc
 50
266.893605004361
 51
270.502489650481
0
ARC
  5
000001a8
 39
 0.100 
 100
AcDbEntity
8
engraving007
 6
CONTINUOUS
100
AcDbCircle
 10
238.212887142019
 20
19.893213228975
 30
 0
 40
0.252983533031
100
AcDbArc
 50
182.804100822018
 51
267.195899177975
0
LINE
  5
000001a9
 39
 0.100 
 100
AcDbEntity
8
engraving007
 6
CONTINUOUS
 100
AcDbLine
 10
237.299369565217
 20
19.880836956522
 30
 0.0
 11
237.960206521739
 21
19.880836956522
 31
0.0
0
ARC
  5
000001aa
 39
 0.100 
 100
AcDbEntity
8
engraving007
 6
CONTINUOUS
100
AcDbCircle
 10
237.883898560345
 20
19.993992537997
 30
 0
 40
0.595380829187
100
AcDbArc
 50
190.956040804596
 51
265.776880522261
0
ARC
  5
000001ab
 39
 0.100 
 100
AcDbEntity
8
engraving007
 6
CONTINUOUS
100
AcDbCircle
 10
239.672375000000
 20
42.634631239302
 30
 0
 40
23.306541586785
100
AcDbArc
 50
265.490850068130
 51
274.509149931870
0
ARC
  5
000001ac
 39
 0.100 
 100
AcDbEntity
8
engraving007
 6
CONTINUOUS
100
AcDbCircle
 10
241.469722527355
 20
19.975392660163
 30
 0
 40
0.576226696426
100
AcDbArc
 50
273.479610957558
 51
362.545964050808
0
ARC
  5
000001ad
 39
 0.100 
 100
AcDbEntity
8
engraving007
 6
CONTINUOUS
100
AcDbCircle
 10
237.757952333319
 20
20.271331521739
 30
 0
 40
4.295942822450
100
AcDbArc
 50
356.392009767599
 51
363.607990232401
0
ARC
  5
000001ae
 39
 0.100 
 100
AcDbEntity
8
engraving007
 6
CONTINUOUS
100
AcDbCircle
 10
241.560330165924
 20
20.598295443062
 30
 0
 40
0.488343896226
100
AcDbArc
 50
353.341807104473
 51
442.408160197723
0
ARC
  5
000001af
 39
 0.100 
 100
AcDbEntity
8
engraving007
 6
CONTINUOUS
100
AcDbCircle
 10
239.301085861007
 20
1.336058473126
 30
 0
 40
19.882561257255
100
AcDbArc
 50
83.288251906364
 51
92.306551770104
0
ARC
  5
000001b0
 39
 0.100 
 100
AcDbEntity
8
engraving007
 6
CONTINUOUS
100
AcDbCircle
 10
238.661899200886
 20
21.971148675201
 30
 0
 40
0.785320074238
100
AcDbArc
 50
110.978629749152
 51
258.169212770650
0
ARC
  5
000001b1
 39
 0.100 
 100
AcDbEntity
8
engraving007
 6
CONTINUOUS
100
AcDbCircle
 10
239.321521191373
 20
5.915133507361
 30
 0
 40
16.815617093288
100
AcDbArc
 50
84.188897395551
 51
93.207197259291
0
ARC
  5
000001b2
 39
 0.100 
 100
AcDbEntity
8
engraving007
 6
CONTINUOUS
100
AcDbCircle
 10
240.945395668319
 20
22.273374107657
 30
 0
 40
0.379217291374
100
AcDbArc
 50
1.587599650453
 51
78.023542534079
0
LWPOLYLINE
  5
000001b3
 39
 0.100 
 100
AcDbEntity
8
engraving007
 6
CONTINUOUS
100
AcDbPolyline
 90
3
 70
8
 10
241.324467391304
 20
22.283880434783
 10
241.084163043478
 20
22.223804347826
 10
242.165532608696
 20
22.223804347826
0
ARC
  5
000001b4
 39
 0.100 
 100
AcDbEntity
8
engraving007
 6
CONTINUOUS
100
AcDbCircle
 10
241.448290356042
 20
22.229672409706
 30
 0
 40
0.717266256798
100
AcDbArc
 50
359.531249480802
 51
445.489644675198
0
ARC
  5
000001b5
 39
 0.100 
 100
AcDbEntity
8
engraving007
 6
CONTINUOUS
100
AcDbCircle
 10
239.642336956522
 20
-6.590898418778
 30
 0
 40
29.594272776874
100
AcDbArc
 50
86.392009767599
 51
93.607990232401
0
ARC
  5
000001b6
 39
 0.100 
 100
AcDbEntity
8
engraving007
 6
CONTINUOUS
100
AcDbCircle
 10
237.856026406146
 20
22.270570386183
 30
 0
 40
0.678422806895
100
AcDbArc
 50
96.436126232583
 51
183.952731582884
0
LINE
  5
000001b7
 39
 0.100 
 100
AcDbEntity
8
engraving007
 6
CONTINUOUS
 100
AcDbLine
 10
237.179217391304
 20
21.562967391304
 30
 0.0
 11
237.179217391304
 21
22.223804347826
 31
0.0
0
ARC
  5
000001b8
 39
 0.100 
 100
AcDbEntity
8
engraving007
 6
CONTINUOUS
100
AcDbCircle
 10
237.797899032945
 20
21.521913646551
 30
 0
 40
0.620042243449
100
AcDbArc
 50
176.203600027723
 51
268.343777984465
0
LINE
  5
000001b9
 39
 0.100 
 100
AcDbEntity
8
engraving007
 6
CONTINUOUS
 100
AcDbLine
 10
240.603554347826
 20
20.902130434783
 30
 0.0
 11
237.779978260870
 21
20.902130434783
 31
0.0
0
ARC
  5
000001ba
 39
 0.100 
 100
AcDbEntity
8
engraving007
 6
CONTINUOUS
100
AcDbCircle
 10
240.589191478421
 20
20.301369565217
 30
 0
 40
0.600932537327
100
AcDbArc
 50
-88.630444985981
 51
88.630444985981
0
LINE
  5
000001bb
 39
 0.100 
 100
AcDbEntity
8
engraving007
 6
CONTINUOUS
 100
AcDbLine
 10
238.681119565217
 20
19.700608695652
 30
 0.0
 11
240.603554347826
 21
19.700608695652
 31
0.0
0
ARC
  5
000001bc
 39
 0.100 
 100
AcDbEntity
8
engraving007
 6
CONTINUOUS
100
AcDbCircle
 10
238.683501659779
 20
20.204418879705
 30
 0
 40
0.503815815482
100
AcDbArc
 50
196.531106234436
 51
269.729098473878
0
LWPOLYLINE
  5
000001bd
 39
 0.100 
 100
AcDbEntity
8
engraving007
 6
CONTINUOUS
100
AcDbPolyline
 90
3
 70
8
 10
238.200510869565
 20
20.061065217391
 10
237.119141304348
 20
20.061065217391
 10
237.119141304348
 20
19.940913043478
0
ARC
  5
000001be
 39
 0.100 
 100
AcDbEntity
8
engraving007
 6
CONTINUOUS
100
AcDbCircle
 10
237.774110198990
 20
19.932847710544
 30
 0
 40
0.655018551298
100
AcDbArc
 50
179.294491408896
 51
265.252886603292
0
ARC
  5
000001bf
 39
 0.100 
 100
AcDbEntity
8
engraving007
 6
CONTINUOUS
100
AcDbCircle
 10
239.702413043478
 20
50.721215497689
 30
 0
 40
31.503580697963
100
AcDbArc
 50
266.392009767599
 51
273.607990232401
0
ARC
  5
000001c0
 39
 0.100 
 100
AcDbEntity
8
engraving007
 6
CONTINUOUS
100
AcDbCircle
 10
241.630715887966
 20
19.932847710544
 30
 0
 40
0.655018551298
100
AcDbArc
 50
274.747113396706
 51
360.705508591102
0
LINE
  5
000001c1
 39
 0.100 
 100
AcDbEntity
8
engraving007
 6
CONTINUOUS
 100
AcDbLine
 10
242.285684782609
 20
20.541673913043
 30
 0.0
 11
242.285684782609
 21
19.940913043478
 31
0.0
0
ARC
  5
000001c2
 39
 0.100 
 100
AcDbEntity
8
engraving007
 6
CONTINUOUS
100
AcDbCircle
 10
241.630715887966
 20
20.549739245977
 30
 0
 40
0.655018551298
100
AcDbArc
 50
359.294491408896
 51
445.252886603292
0
LINE
  5
000001c3
 39
 0.100 
 100
AcDbEntity
8
engraving007
 6
CONTINUOUS
 100
AcDbLine
 10
238.741195652174
 20
21.322663043478
 30
 0.0
 11
241.684923913043
 21
21.202510869565
 31
0.0
0
ARC
  5
000001c4
 39
 0.100 
 100
AcDbEntity
8
engraving007
 6
CONTINUOUS
100
AcDbCircle
 10
238.782266659283
 20
21.953461956522
 30
 0
 40
0.632134555551
100
AcDbArc
 50
93.725241898613
 51
266.274758101386
0
LINE
  5
000001c5
 39
 0.100 
 100
AcDbEntity
8
engraving007
 6
CONTINUOUS
 100
AcDbLine
 10
240.603554347826
 20
22.584260869565
 30
 0.0
 11
238.741195652174
 21
22.584260869565
 31
0.0
0
ARC
  5
000001c6
 39
 0.100 
 100
AcDbEntity
8
engraving007
 6
CONTINUOUS
100
AcDbCircle
 10
240.601172253265
 20
22.080450685512
 30
 0
 40
0.503815815482
100
AcDbArc
 50
16.531106234436
 51
89.729098473878
0
ARC
  5
000001c7
 39
 0.100 
 100
AcDbEntity
8
engraving007
 6
CONTINUOUS
100
AcDbCircle
 10
251.168275146692
 20
20.483836515649
 30
 0
 40
0.665196771765
100
AcDbArc
 50
190.602367645352
 51
265.423207363016
0
ARC
  5
000001c8
 39
 0.100 
 100
AcDbEntity
8
engraving007
 6
CONTINUOUS
100
AcDbCircle
 10
252.797326086957
 20
55.405987390163
 30
 0
 40
35.624961885199
100
AcDbArc
 50
267.293616092441
 51
272.706383907559
0
ARC
  5
000001c9
 39
 0.100 
 100
AcDbEntity
8
engraving007
 6
CONTINUOUS
100
AcDbCircle
 10
254.507724043870
 20
20.554932550007
 30
 0
 40
0.734715665527
100
AcDbArc
 50
267.795052384681
 51
329.425866947249
0
ARC
  5
000001ca
 39
 0.100 
 100
AcDbEntity
8
engraving007
 6
CONTINUOUS
100
AcDbCircle
 10
253.880247223554
 20
20.868582434098
 30
 0
 40
1.435335245180
100
AcDbArc
 50
331.387189391726
 51
375.932427116453
0
ARC
  5
000001cb
 39
 0.100 
 100
AcDbEntity
8
engraving007
 6
CONTINUOUS
100
AcDbCircle
 10
254.589750339617
 20
21.047565089921
 30
 0
 40
0.704319959537
100
AcDbArc
 50
17.775614080707
 51
99.009381426795
0
LINE
  5
000001cc
 39
 0.100 
 100
AcDbEntity
8
engraving007
 6
CONTINUOUS
 100
AcDbLine
 10
250.634586956522
 20
21.923423913043
 30
 0.0
 11
254.479456521739
 21
21.743195652174
 31
0.0
0
ARC
  5
000001cd
 39
 0.100 
 100
AcDbEntity
8
engraving007
 6
CONTINUOUS
100
AcDbCircle
 10
250.702559173623
 20
22.831474331268
 30
 0
 40
0.910590898448
100
AcDbArc
 50
176.652748619086
 51
265.719101712335
0
LINE
  5
000001ce
 39
 0.100 
 100
AcDbEntity
8
engraving007
 6
CONTINUOUS
 100
AcDbLine
 10
249.793521739130
 20
23.725706521739
 30
 0.0
 11
249.793521739130
 21
22.884641304348
 31
0.0
0
ARC
  5
000001cf
 39
 0.100 
 100
AcDbEntity
8
engraving007
 6
CONTINUOUS
100
AcDbCircle
 10
250.737230255975
 20
23.597263362001
 30
 0
 40
0.952409266045
100
AcDbArc
 50
107.277883485330
 51
172.249399896120
0
ARC
  5
000001d0
 39
 0.100 
 100
AcDbEntity
8
engraving007
 6
CONTINUOUS
100
AcDbCircle
 10
253.183592856684
 20
-11.191833816544
 30
 0
 40
35.802705558864
100
AcDbArc
 50
87.155908228529
 51
94.371888693331
0
ARC
  5
000001d1
 39
 0.100 
 100
AcDbEntity
8
engraving007
 6
CONTINUOUS
100
AcDbCircle
 10
254.910560127577
 20
23.556049258012
 30
 0
 40
1.011934132123
100
AcDbArc
 50
2.804100822023
 51
87.195899177980
0
LWPOLYLINE
  5
000001d2
 39
 0.100 
 100
AcDbEntity
8
engraving007
 6
CONTINUOUS
100
AcDbPolyline
 90
3
 70
8
 10
255.921282608696
 20
23.605554347826
 10
255.680978260870
 20
23.605554347826
 10
255.560826086957
 20
23.845858695652
0
ARC
  5
000001d3
 39
 0.100 
 100
AcDbEntity
8
engraving007
 6
CONTINUOUS
100
AcDbCircle
 10
253.420674619137
 20
22.186315923485
 30
 0
 40
2.708196912682
100
AcDbArc
 50
37.791158921648
 51
52.208841078351
0
ARC
  5
000001d4
 39
 0.100 
 100
AcDbEntity
8
engraving007
 6
CONTINUOUS
100
AcDbCircle
 10
252.887440217391
 20
-10.449338320567
 30
 0
 40
34.844869559868
100
AcDbArc
 50
86.392009767599
 51
93.607990232401
0
ARC
  5
000001d5
 39
 0.100 
 100
AcDbEntity
8
engraving007
 6
CONTINUOUS
100
AcDbCircle
 10
250.998584520957
 20
23.462425942681
 30
 0
 40
0.915934435105
100
AcDbArc
 50
109.379021626452
 51
171.009836189020
0
LINE
  5
000001d6
 39
 0.100 
 100
AcDbEntity
8
engraving007
 6
CONTINUOUS
 100
AcDbLine
 10
250.093902173913
 20
22.824565217391
 30
 0.0
 11
250.093902173913
 21
23.605554347826
 31
0.0
0
ARC
  5
000001d7
 39
 0.100 
 100
AcDbEntity
8
engraving007
 6
CONTINUOUS
100
AcDbCircle
 10
250.881538123579
 20
22.937106298115
 30
 0
 40
0.795635522119
100
AcDbArc
 50
188.131646423456
 51
256.415731588732
0
ARC
  5
000001d8
 39
 0.100 
 100
AcDbEntity
8
engraving007
 6
CONTINUOUS
100
AcDbCircle
 10
254.583525333790
 20
64.013345386854
 30
 0
 40
42.029914388498
100
AcDbArc
 50
264.691053889941
 51
270.103821705060
0
ARC
  5
000001d9
 39
 0.100 
 100
AcDbEntity
8
engraving007
 6
CONTINUOUS
100
AcDbCircle
 10
254.682813712210
 20
21.104994117119
 30
 0
 40
0.878810294455
100
AcDbArc
 50
2.441757464258
 51
91.508110557508
0
ARC
  5
000001da
 39
 0.100 
 100
AcDbEntity
8
engraving007
 6
CONTINUOUS
100
AcDbCircle
 10
248.891493484680
 20
20.721902173913
 30
 0
 40
6.682577723810
100
AcDbArc
 50
-3.607990232401
 51
3.607990232401
0
ARC
  5
000001db
 39
 0.100 
 100
AcDbEntity
8
engraving007
 6
CONTINUOUS
100
AcDbCircle
 10
254.785055494147
 20
20.426277301383
 30
 0
 40
0.785762022003
100
AcDbArc
 50
269.619474636230
 51
350.853241982318
0
ARC
  5
000001dc
 39
 0.100 
 100
AcDbEntity
8
engraving007
 6
CONTINUOUS
100
AcDbCircle
 10
252.857402173913
 20
60.309362917950
 30
 0
 40
40.714242154513
100
AcDbArc
 50
267.293616092441
 51
272.706383907559
0
ARC
  5
000001dd
 39
 0.100 
 100
AcDbEntity
8
engraving007
 6
CONTINUOUS
100
AcDbCircle
 10
250.931165220298
 20
20.357643481168
 30
 0
 40
0.717120952087
100
AcDbArc
 50
179.696216695818
 51
270.303783304180
0
LWPOLYLINE
  5
000001de
 39
 0.100 
 100
AcDbEntity
8
engraving007
 6
CONTINUOUS
100
AcDbPolyline
 90
3
 70
8
 10
250.214054347826
 20
20.361445652174
 10
249.853597826087
 20
20.361445652174
 10
249.853597826087
 20
20.121141304348
0
ARC
  5
000001df
 39
 0.100 
 100
AcDbEntity
8
engraving007
 6
CONTINUOUS
100
AcDbCircle
 10
250.732992072781
 20
20.356836707856
 30
 0
 40
0.910432075640
100
AcDbArc
 50
195.003794716603
 51
259.975311127394
0
ARC
  5
000001e0
 39
 0.100 
 100
AcDbEntity
8
engraving007
 6
CONTINUOUS
100
AcDbCircle
 10
252.797326086957
 20
42.932591285804
 30
 0
 40
23.577301830138
100
AcDbArc
 50
264.590248028529
 51
275.409751971471
0
ARC
  5
000001e1
 39
 0.100 
 100
AcDbEntity
8
engraving007
 6
CONTINUOUS
100
AcDbCircle
 10
255.064499759484
 20
20.255909539953
 30
 0
 40
0.796840821169
100
AcDbArc
 50
266.808814624968
 51
358.948992581709
0
ARC
  5
000001e2
 39
 0.100 
 100
AcDbEntity
8
engraving007
 6
CONTINUOUS
100
AcDbCircle
 10
247.862477627525
 20
20.872092391304
 30
 0
 40
8.023563497090
100
AcDbArc
 50
355.490850068130
 51
364.509149931870
0
ARC
  5
000001e3
 39
 0.100 
 100
AcDbEntity
8
engraving007
 6
CONTINUOUS
100
AcDbCircle
 10
254.998950388381
 20
21.189981700547
 30
 0
 40
0.917277525979
100
AcDbArc
 50
19.945649765776
 51
84.917166176567
0
LINE
  5
000001e4
 39
 0.100 
 100
AcDbEntity
8
engraving007
 6
CONTINUOUS
 100
AcDbLine
 10
250.874891304348
 20
22.343956521739
 30
 0.0
 11
255.080217391304
 21
22.103652173913
 31
0.0
0
ARC
  5
000001e5
 39
 0.100 
 100
AcDbEntity
8
engraving007
 6
CONTINUOUS
100
AcDbCircle
 10
251.107584558985
 20
22.954408647811
 30
 0
 40
0.653297749100
100
AcDbArc
 50
180.849977615922
 51
249.134062781199
0
LINE
  5
000001e6
 39
 0.100 
 100
AcDbEntity
8
engraving007
 6
CONTINUOUS
 100
AcDbLine
 10
250.454358695652
 20
23.545478260870
 30
 0.0
 11
250.454358695652
 21
22.944717391304
 31
0.0
0
ARC
  5
000001e7
 39
 0.100 
 100
AcDbEntity
8
engraving007
 6
CONTINUOUS
100
AcDbCircle
 10
251.163379651283
 20
23.399183667459
 30
 0
 40
0.723956368564
100
AcDbArc
 50
108.391336721317
 51
168.341584605544
0
ARC
  5
000001e8
 39
 0.100 
 100
AcDbEntity
8
engraving007
 6
CONTINUOUS
100
AcDbCircle
 10
252.887440217391
 20
-0.671807343376
 30
 0
 40
24.834839395755
100
AcDbArc
 50
85.490850068130
 51
94.509149931870
0
ARC
  5
000001e9
 39
 0.100 
 100
AcDbEntity
8
engraving007
 6
CONTINUOUS
100
AcDbCircle
 10
254.390480643936
 20
23.202721321180
 30
 0
 40
0.991190576254
100
AcDbArc
 50
20.230837888772
 51
63.036240784368
0
LINE
  5
000001ea
 39
 0.100 
 100
AcDbEntity
8
engraving007
 6
CONTINUOUS
 100
AcDbLine
 10
255.020141304348
 20
23.425326086957
 30
 0.0
 11
255.320521739130
 21
23.545478260870
 31
0.0
0
ARC
  5
000001eb
 39
 0.100 
 100
AcDbEntity
8
engraving007
 6
CONTINUOUS
100
AcDbCircle
 10
254.294074613957
 20
23.117215181805
 30
 0
 40
0.788736438088
100
AcDbArc
 50
22.994241360863
 51
89.625623587178
0
LINE
  5
000001ec
 39
 0.100 
 100
AcDbEntity
8
engraving007
 6
CONTINUOUS
 100
AcDbLine
 10
251.415576086957
 20
23.905934782609
 30
 0.0
 11
254.299228260870
 21
23.905934782609
 31
0.0
0
ARC
  5
000001ed
 39
 0.100 
 100
AcDbEntity
8
engraving007
 6
CONTINUOUS
100
AcDbCircle
 10
251.438651211580
 20
23.185021739130
 30
 0
 40
0.721282245472
100
AcDbArc
 50
91.833308512770
 51
268.166691487230
0
LINE
  5
000001ee
 39
 0.100 
 100
AcDbEntity
8
engraving007
 6
CONTINUOUS
 100
AcDbLine
 10
255.200369565217
 20
22.343956521739
 30
 0.0
 11
251.415576086957
 21
22.464108695652
 31
0.0
0
ARC
  5
000001ef
 39
 0.100 
 100
AcDbEntity
8
engraving007
 6
CONTINUOUS
100
AcDbCircle
 10
255.146373434259
 20
21.269997917380
 30
 0
 40
1.075315147311
100
AcDbArc
 50
-0.394879716768
 51
87.121725633533
0
LINE
  5
000001f0
 39
 0.100 
 100
AcDbEntity
8
engraving007
 6
CONTINUOUS
 100
AcDbLine
 10
256.221663043478
 20
20.301369565217
 30
 0.0
 11
256.221663043478
 21
21.262586956522
 31
0.0
0
ARC
  5
000001f1
 39
 0.100 
 100
AcDbEntity
8
engraving007
 6
CONTINUOUS
100
AcDbCircle
 10
255.144676339177
 20
20.290798568075
 30
 0
 40
1.077038582050
100
AcDbArc
 50
-83.829438514548
 51
0.562359841408
0
ARC
  5
000001f2
 39
 0.100 
 100
AcDbEntity
8
engraving007
 6
CONTINUOUS
100
AcDbCircle
 10
252.857402173913
 20
44.595445338354
 30
 0
 40
25.488974951501
100
AcDbArc
 50
264.590248028529
 51
275.409751971471
0
ARC
  5
000001f3
 39
 0.100 
 100
AcDbEntity
8
engraving007
 6
CONTINUOUS
100
AcDbCircle
 10
250.570128008650
 20
20.290798568075
 30
 0
 40
1.077038582050
100
AcDbArc
 50
179.437640158593
 51
263.829438514550
0
LWPOLYLINE
  5
000001f4
 39
 0.100 
 100
AcDbEntity
8
engraving007
 6
CONTINUOUS
100
AcDbPolyline
 90
3
 70
8
 10
249.493141304348
 20
20.301369565217
 10
249.493141304348
 20
20.541673913043
 10
250.694663043478
 20
20.541673913043
0
ARC
  5
000001f5
 39
 0.100 
 100
AcDbEntity
8
engraving007
 6
CONTINUOUS
100
AcDbCircle
 10
251.420729733869
 20
20.849784818195
 30
 0
 40
0.788736438088
100
AcDbArc
 50
202.994241360862
 51
269.625623587176
0
LINE
  5
000001f6
 39
 0.100 
 100
AcDbEntity
8
engraving007
 6
CONTINUOUS
 100
AcDbLine
 10
254.299228260870
 20
20.061065217391
 30
 0.0
 11
251.415576086957
 21
20.061065217391
 31
0.0
0
ARC
  5
000001f7
 39
 0.100 
 100
AcDbEntity
8
engraving007
 6
CONTINUOUS
100
AcDbCircle
 10
254.275191672720
 20
20.812016304348
 30
 0
 40
0.751335672367
100
AcDbArc
 50
271.833308512771
 51
448.166691487230
0
LINE
  5
000001f8
 39
 0.100 
 100
AcDbEntity
8
engraving007
 6
CONTINUOUS
 100
AcDbLine
 10
250.514434782609
 20
21.683119565217
 30
 0.0
 11
254.299228260870
 21
21.562967391304
 31
0.0
0
ARC
  5
000001f9
 39
 0.100 
 100
AcDbEntity
8
engraving007
 6
CONTINUOUS
100
AcDbCircle
 10
250.568430913567
 20
22.757078169577
 30
 0
 40
1.075315147311
100
AcDbArc
 50
179.605120283232
 51
267.121725633533
0
LINE
  5
000001fa
 39
 0.100 
 100
AcDbEntity
8
engraving007
 6
CONTINUOUS
 100
AcDbLine
 10
249.493141304348
 20
23.665630434783
 30
 0.0
 11
249.493141304348
 21
22.764489130435
 31
0.0
0
ARC
  5
000001fb
 39
 0.100 
 100
AcDbEntity
8
engraving007
 6
CONTINUOUS
100
AcDbCircle
 10
250.570128008650
 20
23.676201431925
 30
 0
 40
1.077038582050
100
AcDbArc
 50
96.170561485451
 51
180.562359841407
0
ARC
  5
000001fc
 39
 0.100 
 100
AcDbEntity
8
engraving007
 6
CONTINUOUS
100
AcDbCircle
 10
252.857402173913
 20
-0.628445338354
 30
 0
 40
25.488974951501
100
AcDbArc
 50
84.590248028529
 51
95.409751971471
0
ARC
  5
000001fd
 39
 0.100 
 100
AcDbEntity
8
engraving007
 6
CONTINUOUS
100
AcDbCircle
 10
255.144676339177
 20
23.676201431925
 30
 0
 40
1.077038582050
100
AcDbArc
 50
-0.562359841409
 51
83.829438514548
0
LWPOLYLINE
  5
000001fe
 39
 0.100 
 100
AcDbEntity
8
engraving007
 6
CONTINUOUS
100
AcDbPolyline
 90
3
 70
8
 10
256.221663043478
 20
23.665630434783
 10
256.221663043478
 20
23.425326086957
 10
255.020141304348
 20
23.425326086957
0
LWPOLYLINE
  5
000001ff
 39
 0.100 
 100
AcDbEntity
8
engraving007
 6
CONTINUOUS
100
AcDbPolyline
 90
10
 70
8
 10
258.744054347826
 20
22.644336956522
 10
260.185880434783
 20
19.460304347826
 10
260.426184782609
 20
19.460304347826
 10
259.044434782609
 20
22.824565217391
 10
258.323521739130
 20
22.824565217391
 10
259.945576086957
 20
19.340152173913
 10
260.846717391304
 20
19.340152173913
 10
262.228467391304
 20
22.764489130435
 10
262.588923913043
 20
22.764489130435
 10
260.606413043478
 20
18.559163043478
0
ARC
  5
00000200
 39
 0.100 
 100
AcDbEntity
8
engraving007
 6
CONTINUOUS
100
AcDbCircle
 10
259.422400178808
 20
19.065015457729
 30
 0
 40
1.287545388990
100
AcDbArc
 50
271.894586518450
 51
336.866102929240
0
LWPOLYLINE
  5
00000201
 39
 0.100 
 100
AcDbEntity
8
engraving007
 6
CONTINUOUS
100
AcDbPolyline
 90
3
 70
8
 10
259.464967391304
 20
17.778173913043
 10
259.464967391304
 20
17.597945652174
 10
259.825423913043
 20
17.597945652174
0
ARC
  5
00000202
 39
 0.100 
 100
AcDbEntity
8
engraving007
 6
CONTINUOUS
100
AcDbCircle
 10
259.822768131022
 20
18.623665433804
 30
 0
 40
1.025723219785
100
AcDbArc
 50
270.148349250789
 51
331.779163813357
0
LWPOLYLINE
  5
00000203
 39
 0.100 
 100
AcDbEntity
8
engraving007
 6
CONTINUOUS
100
AcDbPolyline
 90
4
 70
8
 10
260.726565217391
 20
18.138630434783
 10
262.889304347826
 20
22.824565217391
 10
263.309836956522
 20
22.944717391304
 10
260.966869565217
 20
18.078554347826
0
ARC
  5
00000204
 39
 0.100 
 100
AcDbEntity
8
engraving007
 6
CONTINUOUS
100
AcDbCircle
 10
259.950270352500
 20
18.527758439842
 30
 0
 40
1.111421736147
100
AcDbArc
 50
272.856214835323
 51
336.160831140014
0
LWPOLYLINE
  5
00000205
 39
 0.100 
 100
AcDbEntity
8
engraving007
 6
CONTINUOUS
100
AcDbPolyline
 90
4
 70
8
 10
260.005652173913
 20
17.417717391304
 10
259.284739130435
 20
17.417717391304
 10
259.284739130435
 20
18.018478260870
 10
259.525043478261
 20
18.018478260870
0
ARC
  5
00000206
 39
 0.100 
 100
AcDbEntity
8
engraving007
 6
CONTINUOUS
100
AcDbCircle
 10
259.504226603745
 20
18.882937176233
 30
 0
 40
0.864709522681
100
AcDbArc
 50
271.379462418079
 51
338.010844644393
0
LWPOLYLINE
  5
00000207
 39
 0.100 
 100
AcDbEntity
8
engraving007
 6
CONTINUOUS
100
AcDbPolyline
 90
8
 70
8
 10
260.306032608696
 20
18.559163043478
 10
260.546336956522
 20
19.220000000000
 10
259.825423913043
 20
19.220000000000
 10
258.023141304348
 20
22.944717391304
 10
259.284739130435
 20
22.944717391304
 10
260.666489130435
 20
19.460304347826
 10
262.048239130435
 20
22.944717391304
 10
263.309836956522
 20
22.944717391304
0
ARC
  5
00000208
 39
 0.100 
 100
AcDbEntity
8
engraving007
 6
CONTINUOUS
100
AcDbCircle
 10
265.979200127942
 20
19.862012388188
 30
 0
 40
0.342696726514
100
AcDbArc
 50
197.198149163270
 51
265.482234328546
0
ARC
  5
00000209
 39
 0.100 
 100
AcDbEntity
8
engraving007
 6
CONTINUOUS
100
AcDbCircle
 10
268.080679813206
 20
45.691291900248
 30
 0
 40
26.257322892590
100
AcDbArc
 50
265.350383091589
 51
272.566363556391
0
ARC
  5
0000020a
 39
 0.100 
 100
AcDbEntity
8
engraving007
 6
CONTINUOUS
100
AcDbCircle
 10
269.162350125872
 20
20.115083537095
 30
 0
 40
0.661497944024
100
AcDbArc
 50
278.173085675828
 51
376.356461779947
0
ARC
  5
0000020b
 39
 0.100 
 100
AcDbEntity
8
engraving007
 6
CONTINUOUS
100
AcDbCircle
 10
269.170079344919
 20
20.394335323907
 30
 0
 40
0.633851360189
100
AcDbArc
 50
351.566114341663
 51
442.173680950025
0
ARC
  5
0000020c
 39
 0.100 
 100
AcDbEntity
8
engraving007
 6
CONTINUOUS
100
AcDbCircle
 10
266.801017770027
 20
-26.621247368196
 30
 0
 40
47.706758513359
100
AcDbArc
 50
87.049794838765
 51
90.658679484885
0
ARC
  5
0000020d
 39
 0.100 
 100
AcDbEntity
8
engraving007
 6
CONTINUOUS
100
AcDbCircle
 10
266.506149941312
 20
21.916362100797
 30
 0
 40
0.871697118872
100
AcDbArc
 50
191.458281724810
 51
253.089096287378
0
ARC
  5
0000020e
 39
 0.100 
 100
AcDbEntity
8
engraving007
 6
CONTINUOUS
100
AcDbCircle
 10
266.863121171504
 20
22.013538043478
 30
 0
 40
1.241096607999
100
AcDbArc
 50
167.418658453290
 51
192.581341546710
0
ARC
  5
0000020f
 39
 0.100 
 100
AcDbEntity
8
engraving007
 6
CONTINUOUS
100
AcDbCircle
 10
266.248729052075
 20
22.153531619689
 30
 0
 40
0.610969691035
100
AcDbArc
 50
89.638209366665
 51
167.681407141518
0
ARC
  5
00000210
 39
 0.100 
 100
AcDbEntity
8
engraving007
 6
CONTINUOUS
100
AcDbCircle
 10
267.467334107184
 20
6.557604683756
 30
 0
 40
16.252344880295
100
AcDbArc
 50
83.466945314453
 51
94.286449257396
0
ARC
  5
00000211
 39
 0.100 
 100
AcDbEntity
8
engraving007
 6
CONTINUOUS
100
AcDbCircle
 10
269.119476727203
 20
22.234867381365
 30
 0
 40
0.509193922344
100
AcDbArc
 50
12.370878455544
 51
67.240263728985
0
LINE
  5
00000212
 39
 0.100 
 100
AcDbEntity
8
engraving007
 6
CONTINUOUS
 100
AcDbLine
 10
269.917228260870
 20
22.343956521739
 30
 0.0
 11
269.616847826087
 21
22.343956521739
 31
0.0
0
ARC
  5
00000213
 39
 0.100 
 100
AcDbEntity
8
engraving007
 6
CONTINUOUS
100
AcDbCircle
 10
269.456009569816
 20
22.364677531197
 30
 0
 40
0.461683919160
100
AcDbArc
 50
357.427622490557
 51
444.944227840858
0
ARC
  5
00000214
 39
 0.100 
 100
AcDbEntity
8
engraving007
 6
CONTINUOUS
100
AcDbCircle
 10
267.694413043478
 20
6.524956472832
 30
 0
 40
16.398947156062
100
AcDbArc
 50
83.690314270416
 51
96.309685729584
0
ARC
  5
00000215
 39
 0.100 
 100
AcDbEntity
8
engraving007
 6
CONTINUOUS
100
AcDbCircle
 10
265.948348617292
 20
22.287738339229
 30
 0
 40
0.539762522932
100
AcDbArc
 50
95.978401112572
 51
174.021598887425
0
ARC
  5
00000216
 39
 0.100 
 100
AcDbEntity
8
engraving007
 6
CONTINUOUS
100
AcDbCircle
 10
267.875788426481
 20
21.953461956522
 30
 0
 40
2.495014290911
100
AcDbArc
 50
170.995621015918
 51
189.004378984082
0
ARC
  5
00000217
 39
 0.100 
 100
AcDbEntity
8
engraving007
 6
CONTINUOUS
100
AcDbCircle
 10
266.018454303160
 20
21.633238476941
 30
 0
 40
0.610987039761
100
AcDbArc
 50
186.604340245501
 51
269.421234762869
0
LINE
  5
00000218
 39
 0.100 
 100
AcDbEntity
8
engraving007
 6
CONTINUOUS
 100
AcDbLine
 10
268.835858695652
 20
20.962206521739
 30
 0.0
 11
266.012282608696
 21
21.022282608696
 31
0.0
0
ARC
  5
00000219
 39
 0.100 
 100
AcDbEntity
8
engraving007
 6
CONTINUOUS
100
AcDbCircle
 10
268.819341395836
 20
20.271331521739
 30
 0
 40
0.691072417926
100
AcDbArc
 50
-88.630444985982
 51
88.630444985981
0
ARC
  5
0000021a
 39
 0.100 
 100
AcDbEntity
8
engraving007
 6
CONTINUOUS
100
AcDbCircle
 10
268.467656143016
 20
61.563234423143
 30
 0
 40
41.984392498145
100
AcDbArc
 50
266.893605004361
 51
270.502489650481
0
ARC
  5
0000021b
 39
 0.100 
 100
AcDbEntity
8
engraving007
 6
CONTINUOUS
100
AcDbCircle
 10
266.204887142019
 20
19.893213228975
 30
 0
 40
0.252983533031
100
AcDbArc
 50
182.804100822031
 51
267.195899177988
0
LINE
  5
0000021c
 39
 0.100 
 100
AcDbEntity
8
engraving007
 6
CONTINUOUS
 100
AcDbLine
 10
265.291369565217
 20
19.880836956522
 30
 0.0
 11
265.952206521739
 21
19.880836956522
 31
0.0
0
ARC
  5
0000021d
 39
 0.100 
 100
AcDbEntity
8
engraving007
 6
CONTINUOUS
100
AcDbCircle
 10
265.875898560345
 20
19.993992537997
 30
 0
 40
0.595380829187
100
AcDbArc
 50
190.956040804598
 51
265.776880522262
0
ARC
  5
0000021e
 39
 0.100 
 100
AcDbEntity
8
engraving007
 6
CONTINUOUS
100
AcDbCircle
 10
267.664375000000
 20
42.634631239301
 30
 0
 40
23.306541586785
100
AcDbArc
 50
265.490850068130
 51
274.509149931870
0
ARC
  5
0000021f
 39
 0.100 
 100
AcDbEntity
8
engraving007
 6
CONTINUOUS
100
AcDbCircle
 10
269.461722527355
 20
19.975392660163
 30
 0
 40
0.576226696426
100
AcDbArc
 50
273.479610957561
 51
362.545964050811
0
ARC
  5
00000220
 39
 0.100 
 100
AcDbEntity
8
engraving007
 6
CONTINUOUS
100
AcDbCircle
 10
265.749952333319
 20
20.271331521739
 30
 0
 40
4.295942822450
100
AcDbArc
 50
356.392009767599
 51
363.607990232401
0
ARC
  5
00000221
 39
 0.100 
 100
AcDbEntity
8
engraving007
 6
CONTINUOUS
100
AcDbCircle
 10
269.552330165924
 20
20.598295443062
 30
 0
 40
0.488343896226
100
AcDbArc
 50
353.341807104475
 51
442.408160197724
0
ARC
  5
00000222
 39
 0.100 
 100
AcDbEntity
8
engraving007
 6
CONTINUOUS
100
AcDbCircle
 10
267.293085861006
 20
1.336058473126
 30
 0
 40
19.882561257255
100
AcDbArc
 50
83.288251906364
 51
92.306551770104
0
ARC
  5
00000223
 39
 0.100 
 100
AcDbEntity
8
engraving007
 6
CONTINUOUS
100
AcDbCircle
 10
266.653899200886
 20
21.971148675201
 30
 0
 40
0.785320074238
100
AcDbArc
 50
110.978629749154
 51
258.169212770652
0
ARC
  5
00000224
 39
 0.100 
 100
AcDbEntity
8
engraving007
 6
CONTINUOUS
100
AcDbCircle
 10
267.313521191373
 20
5.915133507360
 30
 0
 40
16.815617093288
100
AcDbArc
 50
84.188897395551
 51
93.207197259291
0
ARC
  5
00000225
 39
 0.100 
 100
AcDbEntity
8
engraving007
 6
CONTINUOUS
100
AcDbCircle
 10
268.937395668319
 20
22.273374107657
 30
 0
 40
0.379217291374
100
AcDbArc
 50
1.587599650449
 51
78.023542534075
0
LWPOLYLINE
  5
00000226
 39
 0.100 
 100
AcDbEntity
8
engraving007
 6
CONTINUOUS
100
AcDbPolyline
 90
3
 70
8
 10
269.316467391304
 20
22.283880434783
 10
269.076163043478
 20
22.223804347826
 10
270.157532608696
 20
22.223804347826
0
ARC
  5
00000227
 39
 0.100 
 100
AcDbEntity
8
engraving007
 6
CONTINUOUS
100
AcDbCircle
 10
269.440290356042
 20
22.229672409706
 30
 0
 40
0.717266256798
100
AcDbArc
 50
359.531249480803
 51
445.489644675199
0
ARC
  5
00000228
 39
 0.100 
 100
AcDbEntity
8
engraving007
 6
CONTINUOUS
100
AcDbCircle
 10
267.634336956522
 20
-6.590898418778
 30
 0
 40
29.594272776874
100
AcDbArc
 50
86.392009767599
 51
93.607990232401
0
ARC
  5
00000229
 39
 0.100 
 100
AcDbEntity
8
engraving007
 6
CONTINUOUS
100
AcDbCircle
 10
265.848026406146
 20
22.270570386183
 30
 0
 40
0.678422806895
100
AcDbArc
 50
96.436126232586
 51
183.952731582887
0
LINE
  5
0000022a
 39
 0.100 
 100
AcDbEntity
8
engraving007
 6
CONTINUOUS
 100
AcDbLine
 10
265.171217391304
 20
21.562967391304
 30
 0.0
 11
265.171217391304
 21
22.223804347826
 31
0.0
0
ARC
  5
0000022b
 39
 0.100 
 100
AcDbEntity
8
engraving007
 6
CONTINUOUS
100
AcDbCircle
 10
265.789899032945
 20
21.521913646551
 30
 0
 40
0.620042243449
100
AcDbArc
 50
176.203600027722
 51
268.343777984463
0
LINE
  5
0000022c
 39
 0.100 
 100
AcDbEntity
8
engraving007
 6
CONTINUOUS
 100
AcDbLine
 10
268.595554347826
 20
20.902130434783
 30
 0.0
 11
265.771978260870
 21
20.902130434783
 31
0.0
0
ARC
  5
0000022d
 39
 0.100 
 100
AcDbEntity
8
engraving007
 6
CONTINUOUS
100
AcDbCircle
 10
268.581191478421
 20
20.301369565217
 30
 0
 40
0.600932537327
100
AcDbArc
 50
-88.630444985981
 51
88.630444985981
0
LINE
  5
0000022e
 39
 0.100 
 100
AcDbEntity
8
engraving007
 6
CONTINUOUS
 100
AcDbLine
 10
266.673119565217
 20
19.700608695652
 30
 0.0
 11
268.595554347826
 21
19.700608695652
 31
0.0
0
ARC
  5
0000022f
 39
 0.100 
 100
AcDbEntity
8
engraving007
 6
CONTINUOUS
100
AcDbCircle
 10
266.675501659779
 20
20.204418879705
 30
 0
 40
0.503815815482
100
AcDbArc
 50
196.531106234436
 51
269.729098473878
0
LWPOLYLINE
  5
00000230
 39
 0.100 
 100
AcDbEntity
8
engraving007
 6
CONTINUOUS
100
AcDbPolyline
 90
3
 70
8
 10
266.192510869565
 20
20.061065217391
 10
265.111141304348
 20
20.061065217391
 10
265.111141304348
 20
19.940913043478
0
ARC
  5
00000231
 39
 0.100 
 100
AcDbEntity
8
engraving007
 6
CONTINUOUS
100
AcDbCircle
 10
265.766110198990
 20
19.932847710544
 30
 0
 40
0.655018551298
100
AcDbArc
 50
179.294491408894
 51
265.252886603290
0
ARC
  5
00000232
 39
 0.100 
 100
AcDbEntity
8
engraving007
 6
CONTINUOUS
100
AcDbCircle
 10
267.694413043478
 20
50.721215497689
 30
 0
 40
31.503580697963
100
AcDbArc
 50
266.392009767599
 51
273.607990232401
0
ARC
  5
00000233
 39
 0.100 
 100
AcDbEntity
8
engraving007
 6
CONTINUOUS
100
AcDbCircle
 10
269.622715887966
 20
19.932847710544
 30
 0
 40
0.655018551298
100
AcDbArc
 50
274.747113396711
 51
360.705508591107
0
LINE
  5
00000234
 39
 0.100 
 100
AcDbEntity
8
engraving007
 6
CONTINUOUS
 100
AcDbLine
 10
270.277684782609
 20
20.541673913043
 30
 0.0
 11
270.277684782609
 21
19.940913043478
 31
0.0
0
ARC
  5
00000235
 39
 0.100 
 100
AcDbEntity
8
engraving007
 6
CONTINUOUS
100
AcDbCircle
 10
269.622715887966
 20
20.549739245977
 30
 0
 40
0.655018551298
100
AcDbArc
 50
359.294491408894
 51
445.252886603290
0
LINE
  5
00000236
 39
 0.100 
 100
AcDbEntity
8
engraving007
 6
CONTINUOUS
 100
AcDbLine
 10
266.733195652174
 20
21.322663043478
 30
 0.0
 11
269.676923913043
 21
21.202510869565
 31
0.0
0
ARC
  5
00000237
 39
 0.100 
 100
AcDbEntity
8
engraving007
 6
CONTINUOUS
100
AcDbCircle
 10
266.774266659283
 20
21.953461956522
 30
 0
 40
0.632134555551
100
AcDbArc
 50
93.725241898613
 51
266.274758101386
0
LINE
  5
00000238
 39
 0.100 
 100
AcDbEntity
8
engraving007
 6
CONTINUOUS
 100
AcDbLine
 10
268.595554347826
 20
22.584260869565
 30
 0.0
 11
266.733195652174
 21
22.584260869565
 31
0.0
0
ARC
  5
00000239
 39
 0.100 
 100
AcDbEntity
8
engraving007
 6
CONTINUOUS
100
AcDbCircle
 10
268.593172253265
 20
22.080450685512
 30
 0
 40
0.503815815482
100
AcDbArc
 50
16.531106234436
 51
89.729098473878
0
LINE
  5
0000023a
 39
 0.100 
 100
AcDbEntity
8
engraving007
 6
CONTINUOUS
 100
AcDbLine
 10
273.400815217391
 20
20.421521739130
 30
 0.0
 11
273.400815217391
 21
23.725706521739
 31
0.0
0
ARC
  5
0000023b
 39
 0.100 
 100
AcDbEntity
8
engraving007
 6
CONTINUOUS
100
AcDbCircle
 10
274.137029494005
 20
20.336202514705
 30
 0
 40
0.741141572944
100
AcDbArc
 50
173.389530804436
 51
249.825473688062
0
ARC
  5
0000023c
 39
 0.100 
 100
AcDbEntity
8
engraving007
 6
CONTINUOUS
100
AcDbCircle
 10
274.752527173913
 20
22.836057308134
 30
 0
 40
3.312129072940
100
AcDbArc
 50
254.751614991096
 51
285.248385008904
0
ARC
  5
0000023d
 39
 0.100 
 100
AcDbEntity
8
engraving007
 6
CONTINUOUS
100
AcDbCircle
 10
275.211803077095
 20
20.499602913172
 30
 0
 40
0.952682297816
100
AcDbArc
 50
295.612465575548
 51
358.917081880238
0
LINE
  5
0000023e
 39
 0.100 
 100
AcDbEntity
8
engraving007
 6
CONTINUOUS
 100
AcDbLine
 10
276.464695652174
 20
20.481597826087
 30
 0.0
 11
276.164315217391
 21
20.481597826087
 31
0.0
0
ARC
  5
0000023f
 39
 0.100 
 100
AcDbEntity
8
engraving007
 6
CONTINUOUS
100
AcDbCircle
 10
275.403851294933
 20
20.456678076001
 30
 0
 40
1.061137005402
100
AcDbArc
 50
-84.612736933769
 51
1.345658260627
0
ARC
  5
00000240
 39
 0.100 
 100
AcDbEntity
8
engraving007
 6
CONTINUOUS
100
AcDbCircle
 10
274.662413043478
 20
28.281634129294
 30
 0
 40
8.921141233025
100
AcDbArc
 50
264.590248028529
 51
275.409751971471
0
ARC
  5
00000241
 39
 0.100 
 100
AcDbEntity
8
engraving007
 6
CONTINUOUS
100
AcDbCircle
 10
273.965249695794
 20
20.253068062233
 30
 0
 40
0.864895065829
100
AcDbArc
 50
180.780042382862
 51
260.422546907148
0
LWPOLYLINE
  5
00000242
 39
 0.100 
 100
AcDbEntity
8
engraving007
 6
CONTINUOUS
100
AcDbPolyline
 90
10
 70
8
 10
273.100434782609
 20
20.241293478261
 10
273.100434782609
 20
23.725706521739
 10
273.641119565217
 20
23.725706521739
 10
273.641119565217
 20
22.524184782609
 10
272.259369565217
 20
22.524184782609
 10
272.259369565217
 20
22.764489130435
 10
276.164315217391
 20
22.764489130435
 10
276.164315217391
 20
22.524184782609
 10
273.641119565217
 20
22.524184782609
 10
273.641119565217
 20
20.481597826087
0
ARC
  5
00000243
 39
 0.100 
 100
AcDbEntity
8
engraving007
 6
CONTINUOUS
100
AcDbCircle
 10
274.373807192668
 20
20.481397298238
 30
 0
 40
0.732687654891
100
AcDbArc
 50
179.984318830128
 51
259.626823354413
0
ARC
  5
00000244
 39
 0.100 
 100
AcDbEntity
8
engraving007
 6
CONTINUOUS
100
AcDbCircle
 10
274.687216110350
 20
22.173078685952
 30
 0
 40
2.453154746204
100
AcDbArc
 50
259.540765075946
 51
286.484809932424
0
ARC
  5
00000245
 39
 0.100 
 100
AcDbEntity
8
engraving007
 6
CONTINUOUS
100
AcDbCircle
 10
275.050754580799
 20
20.567816332541
 30
 0
 40
0.817738143583
100
AcDbArc
 50
293.997502672780
 51
353.947750557007
0
LWPOLYLINE
  5
00000246
 39
 0.100 
 100
AcDbEntity
8
engraving007
 6
CONTINUOUS
100
AcDbPolyline
 90
4
 70
8
 10
275.863934782609
 20
20.481597826087
 10
275.563554347826
 20
20.661826086957
 10
276.644923913043
 20
20.661826086957
 10
276.644923913043
 20
20.181217391304
0
ARC
  5
00000247
 39
 0.100 
 100
AcDbEntity
8
engraving007
 6
CONTINUOUS
100
AcDbCircle
 10
275.678588228346
 20
20.184138413643
 30
 0
 40
0.966340099494
100
AcDbArc
 50
273.868412668796
 51
359.826807863192
0
ARC
  5
00000248
 39
 0.100 
 100
AcDbEntity
8
engraving007
 6
CONTINUOUS
100
AcDbCircle
 10
274.722489130435
 20
40.825316101792
 30
 0
 40
21.629441144585
100
AcDbArc
 50
267.293616092441
 51
272.706383907559
0
ARC
  5
00000249
 39
 0.100 
 100
AcDbEntity
8
engraving007
 6
CONTINUOUS
100
AcDbCircle
 10
273.752529773412
 20
20.171144420726
 30
 0
 40
0.952528687800
100
AcDbArc
 50
179.394087058854
 51
266.910692409155
0
LWPOLYLINE
  5
0000024a
 39
 0.100 
 100
AcDbEntity
8
engraving007
 6
CONTINUOUS
100
AcDbPolyline
 90
12
 70
8
 10
272.800054347826
 20
20.181217391304
 10
272.800054347826
 20
22.343956521739
 10
272.079141304348
 20
22.343956521739
 10
272.079141304348
 20
22.944717391304
 10
272.800054347826
 20
22.944717391304
 10
272.800054347826
 20
23.905934782609
 10
273.881423913043
 20
23.905934782609
 10
273.881423913043
 20
22.944717391304
 10
276.404619565217
 20
22.944717391304
 10
276.404619565217
 20
22.343956521739
 10
273.881423913043
 20
22.343956521739
 10
273.881423913043
 20
20.661826086957
0
ARC
  5
0000024b
 39
 0.100 
 100
AcDbEntity
8
engraving007
 6
CONTINUOUS
100
AcDbCircle
 10
274.590540520156
 20
20.641983042159
 30
 0
 40
0.709394184434
100
AcDbArc
 50
178.397123833583
 51
261.214018350951
0
ARC
  5
0000024c
 39
 0.100 
 100
AcDbEntity
8
engraving007
 6
CONTINUOUS
100
AcDbCircle
 10
274.722489130435
 20
21.840760163471
 30
 0
 40
1.914984401746
100
AcDbArc
 50
262.791158921648
 51
277.208841078351
0
ARC
  5
0000024d
 39
 0.100 
 100
AcDbEntity
8
engraving007
 6
CONTINUOUS
100
AcDbCircle
 10
274.854437740714
 20
20.641983042159
 30
 0
 40
0.709394184434
100
AcDbArc
 50
278.785981649051
 51
361.602876166419
0
LWPOLYLINE
  5
0000024e
 39
 0.100 
 100
AcDbEntity
8
engraving007
 6
CONTINUOUS
100
AcDbPolyline
 90
3
 70
8
 10
279.408358695652
 20
21.203510869565
 10
282.652467391304
 20
21.203510869565
 10
282.652467391304
 20
22.044576086957
0
ARC
  5
0000024f
 39
 0.100 
 100
AcDbEntity
8
engraving007
 6
CONTINUOUS
100
AcDbCircle
 10
281.879723201199
 20
21.812516679460
 30
 0
 40
0.806836508810
100
AcDbArc
 50
16.715306715935
 51
73.284693284066
0
ARC
  5
00000250
 39
 0.100 
 100
AcDbEntity
8
engraving007
 6
CONTINUOUS
100
AcDbCircle
 10
280.940298913043
 20
14.361301837270
 30
 0
 40
8.306977561908
100
AcDbArc
 50
81.892891536337
 51
98.107108463663
0
ARC
  5
00000251
 39
 0.100 
 100
AcDbEntity
8
engraving007
 6
CONTINUOUS
100
AcDbCircle
 10
279.825089133342
 20
21.927592388882
 30
 0
 40
0.660071650732
100
AcDbArc
 50
94.890645603554
 51
185.498212211917
0
LWPOLYLINE
  5
00000252
 39
 0.100 
 100
AcDbEntity
8
engraving007
 6
CONTINUOUS
100
AcDbPolyline
 90
5
 70
8
 10
279.168054347826
 20
21.864347826087
 10
279.168054347826
 20
21.203510869565
 10
279.408358695652
 20
21.383739130435
 10
282.412163043478
 20
21.383739130435
 10
282.412163043478
 20
21.864347826087
0
ARC
  5
00000253
 39
 0.100 
 100
AcDbEntity
8
engraving007
 6
CONTINUOUS
100
AcDbCircle
 10
281.868308892503
 20
21.875233003347
 30
 0
 40
0.543963072844
100
AcDbArc
 50
358.853384763669
 51
436.896582538523
0
ARC
  5
00000254
 39
 0.100 
 100
AcDbEntity
8
engraving007
 6
CONTINUOUS
100
AcDbCircle
 10
280.910260869565
 20
17.559852270504
 30
 0
 40
4.964386431995
100
AcDbArc
 50
77.418658453290
 51
102.581341546710
0
ARC
  5
00000255
 39
 0.100 
 100
AcDbEntity
8
engraving007
 6
CONTINUOUS
100
AcDbCircle
 10
279.996034254513
 20
21.834495163171
 30
 0
 40
0.594516393833
100
AcDbArc
 50
106.328316628894
 51
171.299833039685
0
LWPOLYLINE
  5
00000256
 39
 0.100 
 100
AcDbEntity
8
engraving007
 6
CONTINUOUS
100
AcDbPolyline
 90
4
 70
8
 10
279.408358695652
 20
21.924423913043
 10
279.408358695652
 20
21.383739130435
 10
279.168054347826
 20
21.083358695652
 10
279.168054347826
 20
20.182217391304
0
ARC
  5
00000257
 39
 0.100 
 100
AcDbEntity
8
engraving007
 6
CONTINUOUS
100
AcDbCircle
 10
279.795684785031
 20
20.208770111360
 30
 0
 40
0.628191859744
100
AcDbArc
 50
182.422527689725
 51
273.030094298087
0
ARC
  5
00000258
 39
 0.100 
 100
AcDbEntity
8
engraving007
 6
CONTINUOUS
100
AcDbCircle
 10
280.910260869565
 20
42.457673570695
 30
 0
 40
22.901761211914
100
AcDbArc
 50
267.293616092441
 51
272.706383907559
0
ARC
  5
00000259
 39
 0.100 
 100
AcDbEntity
8
engraving007
 6
CONTINUOUS
100
AcDbCircle
 10
281.901819838383
 20
20.452082800553
 30
 0
 40
0.875246285675
100
AcDbArc
 50
275.889589468276
 51
329.052795113419
0
LINE
  5
0000025a
 39
 0.100 
 100
AcDbEntity
8
engraving007
 6
CONTINUOUS
 100
AcDbLine
 10
283.253228260870
 20
20.001989130435
 30
 0.0
 11
282.652467391304
 21
20.001989130435
 31
0.0
0
ARC
  5
0000025b
 39
 0.100 
 100
AcDbEntity
8
engraving007
 6
CONTINUOUS
100
AcDbCircle
 10
282.390057757234
 20
20.219985905151
 30
 0
 40
0.890272942492
100
AcDbArc
 50
279.194755964845
 51
345.826138191160
0
ARC
  5
0000025c
 39
 0.100 
 100
AcDbEntity
8
engraving007
 6
CONTINUOUS
100
AcDbCircle
 10
281.030413043478
 20
38.385744779185
 30
 0
 40
19.103722612119
100
AcDbArc
 50
265.490850068130
 51
274.509149931870
0
ARC
  5
0000025d
 39
 0.100 
 100
AcDbEntity
8
engraving007
 6
CONTINUOUS
100
AcDbCircle
 10
279.553796199286
 20
20.207819568609
 30
 0
 40
0.867036170484
100
AcDbArc
 50
177.721282684934
 51
268.328849293296
0
LINE
  5
0000025e
 39
 0.100 
 100
AcDbEntity
8
engraving007
 6
CONTINUOUS
 100
AcDbLine
 10
278.687445652174
 20
21.984500000000
 30
 0.0
 11
278.687445652174
 21
20.242293478261
 31
0.0
0
ARC
  5
0000025f
 39
 0.100 
 100
AcDbEntity
8
engraving007
 6
CONTINUOUS
100
AcDbCircle
 10
279.535419983442
 20
21.977590886123
 30
 0
 40
0.848002477794
100
AcDbArc
 50
90.466823453376
 51
179.533176546625
0
ARC
  5
00000260
 39
 0.100 
 100
AcDbEntity
8
engraving007
 6
CONTINUOUS
100
AcDbCircle
 10
280.739635321808
 20
2.608259012325
 30
 0
 40
20.253550124071
100
AcDbArc
 50
84.409925881469
 51
93.428225745209
0
ARC
  5
00000261
 39
 0.100 
 100
AcDbEntity
8
engraving007
 6
CONTINUOUS
100
AcDbCircle
 10
282.407038442885
 20
21.976330962131
 30
 0
 40
0.846229248632
100
AcDbArc
 50
0.553110948595
 51
68.837196113871
0
LWPOLYLINE
  5
00000262
 39
 0.100 
 100
AcDbEntity
8
engraving007
 6
CONTINUOUS
100
AcDbPolyline
 90
4
 70
8
 10
283.253228260870
 20
21.984500000000
 10
283.253228260870
 20
21.143434782609
 10
282.952847826087
 20
21.143434782609
 10
282.952847826087
 20
22.104652173913
0
ARC
  5
00000263
 39
 0.100 
 100
AcDbEntity
8
engraving007
 6
CONTINUOUS
100
AcDbCircle
 10
282.247989987325
 20
22.000555204716
 30
 0
 40
0.712503159193
100
AcDbArc
 50
8.401003880278
 51
81.598996119719
0
ARC
  5
00000264
 39
 0.100 
 100
AcDbEntity
8
engraving007
 6
CONTINUOUS
100
AcDbCircle
 10
280.940298913043
 20
9.937386193573
 30
 0
 40
12.845841938915
100
AcDbArc
 50
83.690314270416
 51
96.309685729584
0
ARC
  5
00000265
 39
 0.100 
 100
AcDbEntity
8
engraving007
 6
CONTINUOUS
100
AcDbCircle
 10
279.732488826228
 20
21.924624440893
 30
 0
 40
0.806993090882
100
AcDbArc
 50
104.641069945884
 51
184.283574470169
0
LINE
  5
00000266
 39
 0.100 
 100
AcDbEntity
8
engraving007
 6
CONTINUOUS
 100
AcDbLine
 10
278.927750000000
 20
20.182217391304
 30
 0.0
 11
278.927750000000
 21
21.864347826087
 31
0.0
0
ARC
  5
00000267
 39
 0.100 
 100
AcDbEntity
8
engraving007
 6
CONTINUOUS
100
AcDbCircle
 10
279.685791860839
 20
20.219346208665
 30
 0
 40
0.758950599092
100
AcDbArc
 50
182.804100822022
 51
267.195899177979
0
ARC
  5
00000268
 39
 0.100 
 100
AcDbEntity
8
engraving007
 6
CONTINUOUS
100
AcDbCircle
 10
281.000375000000
 20
40.898444855144
 30
 0
 40
21.479714112248
100
AcDbArc
 50
266.392009767599
 51
273.607990232401
0
ARC
  5
00000269
 39
 0.100 
 100
AcDbEntity
8
engraving007
 6
CONTINUOUS
100
AcDbCircle
 10
282.213929695524
 20
20.218910845553
 30
 0
 40
0.770100664955
100
AcDbArc
 50
280.334904343473
 51
343.639520648163
0
LWPOLYLINE
  5
0000026a
 39
 0.100 
 100
AcDbEntity
8
engraving007
 6
CONTINUOUS
100
AcDbPolyline
 90
4
 70
8
 10
282.952847826087
 20
20.001989130435
 10
282.472239130435
 20
20.122141304348
 10
283.493532608696
 20
20.122141304348
 10
283.493532608696
 20
20.062065217391
0
ARC
  5
0000026b
 39
 0.100 
 100
AcDbEntity
8
engraving007
 6
CONTINUOUS
100
AcDbCircle
 10
282.609150437717
 20
20.105382170979
 30
 0
 40
0.885442365608
100
AcDbArc
 50
272.804100822022
 51
357.195899177978
0
ARC
  5
0000026c
 39
 0.100 
 100
AcDbEntity
8
engraving007
 6
CONTINUOUS
100
AcDbCircle
 10
280.970336956522
 20
54.806226520598
 30
 0
 40
35.624961885199
100
AcDbArc
 50
267.293616092441
 51
272.706383907559
0
ARC
  5
0000026d
 39
 0.100 
 100
AcDbEntity
8
engraving007
 6
CONTINUOUS
100
AcDbCircle
 10
279.331523475326
 20
20.105382170979
 30
 0
 40
0.885442365608
100
AcDbArc
 50
182.804100822020
 51
267.195899177977
0
ARC
  5
0000026e
 39
 0.100 
 100
AcDbEntity
8
engraving007
 6
CONTINUOUS
100
AcDbCircle
 10
300.052457406140
 20
21.083358695652
 30
 0
 40
21.629441144585
100
AcDbArc
 50
177.293616092441
 51
182.706383907559
0
ARC
  5
0000026f
 39
 0.100 
 100
AcDbEntity
8
engraving007
 6
CONTINUOUS
100
AcDbCircle
 10
279.331523475326
 20
22.061335220326
 30
 0
 40
0.885442365608
100
AcDbArc
 50
92.804100822022
 51
177.195899177978
0
ARC
  5
00000270
 39
 0.100 
 100
AcDbEntity
8
engraving007
 6
CONTINUOUS
100
AcDbCircle
 10
280.970336956522
 20
1.615773673399
 30
 0
 40
21.396169325573
100
AcDbArc
 50
85.490850068130
 51
94.509149931870
0
ARC
  5
00000271
 39
 0.100 
 100
AcDbEntity
8
engraving007
 6
CONTINUOUS
100
AcDbCircle
 10
282.609150437717
 20
22.061335220326
 30
 0
 40
0.885442365608
100
AcDbArc
 50
2.804100822020
 51
87.195899177977
0
LWPOLYLINE
  5
00000272
 39
 0.100 
 100
AcDbEntity
8
engraving007
 6
CONTINUOUS
100
AcDbPolyline
 90
4
 70
8
 10
283.493532608696
 20
22.104652173913
 10
283.493532608696
 20
21.023282608696
 10
279.408358695652
 20
21.023282608696
 10
279.408358695652
 20
20.362445652174
0
ARC
  5
00000273
 39
 0.100 
 100
AcDbEntity
8
engraving007
 6
CONTINUOUS
100
AcDbCircle
 10
280.058990064609
 20
20.412316151566
 30
 0
 40
0.652539841681
100
AcDbArc
 50
184.383116326955
 51
265.616883673043
0
ARC
  5
00000274
 39
 0.100 
 100
AcDbEntity
8
engraving007
 6
CONTINUOUS
100
AcDbCircle
 10
280.940298913043
 20
34.529492687650
 30
 0
 40
14.797136388438
100
AcDbArc
 50
266.392009767599
 51
273.607990232401
0
ARC
  5
00000275
 39
 0.100 
 100
AcDbEntity
8
engraving007
 6
CONTINUOUS
100
AcDbCircle
 10
281.824677814160
 20
20.520547845965
 30
 0
 40
0.760304827513
100
AcDbArc
 50
273.529063895354
 51
328.398449168795
0
LWPOLYLINE
  5
00000276
 39
 0.100 
 100
AcDbEntity
8
engraving007
 6
CONTINUOUS
100
AcDbPolyline
 90
7
 70
8
 10
285.835826086957
 20
22.706413043478
 10
285.835826086957
 20
19.342152173913
 10
285.535445652174
 20
19.342152173913
 10
285.535445652174
 20
22.766489130435
 10
286.136206521739
 20
22.766489130435
 10
286.136206521739
 20
19.342152173913
 10
286.136206521739
 20
20.844054347826
0
ARC
  5
00000277
 39
 0.100 
 100
AcDbEntity
8
engraving007
 6
CONTINUOUS
100
AcDbCircle
 10
291.571052406068
 20
19.842525074354
 30
 0
 40
5.526356003012
100
AcDbArc
 50
155.141034701720
 51
169.558716858422
0
ARC
  5
00000278
 39
 0.100 
 100
AcDbEntity
8
engraving007
 6
CONTINUOUS
100
AcDbCircle
 10
287.508324447520
 20
21.625606232809
 30
 0
 40
1.094187562025
100
AcDbArc
 50
98.969651493317
 51
150.420655569151
0
ARC
  5
00000279
 39
 0.100 
 100
AcDbEntity
8
engraving007
 6
CONTINUOUS
100
AcDbCircle
 10
288.336325671502
 20
18.325549676195
 30
 0
 40
4.493234985100
100
AcDbArc
 50
81.249910935927
 51
102.840906041848
0
ARC
  5
0000027a
 39
 0.100 
 100
AcDbEntity
8
engraving007
 6
CONTINUOUS
100
AcDbCircle
 10
288.440087603401
 20
21.327088748875
 30
 0
 40
1.551775749857
100
AcDbArc
 50
-6.759751901778
 51
68.061087815887
0
ARC
  5
0000027b
 39
 0.100 
 100
AcDbEntity
8
engraving007
 6
CONTINUOUS
100
AcDbCircle
 10
294.228517521290
 20
19.992715291745
 30
 0
 40
4.400819983108
100
AcDbArc
 50
150.411023869690
 51
164.828706026393
0
ARC
  5
0000027c
 39
 0.100 
 100
AcDbEntity
8
engraving007
 6
CONTINUOUS
100
AcDbCircle
 10
291.542620727776
 20
21.385519646525
 30
 0
 40
1.382256828288
100
AcDbArc
 50
92.473001276505
 51
145.636206921649
0
ARC
  5
0000027d
 39
 0.100 
 100
AcDbEntity
8
engraving007
 6
CONTINUOUS
100
AcDbCircle
 10
291.916736281097
 20
14.806624418721
 30
 0
 40
7.971674369221
100
AcDbArc
 50
82.299637985890
 51
93.119141928833
0
ARC
  5
0000027e
 39
 0.100 
 100
AcDbEntity
8
engraving007
 6
CONTINUOUS
100
AcDbCircle
 10
292.902539436498
 20
21.907182305931
 30
 0
 40
0.803461145195
100
AcDbArc
 50
1.300942698679
 51
84.117837216046
0
LWPOLYLINE
  5
0000027f
 39
 0.100 
 100
AcDbEntity
8
engraving007
 6
CONTINUOUS
100
AcDbPolyline
 90
4
 70
8
 10
293.705793478261
 20
21.925423913043
 10
293.705793478261
 20
19.342152173913
 10
293.405413043478
 20
19.342152173913
 10
293.405413043478
 20
21.805271739130
0
ARC
  5
00000280
 39
 0.100 
 100
AcDbEntity
8
engraving007
 6
CONTINUOUS
100
AcDbCircle
 10
292.654693444208
 20
21.780452233278
 30
 0
 40
0.751129765486
100
AcDbArc
 50
1.893563404957
 51
83.127330751045
0
ARC
  5
00000281
 39
 0.100 
 100
AcDbEntity
8
engraving007
 6
CONTINUOUS
100
AcDbCircle
 10
292.023663043478
 20
16.826643422629
 30
 0
 40
5.744953205238
100
AcDbArc
 50
82.791158921648
 51
97.208841078351
0
ARC
  5
00000282
 39
 0.100 
 100
AcDbEntity
8
engraving007
 6
CONTINUOUS
100
AcDbCircle
 10
291.273903653583
 20
21.291645757347
 30
 0
 40
1.234875992396
100
AcDbArc
 50
88.661465390548
 51
134.941353582156
0
ARC
  5
00000283
 39
 0.100 
 100
AcDbEntity
8
engraving007
 6
CONTINUOUS
100
AcDbCircle
 10
291.672675769979
 20
19.762997326931
 30
 0
 40
2.718221375890
100
AcDbArc
 50
68.146317127993
 51
117.879257880375
0
ARC
  5
00000284
 39
 0.100 
 100
AcDbEntity
8
engraving007
 6
CONTINUOUS
100
AcDbCircle
 10
292.551444045956
 20
21.748509620285
 30
 0
 40
0.553598481917
100
AcDbArc
 50
-0.342987790715
 51
76.092955092913
0
LWPOLYLINE
  5
00000285
 39
 0.100 
 100
AcDbEntity
8
engraving007
 6
CONTINUOUS
100
AcDbPolyline
 90
3
 70
8
 10
293.105032608696
 20
21.745195652174
 10
293.105032608696
 20
19.342152173913
 10
293.105032608696
 20
21.745195652174
0
ARC
  5
00000286
 39
 0.100 
 100
AcDbEntity
8
engraving007
 6
CONTINUOUS
100
AcDbCircle
 10
292.551444045956
 20
21.748509620285
 30
 0
 40
0.553598481917
100
AcDbArc
 50
359.657012209283
 51
436.092955092910
0
ARC
  5
00000287
 39
 0.100 
 100
AcDbEntity
8
engraving007
 6
CONTINUOUS
100
AcDbCircle
 10
291.672675769979
 20
19.762997326931
 30
 0
 40
2.718221375890
100
AcDbArc
 50
68.146317127993
 51
117.879257880375
0
ARC
  5
00000288
 39
 0.100 
 100
AcDbEntity
8
engraving007
 6
CONTINUOUS
100
AcDbCircle
 10
294.228517521290
 20
19.992715291745
 30
 0
 40
4.400819983108
100
AcDbArc
 50
150.411023869690
 51
164.828706026393
0
LWPOLYLINE
  5
00000289
 39
 0.100 
 100
AcDbEntity
8
engraving007
 6
CONTINUOUS
100
AcDbPolyline
 90
4
 70
8
 10
289.981076086957
 20
21.144434782609
 10
289.981076086957
 20
19.342152173913
 10
289.680695652174
 20
19.342152173913
 10
289.680695652174
 20
21.384739130435
0
ARC
  5
0000028a
 39
 0.100 
 100
AcDbEntity
8
engraving007
 6
CONTINUOUS
100
AcDbCircle
 10
288.431101217477
 20
21.427085084838
 30
 0
 40
1.250311733561
100
AcDbArc
 50
358.059117191555
 51
427.988617920041
0
ARC
  5
0000028b
 39
 0.100 
 100
AcDbEntity
8
engraving007
 6
CONTINUOUS
100
AcDbCircle
 10
288.233207867062
 20
19.006545037551
 30
 0
 40
3.641234116980
100
AcDbArc
 50
79.453003838850
 51
108.175145829730
0
ARC
  5
0000028c
 39
 0.100 
 100
AcDbEntity
8
engraving007
 6
CONTINUOUS
100
AcDbCircle
 10
287.193707274193
 20
21.809494607119
 30
 0
 40
0.663635854135
100
AcDbArc
 50
98.342179849141
 51
141.147582744738
0
ARC
  5
0000028d
 39
 0.100 
 100
AcDbEntity
8
engraving007
 6
CONTINUOUS
100
AcDbCircle
 10
288.071911767313
 20
17.874503168252
 30
 0
 40
4.569453364184
100
AcDbArc
 50
82.613087361025
 51
107.775770454445
0
ARC
  5
0000028e
 39
 0.100 
 100
AcDbEntity
8
engraving007
 6
CONTINUOUS
100
AcDbCircle
 10
288.426813634980
 20
21.480640117540
 30
 0
 40
0.954174350489
100
AcDbArc
 50
-2.151701241584
 51
75.891496533270
0
LWPOLYLINE
  5
0000028f
 39
 0.100 
 100
AcDbEntity
8
engraving007
 6
CONTINUOUS
100
AcDbPolyline
 90
5
 70
8
 10
289.380315217391
 20
21.444815217391
 10
289.380315217391
 20
19.342152173913
 10
289.079934782609
 20
19.222000000000
 10
290.161304347826
 20
19.222000000000
 10
290.161304347826
 20
21.504891304348
0
ARC
  5
00000290
 39
 0.100 
 100
AcDbEntity
8
engraving007
 6
CONTINUOUS
100
AcDbCircle
 10
290.870420954938
 20
21.524734349146
 30
 0
 40
0.709394184434
100
AcDbArc
 50
98.785981649052
 51
181.602876166420
0
ARC
  5
00000291
 39
 0.100 
 100
AcDbEntity
8
engraving007
 6
CONTINUOUS
100
AcDbCircle
 10
291.513016304348
 20
16.288782097847
 30
 0
 40
5.984326255456
100
AcDbArc
 50
82.791158921649
 51
97.208841078352
0
ARC
  5
00000292
 39
 0.100 
 100
AcDbEntity
8
engraving007
 6
CONTINUOUS
100
AcDbCircle
 10
292.155611653757
 20
21.524734349146
 30
 0
 40
0.709394184434
100
AcDbArc
 50
-1.602876166414
 51
81.214018350954
0
LWPOLYLINE
  5
00000293
 39
 0.100 
 100
AcDbEntity
8
engraving007
 6
CONTINUOUS
100
AcDbPolyline
 90
4
 70
8
 10
292.864728260870
 20
21.504891304348
 10
292.864728260870
 20
19.222000000000
 10
293.946097826087
 20
19.222000000000
 10
293.946097826087
 20
21.985500000000
0
ARC
  5
00000294
 39
 0.100 
 100
AcDbEntity
8
engraving007
 6
CONTINUOUS
100
AcDbCircle
 10
292.993622400501
 20
21.995572970578
 30
 0
 40
0.952528687800
100
AcDbArc
 50
359.394087058854
 51
446.910692409155
0
ARC
  5
00000295
 39
 0.100 
 100
AcDbEntity
8
engraving007
 6
CONTINUOUS
100
AcDbCircle
 10
292.203891304348
 20
5.154104131005
 30
 0
 40
17.812480942600
100
AcDbArc
 50
87.293616092441
 51
92.706383907559
0
ARC
  5
00000296
 39
 0.100 
 100
AcDbEntity
8
engraving007
 6
CONTINUOUS
100
AcDbCircle
 10
291.717905063073
 20
21.450192763014
 30
 0
 40
1.538072508811
100
AcDbArc
 50
103.347691847657
 51
166.652308152347
0
ARC
  5
00000297
 39
 0.100 
 100
AcDbEntity
8
engraving007
 6
CONTINUOUS
100
AcDbCircle
 10
288.656635606320
 20
21.405832416514
 30
 0
 40
1.614923574245
100
AcDbArc
 50
14.320313807908
 51
72.583370794134
0
ARC
  5
00000298
 39
 0.100 
 100
AcDbEntity
8
engraving007
 6
CONTINUOUS
100
AcDbCircle
 10
288.359021739130
 20
15.883553601995
 30
 0
 40
7.106210434294
100
AcDbArc
 50
83.690314270416
 51
96.309685729584
0
ARC
  5
00000299
 39
 0.100 
 100
AcDbEntity
8
engraving007
 6
CONTINUOUS
100
AcDbCircle
 10
287.718578064970
 20
21.604650195899
 30
 0
 40
1.349406307330
100
AcDbArc
 50
95.978401112571
 51
174.021598887424
0
LWPOLYLINE
  5
0000029a
 39
 0.100 
 100
AcDbEntity
8
engraving007
 6
CONTINUOUS
100
AcDbPolyline
 90
6
 70
8
 10
286.376510869565
 20
21.745195652174
 10
286.376510869565
 20
22.946717391304
 10
285.295141304348
 20
22.946717391304
 10
285.295141304348
 20
19.222000000000
 10
286.376510869565
 20
19.222000000000
 10
286.376510869565
 20
21.504891304348
0
ARC
  5
0000029b
 39
 0.100 
 100
AcDbEntity
8
engraving007
 6
CONTINUOUS
100
AcDbCircle
 10
287.085627476677
 20
21.524734349146
 30
 0
 40
0.709394184434
100
AcDbArc
 50
98.785981649052
 51
181.602876166420
0
ARC
  5
0000029c
 39
 0.100 
 100
AcDbEntity
8
engraving007
 6
CONTINUOUS
100
AcDbCircle
 10
287.728222826087
 20
16.288782097847
 30
 0
 40
5.984326255456
100
AcDbArc
 50
82.791158921649
 51
97.208841078351
0
ARC
  5
0000029d
 39
 0.100 
 100
AcDbEntity
8
engraving007
 6
CONTINUOUS
100
AcDbCircle
 10
288.370818175496
 20
21.524734349146
 30
 0
 40
0.709394184434
100
AcDbArc
 50
-1.602876166418
 51
81.214018350949
0
LINE
  5
0000029e
 39
 0.100 
 100
AcDbEntity
8
engraving007
 6
CONTINUOUS
 100
AcDbLine
 10
289.079934782609
 20
19.222000000000
 30
 0.0
 11
289.079934782609
 21
21.504891304348
 31
0.0
0
ARC
  5
0000029f
 39
 0.100 
 100
AcDbEntity
8
engraving007
 6
CONTINUOUS
100
AcDbCircle
 10
100.528288888889
 20
36.257333333333
 30
 0
 40
1.542755555556
100
AcDbArc
 50
180.000000000000
 51
360.000000000000
0
LINE
  5
000002a0
 39
 0.100 
 100
AcDbEntity
8
engraving007
 6
CONTINUOUS
 100
AcDbLine
 10
102.071044444444
 20
37.703666666667
 30
 0.0
 11
102.071044444444
 21
36.257333333333
 31
0.0
0
ARC
  5
000002a1
 39
 0.100 
 100
AcDbEntity
8
engraving007
 6
CONTINUOUS
100
AcDbCircle
 10
100.528288888889
 20
37.703666666667
 30
 0
 40
1.542755555556
100
AcDbArc
 50
0.000000000000
 51
180.000000000000
0
LINE
  5
000002a2
 39
 0.100 
 100
AcDbEntity
8
engraving007
 6
CONTINUOUS
 100
AcDbLine
 10
98.985533333333
 20
36.257333333333
 30
 0.0
 11
98.985533333333
 21
37.703666666667
 31
0.0
0
LWPOLYLINE
  5
000002a3
 39
 0.100 
 100
AcDbEntity
8
engraving007
 6
CONTINUOUS
100
AcDbPolyline
 90
4
 70
8
 10
103.227533333333
 20
34.811000000000
 10
103.227533333333
 20
39.150000000000
 10
106.120200000000
 20
34.811000000000
 10
106.120200000000
 20
39.150000000000
0
ARC
  5
000002a4
 39
 0.100 
 100
AcDbEntity
8
engraving007
 6
CONTINUOUS
100
AcDbCircle
 10
99.029288888889
 20
6.257333333333
 30
 0
 40
1.542755555556
100
AcDbArc
 50
180.000000000000
 51
360.000000000000
0
LINE
  5
000002a5
 39
 0.100 
 100
AcDbEntity
8
engraving007
 6
CONTINUOUS
 100
AcDbLine
 10
100.572044444444
 20
7.703666666667
 30
 0.0
 11
100.572044444444
 21
6.257333333333
 31
0.0
0
ARC
  5
000002a6
 39
 0.100 
 100
AcDbEntity
8
engraving007
 6
CONTINUOUS
100
AcDbCircle
 10
99.029288888889
 20
7.703666666667
 30
 0
 40
1.542755555556
100
AcDbArc
 50
0.000000000000
 51
180.000000000000
0
LINE
  5
000002a7
 39
 0.100 
 100
AcDbEntity
8
engraving007
 6
CONTINUOUS
 100
AcDbLine
 10
97.486533333333
 20
6.257333333333
 30
 0.0
 11
97.486533333333
 21
7.703666666667
 31
0.0
0
LINE
  5
000002a8
 39
 0.100 
 100
AcDbEntity
8
engraving007
 6
CONTINUOUS
 100
AcDbLine
 10
104.140088888889
 20
6.980500000000
 30
 0.0
 11
101.729533333333
 21
6.980500000000
 31
0.0
0
LWPOLYLINE
  5
000002a9
 39
 0.100 
 100
AcDbEntity
8
engraving007
 6
CONTINUOUS
100
AcDbPolyline
 90
3
 70
8
 10
104.622200000000
 20
9.150000000000
 10
101.729533333333
 20
9.150000000000
 10
101.729533333333
 20
4.811000000000
0
LINE
  5
000002aa
 39
 0.100 
 100
AcDbEntity
8
engraving007
 6
CONTINUOUS
 100
AcDbLine
 10
108.189088888889
 20
6.980500000000
 30
 0.0
 11
105.778533333333
 21
6.980500000000
 31
0.0
0
LWPOLYLINE
  5
000002ab
 39
 0.100 
 100
AcDbEntity
8
engraving007
 6
CONTINUOUS
100
AcDbPolyline
 90
3
 70
8
 10
108.671200000000
 20
9.150000000000
 10
105.778533333333
 20
9.150000000000
 10
105.778533333333
 20
4.811000000000
0
CIRCLE
  5
000002ac
 39
 0.100 
 100
AcDbEntity
8
contour007
 6
CONTINUOUS
100
AcDbCircle
 10
454.800000000000
 20
38.750000000000
 30
 0
 40
5.000000000000
0
CIRCLE
  5
000002ad
 39
 0.100 
 100
AcDbEntity
8
contour007
 6
CONTINUOUS
100
AcDbCircle
 10
454.800000000000
 20
38.750000000000
 30
 0
 40
3.201000000000
0
CIRCLE
  5
000002ae
 39
 0.100 
 100
AcDbEntity
8
contour007
 6
CONTINUOUS
100
AcDbCircle
 10
454.800000000000
 20
38.750000000000
 30
 0
 40
3.201000000000
0
CIRCLE
  5
000002af
 39
 0.100 
 100
AcDbEntity
8
contour007
 6
CONTINUOUS
100
AcDbCircle
 10
28.199000000000
 20
38.750000000000
 30
 0
 40
5.000000000000
0
CIRCLE
  5
000002b0
 39
 0.100 
 100
AcDbEntity
8
contour007
 6
CONTINUOUS
100
AcDbCircle
 10
28.199000000000
 20
38.750000000000
 30
 0
 40
3.201000000000
0
CIRCLE
  5
000002b1
 39
 0.100 
 100
AcDbEntity
8
contour007
 6
CONTINUOUS
100
AcDbCircle
 10
28.199000000000
 20
38.750000000000
 30
 0
 40
3.201000000000
0
CIRCLE
  5
000002b2
 39
 0.100 
 100
AcDbEntity
8
contour007
 6
CONTINUOUS
100
AcDbCircle
 10
454.800000000000
 20
5.199000000000
 30
 0
 40
5.000000000000
0
CIRCLE
  5
000002b3
 39
 0.100 
 100
AcDbEntity
8
contour007
 6
CONTINUOUS
100
AcDbCircle
 10
454.800000000000
 20
5.199000000000
 30
 0
 40
3.201000000000
0
CIRCLE
  5
000002b4
 39
 0.100 
 100
AcDbEntity
8
contour007
 6
CONTINUOUS
100
AcDbCircle
 10
454.800000000000
 20
5.199000000000
 30
 0
 40
3.201000000000
0
CIRCLE
  5
000002b5
 39
 0.100 
 100
AcDbEntity
8
contour007
 6
CONTINUOUS
100
AcDbCircle
 10
28.199000000000
 20
5.199000000000
 30
 0
 40
5.000000000000
0
CIRCLE
  5
000002b6
 39
 0.100 
 100
AcDbEntity
8
contour007
 6
CONTINUOUS
100
AcDbCircle
 10
28.199000000000
 20
5.199000000000
 30
 0
 40
3.201000000000
0
CIRCLE
  5
000002b7
 39
 0.100 
 100
AcDbEntity
8
contour007
 6
CONTINUOUS
100
AcDbCircle
 10
28.199000000000
 20
5.199000000000
 30
 0
 40
3.201000000000
0
CIRCLE
  5
000002b8
 39
 0.100 
 100
AcDbEntity
8
contour007
 6
CONTINUOUS
100
AcDbCircle
 10
172.000000000000
 20
35.449000000000
 30
 0
 40
3.000000000000
0
CIRCLE
  5
000002b9
 39
 0.100 
 100
AcDbEntity
8
contour007
 6
CONTINUOUS
100
AcDbCircle
 10
172.000000000000
 20
35.449000000000
 30
 0
 40
1.600000000000
0
CIRCLE
  5
000002ba
 39
 0.100 
 100
AcDbEntity
8
contour007
 6
CONTINUOUS
100
AcDbCircle
 10
172.000000000000
 20
35.449000000000
 30
 0
 40
1.600000000000
0
CIRCLE
  5
000002bb
 39
 0.100 
 100
AcDbEntity
8
contour007
 6
CONTINUOUS
100
AcDbCircle
 10
311.000000000000
 20
35.449000000000
 30
 0
 40
3.000000000000
0
CIRCLE
  5
000002bc
 39
 0.100 
 100
AcDbEntity
8
contour007
 6
CONTINUOUS
100
AcDbCircle
 10
311.000000000000
 20
35.449000000000
 30
 0
 40
1.600000000000
0
CIRCLE
  5
000002bd
 39
 0.100 
 100
AcDbEntity
8
contour007
 6
CONTINUOUS
100
AcDbCircle
 10
311.000000000000
 20
35.449000000000
 30
 0
 40
1.600000000000
0
CIRCLE
  5
000002be
 39
 0.100 
 100
AcDbEntity
8
contour007
 6
CONTINUOUS
100
AcDbCircle
 10
172.000000000000
 20
8.500000000000
 30
 0
 40
3.000000000000
0
CIRCLE
  5
000002bf
 39
 0.100 
 100
AcDbEntity
8
contour007
 6
CONTINUOUS
100
AcDbCircle
 10
172.000000000000
 20
8.500000000000
 30
 0
 40
1.600000000000
0
CIRCLE
  5
000002c0
 39
 0.100 
 100
AcDbEntity
8
contour007
 6
CONTINUOUS
100
AcDbCircle
 10
172.000000000000
 20
8.500000000000
 30
 0
 40
1.600000000000
0
CIRCLE
  5
000002c1
 39
 0.100 
 100
AcDbEntity
8
contour007
 6
CONTINUOUS
100
AcDbCircle
 10
311.000000000000
 20
8.500000000000
 30
 0
 40
3.000000000000
0
CIRCLE
  5
000002c2
 39
 0.100 
 100
AcDbEntity
8
contour007
 6
CONTINUOUS
100
AcDbCircle
 10
311.000000000000
 20
8.500000000000
 30
 0
 40
1.600000000000
0
CIRCLE
  5
000002c3
 39
 0.100 
 100
AcDbEntity
8
contour007
 6
CONTINUOUS
100
AcDbCircle
 10
311.000000000000
 20
8.500000000000
 30
 0
 40
1.600000000000
0
ARC
  5
000002c4
 39
 0.100 
 100
AcDbEntity
8
contour007
 6
CONTINUOUS
100
AcDbCircle
 10
474.000000000000
 20
38.000000000000
 30
 0
 40
5.250334179840
100
AcDbArc
 50
142.171914976921
 51
217.828085023079
0
ARC
  5
000002c5
 39
 0.100 
 100
AcDbEntity
8
contour007
 6
CONTINUOUS
100
AcDbCircle
 10
471.037736275573
 20
35.699999976816
 30
 0
 40
1.500000000000
100
AcDbArc
 50
217.830915774712
 51
270.010073531146
0
LINE
  5
000002c6
 39
 0.100 
 100
AcDbEntity
8
contour007
 6
CONTINUOUS
 100
AcDbLine
 10
476.962000000000
 20
34.200000000000
 30
 0.0
 11
471.038000000000
 21
34.200000000000
 31
0.0
0
ARC
  5
000002c7
 39
 0.100 
 100
AcDbEntity
8
contour007
 6
CONTINUOUS
100
AcDbCircle
 10
476.962263724427
 20
35.699999976816
 30
 0
 40
1.500000000000
100
AcDbArc
 50
269.989926468855
 51
322.169084225289
0
ARC
  5
000002c8
 39
 0.100 
 100
AcDbEntity
8
contour007
 6
CONTINUOUS
100
AcDbCircle
 10
474.000000000000
 20
38.000000000000
 30
 0
 40
5.250334179840
100
AcDbArc
 50
322.171914976921
 51
397.828085023079
0
ARC
  5
000002c9
 39
 0.100 
 100
AcDbEntity
8
contour007
 6
CONTINUOUS
100
AcDbCircle
 10
476.962263724427
 20
40.300000023184
 30
 0
 40
1.500000000000
100
AcDbArc
 50
37.830915774712
 51
90.010073531146
0
LINE
  5
000002ca
 39
 0.100 
 100
AcDbEntity
8
contour007
 6
CONTINUOUS
 100
AcDbLine
 10
471.038000000000
 20
41.800000000000
 30
 0.0
 11
476.962000000000
 21
41.800000000000
 31
0.0
0
ARC
  5
000002cb
 39
 0.100 
 100
AcDbEntity
8
contour007
 6
CONTINUOUS
100
AcDbCircle
 10
471.037736275573
 20
40.300000023184
 30
 0
 40
1.500000000000
100
AcDbArc
 50
89.989926468855
 51
142.169084225289
0
ARC
  5
000002cc
 39
 0.100 
 100
AcDbEntity
8
contour007
 6
CONTINUOUS
100
AcDbCircle
 10
9.000000000000
 20
38.000000000000
 30
 0
 40
5.250334179840
100
AcDbArc
 50
142.171914976921
 51
217.828085023079
0
ARC
  5
000002cd
 39
 0.100 
 100
AcDbEntity
8
contour007
 6
CONTINUOUS
100
AcDbCircle
 10
6.037736275573
 20
35.699999976816
 30
 0
 40
1.500000000000
100
AcDbArc
 50
217.830915774713
 51
270.010073531147
0
LINE
  5
000002ce
 39
 0.100 
 100
AcDbEntity
8
contour007
 6
CONTINUOUS
 100
AcDbLine
 10
11.962000000000
 20
34.200000000000
 30
 0.0
 11
6.038000000000
 21
34.200000000000
 31
0.0
0
ARC
  5
000002cf
 39
 0.100 
 100
AcDbEntity
8
contour007
 6
CONTINUOUS
100
AcDbCircle
 10
11.962263724427
 20
35.699999976816
 30
 0
 40
1.500000000000
100
AcDbArc
 50
269.989926468852
 51
322.169084225287
0
ARC
  5
000002d0
 39
 0.100 
 100
AcDbEntity
8
contour007
 6
CONTINUOUS
100
AcDbCircle
 10
9.000000000000
 20
38.000000000000
 30
 0
 40
5.250334179840
100
AcDbArc
 50
322.171914976921
 51
397.828085023079
0
ARC
  5
000002d1
 39
 0.100 
 100
AcDbEntity
8
contour007
 6
CONTINUOUS
100
AcDbCircle
 10
11.962263724427
 20
40.300000023184
 30
 0
 40
1.500000000000
100
AcDbArc
 50
37.830915774713
 51
90.010073531148
0
LINE
  5
000002d2
 39
 0.100 
 100
AcDbEntity
8
contour007
 6
CONTINUOUS
 100
AcDbLine
 10
6.038000000000
 20
41.800000000000
 30
 0.0
 11
11.962000000000
 21
41.800000000000
 31
0.0
0
ARC
  5
000002d3
 39
 0.100 
 100
AcDbEntity
8
contour007
 6
CONTINUOUS
100
AcDbCircle
 10
6.037736275573
 20
40.300000023184
 30
 0
 40
1.500000000000
100
AcDbArc
 50
89.989926468853
 51
142.169084225287
0
ARC
  5
000002d4
 39
 0.100 
 100
AcDbEntity
8
contour007
 6
CONTINUOUS
100
AcDbCircle
 10
474.000000000000
 20
5.949000000000
 30
 0
 40
5.250334179840
100
AcDbArc
 50
142.171914976921
 51
217.828085023079
0
ARC
  5
000002d5
 39
 0.100 
 100
AcDbEntity
8
contour007
 6
CONTINUOUS
100
AcDbCircle
 10
471.037736275573
 20
3.648999976816
 30
 0
 40
1.500000000000
100
AcDbArc
 50
217.830915774712
 51
270.010073531146
0
LINE
  5
000002d6
 39
 0.100 
 100
AcDbEntity
8
contour007
 6
CONTINUOUS
 100
AcDbLine
 10
476.962000000000
 20
2.149000000000
 30
 0.0
 11
471.038000000000
 21
2.149000000000
 31
0.0
0
ARC
  5
000002d7
 39
 0.100 
 100
AcDbEntity
8
contour007
 6
CONTINUOUS
100
AcDbCircle
 10
476.962263724427
 20
3.648999976816
 30
 0
 40
1.500000000000
100
AcDbArc
 50
269.989926468855
 51
322.169084225289
0
ARC
  5
000002d8
 39
 0.100 
 100
AcDbEntity
8
contour007
 6
CONTINUOUS
100
AcDbCircle
 10
474.000000000000
 20
5.949000000000
 30
 0
 40
5.250334179840
100
AcDbArc
 50
322.171914976921
 51
397.828085023079
0
ARC
  5
000002d9
 39
 0.100 
 100
AcDbEntity
8
contour007
 6
CONTINUOUS
100
AcDbCircle
 10
476.962263724427
 20
8.249000023184
 30
 0
 40
1.500000000000
100
AcDbArc
 50
37.830915774712
 51
90.010073531146
0
LINE
  5
000002da
 39
 0.100 
 100
AcDbEntity
8
contour007
 6
CONTINUOUS
 100
AcDbLine
 10
471.038000000000
 20
9.749000000000
 30
 0.0
 11
476.962000000000
 21
9.749000000000
 31
0.0
0
ARC
  5
000002db
 39
 0.100 
 100
AcDbEntity
8
contour007
 6
CONTINUOUS
100
AcDbCircle
 10
471.037736275573
 20
8.249000023184
 30
 0
 40
1.500000000000
100
AcDbArc
 50
89.989926468855
 51
142.169084225289
0
ARC
  5
000002dc
 39
 0.100 
 100
AcDbEntity
8
contour007
 6
CONTINUOUS
100
AcDbCircle
 10
9.000000000000
 20
5.949000000000
 30
 0
 40
5.250334179840
100
AcDbArc
 50
142.171914976921
 51
217.828085023079
0
ARC
  5
000002dd
 39
 0.100 
 100
AcDbEntity
8
contour007
 6
CONTINUOUS
100
AcDbCircle
 10
6.037736275573
 20
3.648999976816
 30
 0
 40
1.500000000000
100
AcDbArc
 50
217.830915774713
 51
270.010073531147
0
LINE
  5
000002de
 39
 0.100 
 100
AcDbEntity
8
contour007
 6
CONTINUOUS
 100
AcDbLine
 10
11.962000000000
 20
2.149000000000
 30
 0.0
 11
6.038000000000
 21
2.149000000000
 31
0.0
0
ARC
  5
000002df
 39
 0.100 
 100
AcDbEntity
8
contour007
 6
CONTINUOUS
100
AcDbCircle
 10
11.962263724427
 20
3.648999976816
 30
 0
 40
1.500000000000
100
AcDbArc
 50
269.989926468853
 51
322.169084225287
0
ARC
  5
000002e0
 39
 0.100 
 100
AcDbEntity
8
contour007
 6
CONTINUOUS
100
AcDbCircle
 10
9.000000000000
 20
5.949000000000
 30
 0
 40
5.250334179840
100
AcDbArc
 50
322.171914976921
 51
397.828085023079
0
ARC
  5
000002e1
 39
 0.100 
 100
AcDbEntity
8
contour007
 6
CONTINUOUS
100
AcDbCircle
 10
11.962263724427
 20
8.249000023184
 30
 0
 40
1.500000000000
100
AcDbArc
 50
37.830915774713
 51
90.010073531147
0
LINE
  5
000002e2
 39
 0.100 
 100
AcDbEntity
8
contour007
 6
CONTINUOUS
 100
AcDbLine
 10
6.038000000000
 20
9.749000000000
 30
 0.0
 11
11.962000000000
 21
9.749000000000
 31
0.0
0
ARC
  5
000002e3
 39
 0.100 
 100
AcDbEntity
8
contour007
 6
CONTINUOUS
100
AcDbCircle
 10
6.037736275573
 20
8.249000023184
 30
 0
 40
1.500000000000
100
AcDbArc
 50
89.989926468853
 51
142.169084225287
0
ARC
  5
000002e4
 39
 0.100 
 100
AcDbEntity
8
contour007
 6
CONTINUOUS
100
AcDbCircle
 10
96.852553390593
 20
12.432553390593
 30
 0
 40
0.500000000000
100
AcDbArc
 50
135.000000000000
 51
315.000000000000
0
LINE
  5
000002e5
 39
 0.100 
 100
AcDbEntity
8
contour007
 6
CONTINUOUS
 100
AcDbLine
 10
108.791893218813
 20
12.079000000000
 30
 0.0
 11
97.206106781187
 21
12.079000000000
 31
0.0
0
ARC
  5
000002e6
 39
 0.100 
 100
AcDbEntity
8
contour007
 6
CONTINUOUS
100
AcDbCircle
 10
109.145446609407
 20
12.432553390593
 30
 0
 40
0.500000000000
100
AcDbArc
 50
225.000000000000
 51
405.000000000000
0
LINE
  5
000002e7
 39
 0.100 
 100
AcDbEntity
8
contour007
 6
CONTINUOUS
 100
AcDbLine
 10
109.499000000000
 20
31.171893218813
 30
 0.0
 11
109.499000000000
 21
12.786106781187
 31
0.0
0
ARC
  5
000002e8
 39
 0.100 
 100
AcDbEntity
8
contour007
 6
CONTINUOUS
100
AcDbCircle
 10
109.145446609407
 20
31.525446609407
 30
 0
 40
0.500000000000
100
AcDbArc
 50
315.000000000000
 51
495.000000000000
0
LINE
  5
000002e9
 39
 0.100 
 100
AcDbEntity
8
contour007
 6
CONTINUOUS
 100
AcDbLine
 10
97.206106781187
 20
31.879000000000
 30
 0.0
 11
108.791893218813
 21
31.879000000000
 31
0.0
0
ARC
  5
000002ea
 39
 0.100 
 100
AcDbEntity
8
contour007
 6
CONTINUOUS
100
AcDbCircle
 10
96.852553390593
 20
31.525446609407
 30
 0
 40
0.500000000000
100
AcDbArc
 50
45.000000000000
 51
225.000000000000
0
LINE
  5
000002eb
 39
 0.100 
 100
AcDbEntity
8
contour007
 6
CONTINUOUS
 100
AcDbLine
 10
96.499000000000
 20
12.786106781187
 30
 0.0
 11
96.499000000000
 21
31.171893218813
 31
0.0
0
LINE
  5
000002ec
 39
 0.100 
 100
AcDbEntity
8
reference_cross001
 6
CONTINUOUS
 100
AcDbLine
 10
455.550000000000
 20
38.750000000000
 30
 0.0
 11
454.050000000000
 21
38.750000000000
 31
0.0
0
LINE
  5
000002ed
 39
 0.100 
 100
AcDbEntity
8
reference_cross001
 6
CONTINUOUS
 100
AcDbLine
 10
454.800000000000
 20
38.000000000000
 30
 0.0
 11
454.800000000000
 21
39.500000000000
 31
0.0
0
LINE
  5
000002ee
 39
 0.100 
 100
AcDbEntity
8
reference_cross001
 6
CONTINUOUS
 100
AcDbLine
 10
28.949000000000
 20
38.750000000000
 30
 0.0
 11
27.449000000000
 21
38.750000000000
 31
0.0
0
LINE
  5
000002ef
 39
 0.100 
 100
AcDbEntity
8
reference_cross001
 6
CONTINUOUS
 100
AcDbLine
 10
28.199000000000
 20
38.000000000000
 30
 0.0
 11
28.199000000000
 21
39.500000000000
 31
0.0
0
LINE
  5
000002f0
 39
 0.100 
 100
AcDbEntity
8
reference_cross001
 6
CONTINUOUS
 100
AcDbLine
 10
455.550000000000
 20
5.199000000000
 30
 0.0
 11
454.050000000000
 21
5.199000000000
 31
0.0
0
LINE
  5
000002f1
 39
 0.100 
 100
AcDbEntity
8
reference_cross001
 6
CONTINUOUS
 100
AcDbLine
 10
454.800000000000
 20
4.449000000000
 30
 0.0
 11
454.800000000000
 21
5.949000000000
 31
0.0
0
LINE
  5
000002f2
 39
 0.100 
 100
AcDbEntity
8
reference_cross001
 6
CONTINUOUS
 100
AcDbLine
 10
28.949000000000
 20
5.199000000000
 30
 0.0
 11
27.449000000000
 21
5.199000000000
 31
0.0
0
LINE
  5
000002f3
 39
 0.100 
 100
AcDbEntity
8
reference_cross001
 6
CONTINUOUS
 100
AcDbLine
 10
28.199000000000
 20
4.449000000000
 30
 0.0
 11
28.199000000000
 21
5.949000000000
 31
0.0
0
LINE
  5
000002f4
 39
 0.100 
 100
AcDbEntity
8
reference_cross001
 6
CONTINUOUS
 100
AcDbLine
 10
172.750000000000
 20
35.449000000000
 30
 0.0
 11
171.250000000000
 21
35.449000000000
 31
0.0
0
LINE
  5
000002f5
 39
 0.100 
 100
AcDbEntity
8
reference_cross001
 6
CONTINUOUS
 100
AcDbLine
 10
172.000000000000
 20
34.699000000000
 30
 0.0
 11
172.000000000000
 21
36.199000000000
 31
0.0
0
LINE
  5
000002f6
 39
 0.100 
 100
AcDbEntity
8
reference_cross001
 6
CONTINUOUS
 100
AcDbLine
 10
172.750000000000
 20
36.949000000000
 30
 0.0
 11
171.250000000000
 21
36.949000000000
 31
0.0
0
LINE
  5
000002f7
 39
 0.100 
 100
AcDbEntity
8
reference_cross001
 6
CONTINUOUS
 100
AcDbLine
 10
172.000000000000
 20
36.199000000000
 30
 0.0
 11
172.000000000000
 21
37.699000000000
 31
0.0
0
LINE
  5
000002f8
 39
 0.100 
 100
AcDbEntity
8
reference_cross001
 6
CONTINUOUS
 100
AcDbLine
 10
311.750000000000
 20
35.449000000000
 30
 0.0
 11
310.250000000000
 21
35.449000000000
 31
0.0
0
LINE
  5
000002f9
 39
 0.100 
 100
AcDbEntity
8
reference_cross001
 6
CONTINUOUS
 100
AcDbLine
 10
311.000000000000
 20
34.699000000000
 30
 0.0
 11
311.000000000000
 21
36.199000000000
 31
0.0
0
LINE
  5
000002fa
 39
 0.100 
 100
AcDbEntity
8
reference_cross001
 6
CONTINUOUS
 100
AcDbLine
 10
311.750000000000
 20
36.949000000000
 30
 0.0
 11
310.250000000000
 21
36.949000000000
 31
0.0
0
LINE
  5
000002fb
 39
 0.100 
 100
AcDbEntity
8
reference_cross001
 6
CONTINUOUS
 100
AcDbLine
 10
311.000000000000
 20
36.199000000000
 30
 0.0
 11
311.000000000000
 21
37.699000000000
 31
0.0
0
LINE
  5
000002fc
 39
 0.100 
 100
AcDbEntity
8
reference_cross001
 6
CONTINUOUS
 100
AcDbLine
 10
172.750000000000
 20
8.500000000000
 30
 0.0
 11
171.250000000000
 21
8.500000000000
 31
0.0
0
LINE
  5
000002fd
 39
 0.100 
 100
AcDbEntity
8
reference_cross001
 6
CONTINUOUS
 100
AcDbLine
 10
172.000000000000
 20
7.750000000000
 30
 0.0
 11
172.000000000000
 21
9.250000000000
 31
0.0
0
LINE
  5
000002fe
 39
 0.100 
 100
AcDbEntity
8
reference_cross001
 6
CONTINUOUS
 100
AcDbLine
 10
172.750000000000
 20
7.000000000000
 30
 0.0
 11
171.250000000000
 21
7.000000000000
 31
0.0
0
LINE
  5
000002ff
 39
 0.100 
 100
AcDbEntity
8
reference_cross001
 6
CONTINUOUS
 100
AcDbLine
 10
172.000000000000
 20
6.250000000000
 30
 0.0
 11
172.000000000000
 21
7.750000000000
 31
0.0
0
LINE
  5
00000300
 39
 0.100 
 100
AcDbEntity
8
reference_cross001
 6
CONTINUOUS
 100
AcDbLine
 10
311.750000000000
 20
8.500000000000
 30
 0.0
 11
310.250000000000
 21
8.500000000000
 31
0.0
0
LINE
  5
00000301
 39
 0.100 
 100
AcDbEntity
8
reference_cross001
 6
CONTINUOUS
 100
AcDbLine
 10
311.000000000000
 20
7.750000000000
 30
 0.0
 11
311.000000000000
 21
9.250000000000
 31
0.0
0
LINE
  5
00000302
 39
 0.100 
 100
AcDbEntity
8
reference_cross001
 6
CONTINUOUS
 100
AcDbLine
 10
311.750000000000
 20
7.000000000000
 30
 0.0
 11
310.250000000000
 21
7.000000000000
 31
0.0
0
LINE
  5
00000303
 39
 0.100 
 100
AcDbEntity
8
reference_cross001
 6
CONTINUOUS
 100
AcDbLine
 10
311.000000000000
 20
6.250000000000
 30
 0.0
 11
311.000000000000
 21
7.750000000000
 31
0.0
0
LINE
  5
00000304
 39
 0.100 
 100
AcDbEntity
8
reference_cross001
 6
CONTINUOUS
 100
AcDbLine
 10
242.250000000000
 20
42.949000000000
 30
 0.0
 11
240.750000000000
 21
42.949000000000
 31
0.0
0
LINE
  5
00000305
 39
 0.100 
 100
AcDbEntity
8
reference_cross001
 6
CONTINUOUS
 100
AcDbLine
 10
241.500000000000
 20
42.199000000000
 30
 0.0
 11
241.500000000000
 21
43.699000000000
 31
0.0
0
LINE
  5
00000306
 39
 0.100 
 100
AcDbEntity
8
reference_cross001
 6
CONTINUOUS
 100
AcDbLine
 10
242.250000000000
 20
42.949000000000
 30
 0.0
 11
240.750000000000
 21
42.949000000000
 31
0.0
0
LINE
  5
00000307
 39
 0.100 
 100
AcDbEntity
8
reference_cross001
 6
CONTINUOUS
 100
AcDbLine
 10
241.500000000000
 20
42.199000000000
 30
 0.0
 11
241.500000000000
 21
43.699000000000
 31
0.0
0
LINE
  5
00000308
 39
 0.100 
 100
AcDbEntity
8
reference_cross001
 6
CONTINUOUS
 100
AcDbLine
 10
242.250000000000
 20
1.000000000000
 30
 0.0
 11
240.750000000000
 21
1.000000000000
 31
0.0
0
LINE
  5
00000309
 39
 0.100 
 100
AcDbEntity
8
reference_cross001
 6
CONTINUOUS
 100
AcDbLine
 10
241.500000000000
 20
0.250000000000
 30
 0.0
 11
241.500000000000
 21
1.750000000000
 31
0.0
0
LINE
  5
0000030a
 39
 0.100 
 100
AcDbEntity
8
reference_cross001
 6
CONTINUOUS
 100
AcDbLine
 10
242.250000000000
 20
1.000000000000
 30
 0.0
 11
240.750000000000
 21
1.000000000000
 31
0.0
0
LINE
  5
0000030b
 39
 0.100 
 100
AcDbEntity
8
reference_cross001
 6
CONTINUOUS
 100
AcDbLine
 10
241.500000000000
 20
0.250000000000
 30
 0.0
 11
241.500000000000
 21
1.750000000000
 31
0.0
0
LINE
  5
0000030c
 39
 0.100 
 100
AcDbEntity
8
reference_cross001
 6
CONTINUOUS
 100
AcDbLine
 10
459.750000000000
 20
21.974000000000
 30
 0.0
 11
458.250000000000
 21
21.974000000000
 31
0.0
0
LINE
  5
0000030d
 39
 0.100 
 100
AcDbEntity
8
reference_cross001
 6
CONTINUOUS
 100
AcDbLine
 10
459.000000000000
 20
21.224000000000
 30
 0.0
 11
459.000000000000
 21
22.724000000000
 31
0.0
0
LINE
  5
0000030e
 39
 0.100 
 100
AcDbEntity
8
reference_cross001
 6
CONTINUOUS
 100
AcDbLine
 10
459.750000000000
 20
21.974000000000
 30
 0.0
 11
458.250000000000
 21
21.974000000000
 31
0.0
0
LINE
  5
0000030f
 39
 0.100 
 100
AcDbEntity
8
reference_cross001
 6
CONTINUOUS
 100
AcDbLine
 10
459.000000000000
 20
21.224000000000
 30
 0.0
 11
459.000000000000
 21
22.724000000000
 31
0.0
0
LINE
  5
00000310
 39
 0.100 
 100
AcDbEntity
8
reference_cross001
 6
CONTINUOUS
 100
AcDbLine
 10
24.750000000000
 20
21.974000000000
 30
 0.0
 11
23.250000000000
 21
21.974000000000
 31
0.0
0
LINE
  5
00000311
 39
 0.100 
 100
AcDbEntity
8
reference_cross001
 6
CONTINUOUS
 100
AcDbLine
 10
24.000000000000
 20
21.224000000000
 30
 0.0
 11
24.000000000000
 21
22.724000000000
 31
0.0
0
LINE
  5
00000312
 39
 0.100 
 100
AcDbEntity
8
reference_cross001
 6
CONTINUOUS
 100
AcDbLine
 10
24.750000000000
 20
21.974000000000
 30
 0.0
 11
23.250000000000
 21
21.974000000000
 31
0.0
0
LINE
  5
00000313
 39
 0.100 
 100
AcDbEntity
8
reference_cross001
 6
CONTINUOUS
 100
AcDbLine
 10
24.000000000000
 20
21.224000000000
 30
 0.0
 11
24.000000000000
 21
22.724000000000
 31
0.0
0
LINE
  5
00000314
 39
 0.100 
 100
AcDbEntity
8
reference_cross001
 6
CONTINUOUS
 100
AcDbLine
 10
23.750000000000
 20
43.949000000000
 30
 0.0
 11
22.250000000000
 21
43.949000000000
 31
0.0
0
LINE
  5
00000315
 39
 0.100 
 100
AcDbEntity
8
reference_cross001
 6
CONTINUOUS
 100
AcDbLine
 10
23.000000000000
 20
43.199000000000
 30
 0.0
 11
23.000000000000
 21
44.699000000000
 31
0.0
0
LINE
  5
00000316
 39
 0.100 
 100
AcDbEntity
8
reference_cross001
 6
CONTINUOUS
 100
AcDbLine
 10
460.750000000000
 20
43.949000000000
 30
 0.0
 11
459.250000000000
 21
43.949000000000
 31
0.0
0
LINE
  5
00000317
 39
 0.100 
 100
AcDbEntity
8
reference_cross001
 6
CONTINUOUS
 100
AcDbLine
 10
460.000000000000
 20
43.199000000000
 30
 0.0
 11
460.000000000000
 21
44.699000000000
 31
0.0
0
LINE
  5
00000318
 39
 0.100 
 100
AcDbEntity
8
reference_cross001
 6
CONTINUOUS
 100
AcDbLine
 10
460.750000000000
 20
0.000000000000
 30
 0.0
 11
459.250000000000
 21
0.000000000000
 31
0.0
0
LINE
  5
00000319
 39
 0.100 
 100
AcDbEntity
8
reference_cross001
 6
CONTINUOUS
 100
AcDbLine
 10
460.000000000000
 20
-0.750000000000
 30
 0.0
 11
460.000000000000
 21
0.750000000000
 31
0.0
0
LINE
  5
0000031a
 39
 0.100 
 100
AcDbEntity
8
reference_cross001
 6
CONTINUOUS
 100
AcDbLine
 10
23.750000000000
 20
0.000000000000
 30
 0.0
 11
22.250000000000
 21
0.000000000000
 31
0.0
0
LINE
  5
0000031b
 39
 0.100 
 100
AcDbEntity
8
reference_cross001
 6
CONTINUOUS
 100
AcDbLine
 10
23.000000000000
 20
-0.750000000000
 30
 0.0
 11
23.000000000000
 21
0.750000000000
 31
0.0
0
LINE
  5
0000031c
 39
 0.100 
 100
AcDbEntity
8
reference_cross001
 6
CONTINUOUS
 100
AcDbLine
 10
474.750000000000
 20
38.000000000000
 30
 0.0
 11
473.250000000000
 21
38.000000000000
 31
0.0
0
LINE
  5
0000031d
 39
 0.100 
 100
AcDbEntity
8
reference_cross001
 6
CONTINUOUS
 100
AcDbLine
 10
474.000000000000
 20
37.250000000000
 30
 0.0
 11
474.000000000000
 21
38.750000000000
 31
0.0
0
LINE
  5
0000031e
 39
 0.100 
 100
AcDbEntity
8
reference_cross001
 6
CONTINUOUS
 100
AcDbLine
 10
9.750000000000
 20
38.000000000000
 30
 0.0
 11
8.250000000000
 21
38.000000000000
 31
0.0
0
LINE
  5
0000031f
 39
 0.100 
 100
AcDbEntity
8
reference_cross001
 6
CONTINUOUS
 100
AcDbLine
 10
9.000000000000
 20
37.250000000000
 30
 0.0
 11
9.000000000000
 21
38.750000000000
 31
0.0
0
LINE
  5
00000320
 39
 0.100 
 100
AcDbEntity
8
reference_cross001
 6
CONTINUOUS
 100
AcDbLine
 10
474.750000000000
 20
5.949000000000
 30
 0.0
 11
473.250000000000
 21
5.949000000000
 31
0.0
0
LINE
  5
00000321
 39
 0.100 
 100
AcDbEntity
8
reference_cross001
 6
CONTINUOUS
 100
AcDbLine
 10
474.000000000000
 20
5.199000000000
 30
 0.0
 11
474.000000000000
 21
6.699000000000
 31
0.0
0
LINE
  5
00000322
 39
 0.100 
 100
AcDbEntity
8
reference_cross001
 6
CONTINUOUS
 100
AcDbLine
 10
9.750000000000
 20
5.949000000000
 30
 0.0
 11
8.250000000000
 21
5.949000000000
 31
0.0
0
LINE
  5
00000323
 39
 0.100 
 100
AcDbEntity
8
reference_cross001
 6
CONTINUOUS
 100
AcDbLine
 10
9.000000000000
 20
5.199000000000
 30
 0.0
 11
9.000000000000
 21
6.699000000000
 31
0.0
0
LINE
  5
00000324
 39
 0.100 
 100
AcDbEntity
8
reference_cross001
 6
CONTINUOUS
 100
AcDbLine
 10
242.250000000000
 20
21.980000000000
 30
 0.0
 11
240.750000000000
 21
21.980000000000
 31
0.0
0
LINE
  5
00000325
 39
 0.100 
 100
AcDbEntity
8
reference_cross001
 6
CONTINUOUS
 100
AcDbLine
 10
241.500000000000
 20
21.230000000000
 30
 0.0
 11
241.500000000000
 21
22.730000000000
 31
0.0
0
LINE
  5
00000326
 39
 0.100 
 100
AcDbEntity
8
reference_cross001
 6
CONTINUOUS
 100
AcDbLine
 10
103.750000000000
 20
21.980000000000
 30
 0.0
 11
102.250000000000
 21
21.980000000000
 31
0.0
0
LINE
  5
00000327
 39
 0.100 
 100
AcDbEntity
8
reference_cross001
 6
CONTINUOUS
 100
AcDbLine
 10
103.000000000000
 20
21.230000000000
 30
 0.0
 11
103.000000000000
 21
22.730000000000
 31
0.0
0
LINE
  5
00000328
 39
 0.100 
 100
AcDbEntity
8
reference_cross092
 6
CONTINUOUS
 100
AcDbLine
 10
103.302000000000
 20
36.980000000000
 30
 0.0
 11
101.802000000000
 21
36.980000000000
 31
0.0
0
LINE
  5
00000329
 39
 0.100 
 100
AcDbEntity
8
reference_cross092
 6
CONTINUOUS
 100
AcDbLine
 10
102.552000000000
 20
36.230000000000
 30
 0.0
 11
102.552000000000
 21
37.730000000000
 31
0.0
0
LINE
  5
0000032a
 39
 0.100 
 100
AcDbEntity
8
reference_cross092
 6
CONTINUOUS
 100
AcDbLine
 10
103.749000000000
 20
21.979000000000
 30
 0.0
 11
102.249000000000
 21
21.979000000000
 31
0.0
0
LINE
  5
0000032b
 39
 0.100 
 100
AcDbEntity
8
reference_cross092
 6
CONTINUOUS
 100
AcDbLine
 10
102.999000000000
 20
21.229000000000
 30
 0.0
 11
102.999000000000
 21
22.729000000000
 31
0.0
0
LINE
  5
0000032c
 39
 0.100 
 100
AcDbEntity
8
reference_cross092
 6
CONTINUOUS
 100
AcDbLine
 10
103.749000000000
 20
21.980000000000
 30
 0.0
 11
102.249000000000
 21
21.980000000000
 31
0.0
0
LINE
  5
0000032d
 39
 0.100 
 100
AcDbEntity
8
reference_cross092
 6
CONTINUOUS
 100
AcDbLine
 10
102.999000000000
 20
21.230000000000
 30
 0.0
 11
102.999000000000
 21
22.730000000000
 31
0.0
0
LINE
  5
0000032e
 39
 0.100 
 100
AcDbEntity
8
reference_cross092
 6
CONTINUOUS
 100
AcDbLine
 10
103.828000000000
 20
6.980000000000
 30
 0.0
 11
102.328000000000
 21
6.980000000000
 31
0.0
0
LINE
  5
0000032f
 39
 0.100 
 100
AcDbEntity
8
reference_cross092
 6
CONTINUOUS
 100
AcDbLine
 10
103.078000000000
 20
6.230000000000
 30
 0.0
 11
103.078000000000
 21
7.730000000000
 31
0.0
0
LINE
  5
00000330
 39
 0.100 
 100
AcDbEntity
8
reference_cross001
 6
CONTINUOUS
 100
AcDbLine
 10
380.750000000000
 20
21.980000000000
 30
 0.0
 11
379.250000000000
 21
21.980000000000
 31
0.0
0
LINE
  5
00000331
 39
 0.100 
 100
AcDbEntity
8
reference_cross001
 6
CONTINUOUS
 100
AcDbLine
 10
380.000000000000
 20
21.230000000000
 30
 0.0
 11
380.000000000000
 21
22.730000000000
 31
0.0
0
ENDSEC
0
SECTION
2
OBJECTS
0
DICTIONARY
5
C
330
0
100
AcDbDictionary
281
1
3
ACAD_GROUP
350
D
0
DICTIONARY
5
D
330
C
100
AcDbDictionary
281
1
0
ENDSEC
0
EOF
